<svg width="78" height="80" viewBox="0 0 78 80" fill="none" xmlns="http://www.w3.org/2000/svg">
<g clip-path="url(#clip0_329_869)">
<path d="M77.2954 76.8725H63.9656V37.6256L63.261 36.9253H61.5332L60.8286 37.6256V76.8725H56.9677V58.9231L56.2631 58.2228H54.5257L53.8211 58.9231V76.8725H49.5451V56.2082L52.7497 55.4119L55.3654 53.57L57.1125 50.9318L57.7495 47.7467V32.6082L57.653 30.8142L57.3731 29.0586L56.9098 27.3318L56.2631 25.6721L60.8865 26.9193L64.6413 29.6247L67.1508 33.4333L68.0582 38.0285V47.7467L68.7628 48.4471H70.5002L71.2048 47.7467V38.0285L70.4519 33.3277L68.3574 29.2025L65.1432 25.8832L61.0506 23.5808L62.2379 22.324L63.1355 20.837L63.705 19.1678L63.9077 17.3546L63.2513 14.1408L61.4753 11.5122L58.8306 9.73738L55.5971 9.08502H54.2168L52.8462 9.43039L51.63 10.0923L50.8675 10.5049L50.5876 11.445L51.0026 12.2125L51.4176 12.9704L52.3732 13.2486L53.1358 12.8361L53.8886 12.4331L54.738 12.2125H55.5971L57.6048 12.6154L59.2553 13.7187L60.3653 15.3592L60.7707 17.3546L60.3653 19.3596L59.2553 20.9905L57.6048 22.0938L55.5971 22.4967H55.5392H55.5102H55.3944H54.9118H54.6608L54.4195 22.5159L52.6821 20.5013L50.6841 18.7744L48.4641 17.3642L46.0413 16.2993L47.4602 14.8795L48.5413 13.1814L49.2362 11.2627L49.4775 9.17136L48.7536 5.60259L46.7749 2.68617L43.8406 0.719511L40.2596 0L36.6786 0.719511L33.7443 2.68617L31.7753 5.60259L31.0417 9.17136L31.2637 11.1668L31.9008 13.0088L32.8853 14.6588L34.1883 16.0595L31.5629 17.1148L29.1402 18.5634L26.9781 20.367L25.1056 22.5255H24.9415L24.8546 22.5159H24.787L24.7291 22.4967H24.6616L22.6442 22.0938L21.0033 20.9809L19.903 19.35L19.4976 17.345L19.9126 15.3496L21.0226 13.7187L22.6635 12.6154L24.6809 12.2125H25.5206L26.3217 12.414L27.065 12.7977L27.8275 13.2006L28.7831 12.9032L29.1788 12.1357L29.5842 11.3683L24.6712 9.08502L21.4377 9.73738L18.8026 11.5026L17.017 14.1312L16.3606 17.3354L16.5343 19.0622L17.0556 20.6644L17.8664 22.1034L18.9474 23.3409L17.2872 23.9933L10.8588 29.3752L8.14652 37.9902L8.11756 46.8833V47.7467L8.81252 48.4471H10.5499L11.2545 47.7563V46.8929L13.4456 31.1404L20.9937 26.0079L23.2716 25.6625L22.6249 27.3222L22.1616 29.049L21.872 30.8142L21.7755 32.6082V47.7467L22.3933 50.8742L24.0824 53.474L26.6017 55.3256L29.7193 56.189V76.8725H25.9067L25.9453 59.7961V58.9327L25.2503 58.2324H24.3816L23.5129 58.2228L22.8083 58.9231V59.7865L22.7697 76.8725H18.2042L18.2911 38.4794V37.616L17.5864 36.9157H15.849L15.1444 37.6064V38.4698L15.0672 76.8725H0.704616L0 77.5729V79.2997L0.704616 80H77.2954L78 79.2997V77.5729L77.2954 76.8725ZM34.671 6.82096L35.974 4.89267L37.9045 3.59755L40.2596 3.12747L42.6244 3.59755L44.5549 4.89267L45.8579 6.82096L46.3309 9.17136L45.8579 11.5122L44.5549 13.4405L42.6244 14.7356L40.2596 15.2057L37.9045 14.7356L35.974 13.4405L34.671 11.5122L34.1883 9.17136L34.671 6.82096ZM47.1031 31.5721L46.3985 32.2725V76.8725H41.6013V54.2703L40.8967 53.57H39.1593L38.4546 54.2703V76.8725H32.866V32.2725L32.1614 31.5721H30.424L29.7193 32.2725V33.1359L29.1595 51.8048L27.1422 49.8765C25.7233 48.5142 24.9222 46.6435 24.9222 44.6768V32.6082L27.2001 25.0102L36.0223 18.7936L39.7674 18.3331L43.5028 18.7936L52.325 24.991L54.6126 32.6082V47.7467L54.2168 49.723L53.1358 51.3635L51.5335 52.5243L49.5451 53.0807V32.2725L48.8405 31.5721H47.1031Z" fill="#39A900"/>
</g>
<defs>
<clipPath id="clip0_329_869">
<rect width="78" height="80" fill="white"/>
</clipPath>
</defs>
</svg>
