<svg width="60" height="48" viewBox="0 0 60 48" fill="none" xmlns="http://www.w3.org/2000/svg">
<g clip-path="url(#clip0_329_877)">
<path d="M53.18 18.2401C51.99 18.8001 50.89 19.3001 49.81 19.8501C49.66 19.9301 49.59 20.2901 49.59 20.5201C49.58 23.9001 49.56 27.2901 49.59 30.6701C49.59 31.4001 49.33 31.8001 48.7 32.1501C44.47 34.5001 40.03 36.2401 35.24 37.0201C29.99 37.8801 24.82 37.4801 19.73 35.9701C16.61 35.0401 13.67 33.7101 10.82 32.1401C10.16 31.7701 9.92995 31.3301 9.92995 30.5901C9.95995 27.1601 9.92995 23.7401 9.94995 20.3101C9.94995 19.8501 9.79995 19.6401 9.38995 19.4501C6.68995 18.2001 3.99995 16.9301 1.30995 15.6501C1.04995 15.5201 0.769955 15.3401 0.609955 15.1101C0.299955 14.6501 0.539954 14.1701 1.17995 13.8701C3.75995 12.6501 6.33995 11.4401 8.92995 10.2201C15.73 7.06005 22.5 3.88005 29.28 0.680054C29.76 0.450054 30.18 0.440054 30.66 0.680054C39.98 5.08005 49.3 9.46005 58.62 13.8501C59.01 14.0401 59.4 14.2201 59.42 14.7401C59.44 15.2901 59.04 15.5001 58.62 15.7001C57.52 16.2201 56.43 16.7401 55.32 17.2401C54.97 17.4001 54.86 17.6001 54.86 17.9801C54.87 22.5801 54.87 27.1801 54.86 31.7801C54.86 32.1701 54.99 32.3301 55.35 32.4801C57.53 33.3501 58.32 35.8001 57.13 37.8301C57 38.0501 56.94 38.3601 56.98 38.6001C57.35 40.7601 57.73 42.9101 58.14 45.0501C58.26 45.6501 58.07 46.0201 57.54 46.2801C55.14 47.4501 52.76 47.3101 50.39 46.2101C49.9 45.9801 49.83 45.5701 49.92 45.0801C50.31 42.9701 50.7 40.8601 51.05 38.7401C51.1 38.4401 51.05 38.0501 50.89 37.7901C49.72 35.7801 50.56 33.3201 52.72 32.4301C52.91 32.3501 53.17 32.1101 53.17 31.9401C53.19 27.4201 53.19 22.9001 53.19 18.2601L53.18 18.2401ZM3.35995 14.7501C3.61995 14.8801 3.74995 14.9601 3.89995 15.0201C6.62995 16.3001 9.34995 17.5901 12.08 18.8701C17.85 21.5801 23.62 24.3001 29.38 27.0201C29.8 27.2201 30.13 27.2401 30.56 27.0301C38.43 23.3101 46.3 19.6101 54.17 15.9101C54.94 15.5501 55.71 15.1701 56.57 14.7601C56.31 14.6301 56.15 14.5401 55.99 14.4601C47.48 10.4501 38.96 6.45005 30.45 2.43005C30.08 2.25005 29.79 2.28005 29.44 2.45005C22.94 5.52005 16.44 8.58006 9.94995 11.6401C7.78995 12.6601 5.62995 13.6701 3.34995 14.7401L3.35995 14.7501ZM47.91 20.7401C47.63 20.8601 47.45 20.9301 47.28 21.0101C41.84 23.5701 36.4 26.1201 30.97 28.7001C30.27 29.0401 29.69 29.0401 28.98 28.7001C23.39 26.0401 17.78 23.4101 12.18 20.7701C12.02 20.7001 11.86 20.6401 11.68 20.5701C11.66 20.6801 11.63 20.7401 11.63 20.8001C11.63 23.9601 11.62 27.1201 11.64 30.2801C11.64 30.4801 11.85 30.7601 12.04 30.8501C14.07 31.8101 16.07 32.8501 18.16 33.6401C23.37 35.5901 28.76 36.2201 34.29 35.4301C38.94 34.7701 43.26 33.1801 47.37 30.9401C47.76 30.7301 47.91 30.4901 47.91 30.0501C47.89 27.1701 47.91 24.2901 47.91 21.4201C47.91 21.2201 47.91 21.0201 47.91 20.7201V20.7401ZM51.65 44.8901C53.26 45.5401 54.8 45.5701 56.39 44.9001C56.04 43.0101 55.71 41.1601 55.39 39.4101H52.65C52.33 41.1601 52 42.9801 51.65 44.8801V44.8901ZM54.05 33.8901C52.92 33.8901 52.03 34.7701 52.04 35.8701C52.04 36.9301 52.96 37.8401 54.02 37.8401C55.08 37.8401 55.99 36.9401 56 35.8701C56.01 34.8001 55.12 33.8901 54.05 33.8901Z" fill="#39A900" stroke="#39A900" stroke-miterlimit="10"/>
</g>
<defs>
<clipPath id="clip0_329_877">
<rect width="59.92" height="47.58" fill="white"/>
</clipPath>
</defs>
</svg>
