<svg width="59" height="59" viewBox="0 0 59 59" fill="none" xmlns="http://www.w3.org/2000/svg">
<g clip-path="url(#clip0_329_879)">
<path d="M55.22 58.92H3.67999C3.11999 58.67 2.93999 58.22 2.93999 57.62C2.95999 56.16 2.93999 54.71 2.93999 53.25C2.93999 52.86 2.93999 52.47 2.93999 52.04C2.39999 52.04 1.90999 52.04 1.40999 52.04C0.26999 52.04 -0.0100098 51.75 -0.0100098 50.61C-0.0100098 39.13 -0.0100098 27.64 -0.0100098 16.16C-0.0100098 15.03 0.28999 14.73 1.41999 14.73C5.93999 14.73 10.47 14.73 14.99 14.73H15.7V13.97C15.7 9.81 15.7 5.65 15.7 1.49C15.71 0.27 15.98 0 17.19 0C25.35 0 33.52 0 41.68 0C42.92 0 43.18 0.27 43.18 1.53C43.18 5.69 43.18 9.85 43.18 14.01C43.18 14.24 43.18 14.46 43.18 14.73H43.87C48.41 14.73 52.95 14.73 57.5 14.73C58.11 14.73 58.58 14.89 58.89 15.43V51.33C58.62 51.87 58.18 52.08 57.58 52.05C57.03 52.02 56.48 52.05 55.91 52.05C55.91 52.23 55.89 52.35 55.89 52.46C55.9 54.18 55.91 55.91 55.94 57.63C55.95 58.23 55.77 58.68 55.2 58.93L55.22 58.92ZM41.18 38.4V1.99H17.73V38.4C19.48 38.09 20.93 38.54 21.9 39.99C23.03 41.68 22.77 43.36 21.58 44.86C22.24 45.45 22.88 46.02 23.41 46.5C24.32 45.62 25.24 44.75 26.15 43.87C24.09 41.39 24.02 38.78 26.02 36.75C27.74 35 30.61 34.84 32.51 36.39C33.48 37.18 34.1 38.2 34.28 39.45C34.54 41.23 33.95 42.72 32.76 43.85C33.71 44.77 34.62 45.64 35.5 46.5C36.07 45.99 36.7 45.43 37.34 44.85C36.17 43.36 35.93 41.73 36.98 40.09C37.93 38.6 39.39 38.1 41.18 38.39V38.4ZM56.9 50.07V16.72H43.22C43.21 16.92 43.19 17.08 43.19 17.25C43.19 24.57 43.19 31.89 43.19 39.22C43.19 39.48 43.31 39.78 43.45 40C44.14 41.06 44.38 42.19 43.95 43.39C43.76 43.93 43.44 44.43 43.17 44.97C44.6 45.82 45.52 47.08 45.98 48.74C46.42 48.41 46.8 48.13 47.17 47.85C45.39 45.62 46.21 43.41 47.33 42.35C48.78 40.97 50.92 40.87 52.47 42.09C53.24 42.7 53.73 43.49 53.9 44.44C54.12 45.71 53.78 46.86 53.02 47.73C53.72 48.49 54.37 49.2 55.03 49.91C55.11 50 55.25 50.07 55.37 50.07C55.86 50.09 56.36 50.07 56.89 50.07H56.9ZM1.99999 16.7V50.06C2.50999 50.06 2.98999 50.06 3.45999 50.06C3.57999 50.06 3.73999 50.02 3.81999 49.94C4.50999 49.21 5.17999 48.47 5.86999 47.73C4.34999 45.91 4.78999 43.65 6.06999 42.39C7.50999 40.97 9.66999 40.85 11.25 42.08C13.01 43.44 13.18 45.38 11.75 47.88C12.12 48.15 12.5 48.42 12.93 48.73C13.39 47.04 14.35 45.8 15.79 44.92C15.73 44.82 15.7 44.76 15.65 44.7C14.48 43.14 14.44 41.53 15.51 39.91C15.65 39.7 15.71 39.41 15.71 39.16C15.72 31.88 15.71 24.59 15.71 17.31C15.71 17.11 15.69 16.91 15.68 16.7H1.99999ZM34.33 56.93C34.35 56.81 34.37 56.72 34.37 56.63C34.37 54.48 34.42 52.34 34.36 50.19C34.28 47.32 32.36 45.34 29.62 45.2C27.22 45.08 24.78 46.99 24.65 49.3C24.51 51.8 24.58 54.32 24.56 56.82C24.56 56.85 24.6 56.88 24.63 56.93H34.34H34.33ZM22.53 56.93C22.53 54.42 22.63 51.95 22.49 49.49C22.41 47.99 21.42 46.92 19.99 46.41C17.38 45.47 14.78 47.33 14.73 50.15C14.7 52.01 14.73 53.87 14.73 55.73C14.73 56.13 14.73 56.52 14.73 56.94H22.53V56.93ZM44.18 56.93C44.18 54.92 44.18 52.95 44.18 50.98C44.18 50.44 44.18 49.9 44.1 49.38C43.75 47.32 41.78 45.91 39.73 46.21C37.71 46.51 36.37 48.07 36.35 50.21C36.33 52.34 36.35 54.46 36.35 56.59C36.35 56.7 36.37 56.81 36.38 56.94H44.19L44.18 56.93ZM12.77 56.93C12.77 55.7 12.77 54.52 12.77 53.34C12.77 53.07 12.76 52.8 12.72 52.54C12.45 50.61 10.95 49.22 9.05999 49.12C7.11999 49.02 5.34999 50.23 5.06999 52.18C4.84999 53.73 5.02999 55.33 5.02999 56.93H12.78H12.77ZM53.97 56.94C53.97 55.55 54.01 54.21 53.96 52.87C53.87 50.76 52.27 49.2 50.21 49.12C48.16 49.04 46.41 50.49 46.2 52.59C46.07 53.88 46.15 55.19 46.14 56.49C46.14 56.64 46.17 56.78 46.18 56.94H53.97ZM29.42 43.19C31.04 43.21 32.35 41.93 32.39 40.3C32.42 38.69 31.07 37.31 29.45 37.31C27.85 37.31 26.52 38.64 26.51 40.24C26.51 41.85 27.8 43.17 29.42 43.18V43.19ZM38.3 42.2C38.29 43.3 39.16 44.19 40.25 44.18C41.31 44.18 42.19 43.3 42.21 42.25C42.23 41.17 41.33 40.27 40.24 40.27C39.17 40.27 38.31 41.12 38.29 42.2H38.3ZM20.6 42.25C20.61 41.17 19.77 40.3 18.71 40.27C17.62 40.25 16.71 41.12 16.69 42.2C16.67 43.28 17.57 44.19 18.66 44.18C19.73 44.18 20.59 43.31 20.61 42.25H20.6ZM6.88999 45.19C6.88999 46.26 7.75999 47.12 8.82999 47.13C9.90999 47.13 10.82 46.22 10.8 45.15C10.79 44.09 9.90999 43.22 8.83999 43.22C7.73999 43.22 6.86999 44.09 6.87999 45.19H6.88999ZM52.02 45.17C52.02 44.09 51.18 43.23 50.1 43.22C49.01 43.2 48.1 44.09 48.1 45.17C48.1 46.24 49.02 47.15 50.09 47.13C51.16 47.11 52.01 46.25 52.01 45.17H52.02Z" fill="#39A900"/>
<path d="M29.4701 3.92004C31.3101 3.92004 33.1501 3.92004 34.9901 3.92004C35.9901 3.92004 36.3301 4.27004 36.3301 5.27004C36.3301 7.65004 36.3301 10.02 36.3301 12.4C36.3301 13.4 35.9901 13.74 34.9801 13.74C31.3001 13.74 27.6201 13.74 23.9401 13.74C22.8901 13.74 22.5701 13.41 22.5701 12.37C22.5701 10.01 22.5701 7.66004 22.5701 5.30004C22.5701 4.26004 22.9101 3.92004 23.9501 3.92004C25.7901 3.92004 27.6301 3.92004 29.4701 3.92004ZM34.3401 5.92004H24.5801V11.73H34.3401V5.92004Z" fill="#39A900"/>
<path d="M28.5 31.4399H30.39V33.3499H28.5V31.4399Z" fill="#39A900"/>
<path d="M30.39 29.44H28.51V27.53H30.39V29.44Z" fill="#39A900"/>
<path d="M28.51 15.75H30.4V17.64H28.51V15.75Z" fill="#39A900"/>
<path d="M28.51 19.6801H30.39V21.5801H28.51V19.6801Z" fill="#39A900"/>
<path d="M28.5 23.61H30.4V25.5H28.5V23.61Z" fill="#39A900"/>
<path d="M20.6299 33.35V31.46H22.5299V33.35H20.6299Z" fill="#39A900"/>
<path d="M24.5701 31.45H26.4601V33.34H24.5701V31.45Z" fill="#39A900"/>
<path d="M32.45 31.45H34.34V33.33H32.45V31.45Z" fill="#39A900"/>
<path d="M38.2701 31.46V33.34H36.3601V31.46H38.2701Z" fill="#39A900"/>
<path d="M38.2699 19.6801V21.5701H36.3799V19.6801H38.2699Z" fill="#39A900"/>
<path d="M22.5299 25.52H20.6499V23.62H22.5299V25.52Z" fill="#39A900"/>
<path d="M26.4601 25.51H24.5701V23.61H26.4601V25.51Z" fill="#39A900"/>
<path d="M34.32 25.52H32.45V23.61H34.32V25.52Z" fill="#39A900"/>
<path d="M38.2701 23.63V25.5H36.3701V23.63H38.2701Z" fill="#39A900"/>
<path d="M20.6399 21.5699V19.6899H22.5399V21.5699H20.6399Z" fill="#39A900"/>
<path d="M20.6299 29.43V27.54H22.5399V29.43H20.6299Z" fill="#39A900"/>
<path d="M26.4501 29.43H24.5701V27.52H26.4501V29.43Z" fill="#39A900"/>
<path d="M32.4399 27.53H34.3299V29.41H32.4399V27.53Z" fill="#39A900"/>
<path d="M36.3701 27.53H38.2601V29.42H36.3701V27.53Z" fill="#39A900"/>
<path d="M24.5701 17.65V15.76H26.4601V17.65H24.5701Z" fill="#39A900"/>
<path d="M32.45 15.74C32.6 15.73 32.7 15.71 32.79 15.71C34.49 15.67 34.64 15.85 34.29 17.64H32.45V15.74Z" fill="#39A900"/>
<path d="M32.45 19.6801H34.33V21.5801H32.45V19.6801Z" fill="#39A900"/>
<path d="M26.4801 19.7V21.57H24.5701V19.7H26.4801Z" fill="#39A900"/>
<path d="M46.1899 22.61H48.0599V38.27H46.1899V22.61Z" fill="#39A900"/>
<path d="M53.9501 38.27H52.0601V22.62H53.9501V38.27Z" fill="#39A900"/>
<path d="M6.83996 38.28H4.95996V22.62H6.83996V38.28Z" fill="#39A900"/>
<path d="M12.7301 38.29H10.8501V22.62H12.7301V38.29Z" fill="#39A900"/>
</g>
<defs>
<clipPath id="clip0_329_879">
<rect width="58.9" height="58.92" fill="white"/>
</clipPath>
</defs>
</svg>
