<svg width="477" height="618" viewBox="0 0 477 618" fill="none" xmlns="http://www.w3.org/2000/svg">
<g opacity="0.8">
<mask id="mask0_140_165" style="mask-type:luminance" maskUnits="userSpaceOnUse" x="0" y="0" width="618" height="618">
<path d="M618 0H0V618H618V0Z" fill="white"/>
<path d="M0.5 617.5V0.5H617.5V617.5H0.5Z" stroke="white"/>
</mask>
<g mask="url(#mask0_140_165)">
<path d="M964.766 -346.766H-346.766V964.766H964.766V-346.766Z" stroke="#025E73" stroke-opacity="0.1" stroke-miterlimit="10"/>
<path d="M63.0852 604.087C44.9746 604.087 30.3003 618.761 30.3003 636.872" stroke="#025E73" stroke-opacity="0.1" stroke-miterlimit="10"/>
<path d="M-18.8833 587.7C-0.772673 587.7 13.9016 573.026 13.9016 554.915" stroke="#025E73" stroke-opacity="0.1" stroke-miterlimit="10"/>
<path d="M63.0849 587.7C35.9189 587.7 13.9019 609.717 13.9019 636.883" stroke="#025E73" stroke-opacity="0.1" stroke-miterlimit="10"/>
<path d="M-18.8833 604.087C8.28264 604.087 30.2997 582.07 30.2997 554.904" stroke="#025E73" stroke-opacity="0.1" stroke-miterlimit="10"/>
<path d="M63.085 571.302C26.8637 571.302 -2.49609 600.662 -2.49609 636.883" stroke="#025E73" stroke-opacity="0.1" stroke-miterlimit="10"/>
<path d="M-18.8833 620.485C-11.9995 620.485 -5.16041 619.399 1.37643 617.272" stroke="#025E73" stroke-opacity="0.1" stroke-miterlimit="10"/>
<path d="M43.4856 575.175C45.6123 568.627 46.698 561.788 46.698 554.915" stroke="#025E73" stroke-opacity="0.1" stroke-miterlimit="10"/>
<path d="M63.0851 538.517C54.0298 538.517 46.687 545.859 46.687 554.915" stroke="#025E73" stroke-opacity="0.1" stroke-miterlimit="10"/>
<path d="M63.0852 522.119C44.9746 522.119 30.3003 536.793 30.3003 554.904" stroke="#025E73" stroke-opacity="0.1" stroke-miterlimit="10"/>
<path d="M-18.8833 505.732C-0.772673 505.732 13.9016 491.058 13.9016 472.947" stroke="#025E73" stroke-opacity="0.1" stroke-miterlimit="10"/>
<path d="M63.0849 505.732C35.9189 505.732 13.9019 527.749 13.9019 554.915" stroke="#025E73" stroke-opacity="0.1" stroke-miterlimit="10"/>
<path d="M-18.8833 522.119C8.28264 522.119 30.2997 500.102 30.2997 472.936" stroke="#025E73" stroke-opacity="0.1" stroke-miterlimit="10"/>
<path d="M63.085 489.334C26.8637 489.334 -2.49609 518.694 -2.49609 554.915" stroke="#025E73" stroke-opacity="0.1" stroke-miterlimit="10"/>
<path d="M-18.8833 538.517C-11.9995 538.517 -5.16041 537.431 1.37643 535.305" stroke="#025E73" stroke-opacity="0.1" stroke-miterlimit="10"/>
<path d="M43.4856 493.207C45.6123 486.659 46.698 479.82 46.698 472.947" stroke="#025E73" stroke-opacity="0.1" stroke-miterlimit="10"/>
<path d="M63.0851 456.549C54.0298 456.549 46.687 463.892 46.687 472.947" stroke="#025E73" stroke-opacity="0.1" stroke-miterlimit="10"/>
<path d="M-18.8833 423.753C-0.772673 423.753 13.9016 409.078 13.9016 390.968" stroke="#025E73" stroke-opacity="0.1" stroke-miterlimit="10"/>
<path d="M63.0852 440.151C44.9746 440.151 30.3003 454.825 30.3003 472.936" stroke="#025E73" stroke-opacity="0.1" stroke-miterlimit="10"/>
<path d="M-18.8833 440.151C8.28264 440.151 30.2997 418.134 30.2997 390.968" stroke="#025E73" stroke-opacity="0.1" stroke-miterlimit="10"/>
<path d="M63.0849 423.753C35.9189 423.753 13.9019 445.77 13.9019 472.936" stroke="#025E73" stroke-opacity="0.1" stroke-miterlimit="10"/>
<path d="M-18.8833 456.549C17.338 456.549 46.6978 427.189 46.6978 390.968" stroke="#025E73" stroke-opacity="0.1" stroke-miterlimit="10"/>
<path d="M63.0849 407.366C56.2011 407.366 49.362 408.452 42.8252 410.579" stroke="#025E73" stroke-opacity="0.1" stroke-miterlimit="10"/>
<path d="M0.716355 452.676C-1.41036 459.224 -2.49609 466.063 -2.49609 472.936" stroke="#025E73" stroke-opacity="0.1" stroke-miterlimit="10"/>
<path d="M-18.8833 374.57C-5.30593 374.57 5.7082 363.556 5.7082 349.978C5.7082 336.401 -5.30593 325.387 -18.8833 325.387" stroke="#025E73" stroke-opacity="0.1" stroke-miterlimit="10"/>
<path d="M30.2997 390.968C30.2997 386.446 26.6283 382.774 22.1063 382.774C17.5842 382.774 13.9128 386.446 13.9128 390.968" stroke="#025E73" stroke-opacity="0.1" stroke-miterlimit="10"/>
<path d="M46.6869 390.968C46.6869 377.391 35.6728 366.376 22.0954 366.376C8.51804 366.376 -2.49609 377.391 -2.49609 390.968" stroke="#025E73" stroke-opacity="0.1" stroke-miterlimit="10"/>
<path d="M63.085 341.785C58.563 341.785 54.8916 345.456 54.8916 349.978C54.8916 354.5 58.563 358.171 63.085 358.171" stroke="#025E73" stroke-opacity="0.1" stroke-miterlimit="10"/>
<path d="M63.0852 325.387C49.5078 325.387 38.4937 336.401 38.4937 349.978C38.4937 363.556 49.5078 374.57 63.0852 374.57" stroke="#025E73" stroke-opacity="0.1" stroke-miterlimit="10"/>
<path d="M13.9019 309C13.9019 313.522 17.5732 317.193 22.0953 317.193C26.6174 317.193 30.2887 313.522 30.2887 309" stroke="#025E73" stroke-opacity="0.1" stroke-miterlimit="10"/>
<path d="M-2.48462 309C-2.48462 322.577 8.52951 333.592 22.1069 333.592C35.6843 333.592 46.6984 322.577 46.6984 309" stroke="#025E73" stroke-opacity="0.1" stroke-miterlimit="10"/>
<path d="M63.0851 292.602C54.0298 292.602 46.687 299.945 46.687 309" stroke="#025E73" stroke-opacity="0.1" stroke-miterlimit="10"/>
<path d="M63.0852 276.204C44.9746 276.204 30.3003 290.878 30.3003 308.989" stroke="#025E73" stroke-opacity="0.1" stroke-miterlimit="10"/>
<path d="M-18.8833 259.817C-0.772673 259.817 13.9016 245.143 13.9016 227.032" stroke="#025E73" stroke-opacity="0.1" stroke-miterlimit="10"/>
<path d="M63.0849 259.817C35.9189 259.817 13.9019 281.834 13.9019 309" stroke="#025E73" stroke-opacity="0.1" stroke-miterlimit="10"/>
<path d="M-18.8833 276.204C8.28264 276.204 30.2997 254.186 30.2997 227.021" stroke="#025E73" stroke-opacity="0.1" stroke-miterlimit="10"/>
<path d="M63.085 243.419C26.8637 243.419 -2.49609 272.779 -2.49609 309" stroke="#025E73" stroke-opacity="0.1" stroke-miterlimit="10"/>
<path d="M-18.8833 292.602C-11.9995 292.602 -5.16041 291.516 1.37643 289.39" stroke="#025E73" stroke-opacity="0.1" stroke-miterlimit="10"/>
<path d="M43.4856 247.292C45.6123 240.744 46.698 233.905 46.698 227.032" stroke="#025E73" stroke-opacity="0.1" stroke-miterlimit="10"/>
<path d="M22.0951 202.441C31.1515 202.441 38.4931 195.099 38.4931 186.043C38.4931 176.986 31.1515 169.645 22.0951 169.645C13.0387 169.645 5.69702 176.986 5.69702 186.043C5.69702 195.099 13.0387 202.441 22.0951 202.441Z" stroke="#025E73" stroke-opacity="0.1" stroke-miterlimit="10"/>
<path d="M13.9016 227.032C13.9016 208.921 -0.772673 194.247 -18.8833 194.247" stroke="#025E73" stroke-opacity="0.1" stroke-miterlimit="10"/>
<path d="M63.0851 210.634C54.0298 210.634 46.687 217.977 46.687 227.032" stroke="#025E73" stroke-opacity="0.1" stroke-miterlimit="10"/>
<path d="M63.0852 194.236C44.9746 194.236 30.3003 208.91 30.3003 227.021" stroke="#025E73" stroke-opacity="0.1" stroke-miterlimit="10"/>
<path d="M46.687 145.053C46.687 154.108 54.0298 161.451 63.0851 161.451" stroke="#025E73" stroke-opacity="0.1" stroke-miterlimit="10"/>
<path d="M30.3003 145.053C30.3003 163.163 44.9746 177.838 63.0852 177.838" stroke="#025E73" stroke-opacity="0.1" stroke-miterlimit="10"/>
<path d="M-18.8833 177.849C-0.772673 177.849 13.9016 163.175 13.9016 145.064" stroke="#025E73" stroke-opacity="0.1" stroke-miterlimit="10"/>
<path d="M-18.8833 128.666C-5.30593 128.666 5.7082 117.652 5.7082 104.075C5.7082 90.4975 -5.30593 79.4834 -18.8833 79.4834" stroke="#025E73" stroke-opacity="0.1" stroke-miterlimit="10"/>
<path d="M30.2997 145.053C30.2997 140.531 26.6283 136.859 22.1063 136.859C17.5842 136.859 13.9128 140.531 13.9128 145.053" stroke="#025E73" stroke-opacity="0.1" stroke-miterlimit="10"/>
<path d="M46.6869 145.053C46.6869 131.476 35.6728 120.461 22.0954 120.461C8.51804 120.461 -2.49609 131.476 -2.49609 145.053" stroke="#025E73" stroke-opacity="0.1" stroke-miterlimit="10"/>
<path d="M63.085 95.8699C58.563 95.8699 54.8916 99.5412 54.8916 104.063C54.8916 108.585 58.563 112.257 63.085 112.257" stroke="#025E73" stroke-opacity="0.1" stroke-miterlimit="10"/>
<path d="M63.0852 79.4834C49.5078 79.4834 38.4937 90.4975 38.4937 104.075C38.4937 117.652 49.5078 128.666 63.0852 128.666" stroke="#025E73" stroke-opacity="0.1" stroke-miterlimit="10"/>
<path d="M13.9019 63.085C13.9019 67.607 17.5732 71.2784 22.0953 71.2784C26.6174 71.2784 30.2887 67.607 30.2887 63.085" stroke="#025E73" stroke-opacity="0.1" stroke-miterlimit="10"/>
<path d="M-2.48462 63.085C-2.48462 76.6623 8.52951 87.6765 22.1069 87.6765C35.6843 87.6765 46.6984 76.6623 46.6984 63.085" stroke="#025E73" stroke-opacity="0.1" stroke-miterlimit="10"/>
<path d="M13.9016 63.085C13.9016 44.9744 -0.772673 30.3 -18.8833 30.3" stroke="#025E73" stroke-opacity="0.1" stroke-miterlimit="10"/>
<path d="M30.3003 -18.8828C30.3003 -0.772185 44.9746 13.9021 63.0852 13.9021" stroke="#025E73" stroke-opacity="0.1" stroke-miterlimit="10"/>
<path d="M30.2997 63.0849C30.2997 35.9189 8.28264 13.9019 -18.8833 13.9019" stroke="#025E73" stroke-opacity="0.1" stroke-miterlimit="10"/>
<path d="M13.9019 -18.8828C13.9019 8.28313 35.9189 30.3002 63.0849 30.3002" stroke="#025E73" stroke-opacity="0.1" stroke-miterlimit="10"/>
<path d="M46.687 63.085C46.687 26.8637 17.3272 -2.49609 -18.894 -2.49609" stroke="#025E73" stroke-opacity="0.1" stroke-miterlimit="10"/>
<path d="M-2.48462 -18.8828C-2.48462 -11.999 -1.39885 -5.15992 0.727863 1.37692" stroke="#025E73" stroke-opacity="0.1" stroke-miterlimit="10"/>
<path d="M42.8252 43.4856C49.3732 45.6123 56.2123 46.698 63.0849 46.698" stroke="#025E73" stroke-opacity="0.1" stroke-miterlimit="10"/>
<path d="M128.667 554.904C128.667 563.959 136.009 571.302 145.065 571.302" stroke="#025E73" stroke-opacity="0.1" stroke-miterlimit="10"/>
<path d="M95.8699 636.883C95.8699 618.772 81.1956 604.098 63.085 604.098" stroke="#025E73" stroke-opacity="0.1" stroke-miterlimit="10"/>
<path d="M112.268 554.904C112.268 573.014 126.943 587.689 145.053 587.689" stroke="#025E73" stroke-opacity="0.1" stroke-miterlimit="10"/>
<path d="M112.268 636.883C112.268 609.717 90.2509 587.7 63.085 587.7" stroke="#025E73" stroke-opacity="0.1" stroke-miterlimit="10"/>
<path d="M95.8699 554.904C95.8699 582.07 117.887 604.087 145.053 604.087" stroke="#025E73" stroke-opacity="0.1" stroke-miterlimit="10"/>
<path d="M128.666 636.883C128.666 600.662 99.3062 571.302 63.085 571.302" stroke="#025E73" stroke-opacity="0.1" stroke-miterlimit="10"/>
<path d="M79.4834 554.904C79.4834 561.788 80.5691 568.627 82.6958 575.164" stroke="#025E73" stroke-opacity="0.1" stroke-miterlimit="10"/>
<path d="M124.793 617.272C131.341 619.399 138.181 620.485 145.053 620.485" stroke="#025E73" stroke-opacity="0.1" stroke-miterlimit="10"/>
<path d="M79.483 554.904C79.483 545.849 72.1403 538.506 63.085 538.506" stroke="#025E73" stroke-opacity="0.1" stroke-miterlimit="10"/>
<path d="M128.667 472.936C128.667 481.991 136.009 489.334 145.065 489.334" stroke="#025E73" stroke-opacity="0.1" stroke-miterlimit="10"/>
<path d="M95.8699 554.904C95.8699 536.793 81.1956 522.119 63.085 522.119" stroke="#025E73" stroke-opacity="0.1" stroke-miterlimit="10"/>
<path d="M112.268 472.936C112.268 491.047 126.943 505.721 145.053 505.721" stroke="#025E73" stroke-opacity="0.1" stroke-miterlimit="10"/>
<path d="M112.268 554.904C112.268 527.738 90.2509 505.721 63.085 505.721" stroke="#025E73" stroke-opacity="0.1" stroke-miterlimit="10"/>
<path d="M95.8699 472.936C95.8699 500.102 117.887 522.119 145.053 522.119" stroke="#025E73" stroke-opacity="0.1" stroke-miterlimit="10"/>
<path d="M128.666 554.904C128.666 518.683 99.3062 489.323 63.085 489.323" stroke="#025E73" stroke-opacity="0.1" stroke-miterlimit="10"/>
<path d="M79.4834 472.936C79.4834 479.82 80.5691 486.659 82.6958 493.196" stroke="#025E73" stroke-opacity="0.1" stroke-miterlimit="10"/>
<path d="M124.793 535.305C131.341 537.431 138.181 538.517 145.053 538.517" stroke="#025E73" stroke-opacity="0.1" stroke-miterlimit="10"/>
<path d="M128.667 390.968C128.667 400.023 136.009 407.366 145.065 407.366" stroke="#025E73" stroke-opacity="0.1" stroke-miterlimit="10"/>
<path d="M79.483 472.936C79.483 463.881 72.1403 456.538 63.085 456.538" stroke="#025E73" stroke-opacity="0.1" stroke-miterlimit="10"/>
<path d="M112.268 390.968C112.268 409.078 126.943 423.753 145.053 423.753" stroke="#025E73" stroke-opacity="0.1" stroke-miterlimit="10"/>
<path d="M95.8699 472.936C95.8699 454.825 81.1956 440.151 63.085 440.151" stroke="#025E73" stroke-opacity="0.1" stroke-miterlimit="10"/>
<path d="M95.8699 390.968C95.8699 418.134 117.887 440.151 145.053 440.151" stroke="#025E73" stroke-opacity="0.1" stroke-miterlimit="10"/>
<path d="M112.268 472.936C112.268 445.77 90.2509 423.753 63.085 423.753" stroke="#025E73" stroke-opacity="0.1" stroke-miterlimit="10"/>
<path d="M79.4834 390.968C79.4834 427.189 108.843 456.549 145.064 456.549" stroke="#025E73" stroke-opacity="0.1" stroke-miterlimit="10"/>
<path d="M128.666 472.936C128.666 466.052 127.58 459.213 125.454 452.676" stroke="#025E73" stroke-opacity="0.1" stroke-miterlimit="10"/>
<path d="M83.3556 410.567C76.8076 408.44 69.9686 407.354 63.0959 407.354" stroke="#025E73" stroke-opacity="0.1" stroke-miterlimit="10"/>
<path d="M145.053 374.57C135.998 374.57 128.655 381.913 128.655 390.968" stroke="#025E73" stroke-opacity="0.1" stroke-miterlimit="10"/>
<path d="M63.085 325.387C72.1403 325.387 79.483 318.044 79.483 308.989" stroke="#025E73" stroke-opacity="0.1" stroke-miterlimit="10"/>
<path d="M145.053 358.183C126.943 358.183 112.268 372.857 112.268 390.968" stroke="#025E73" stroke-opacity="0.1" stroke-miterlimit="10"/>
<path d="M63.085 341.785C81.1956 341.785 95.8699 327.111 95.8699 309" stroke="#025E73" stroke-opacity="0.1" stroke-miterlimit="10"/>
<path d="M145.053 341.785C117.887 341.785 95.8699 363.802 95.8699 390.968" stroke="#025E73" stroke-opacity="0.1" stroke-miterlimit="10"/>
<path d="M63.085 358.183C90.2509 358.183 112.268 336.166 112.268 309" stroke="#025E73" stroke-opacity="0.1" stroke-miterlimit="10"/>
<path d="M145.053 325.387C108.832 325.387 79.4719 354.747 79.4719 390.968" stroke="#025E73" stroke-opacity="0.1" stroke-miterlimit="10"/>
<path d="M63.085 374.57C69.9688 374.57 76.8079 373.484 83.3447 371.357" stroke="#025E73" stroke-opacity="0.1" stroke-miterlimit="10"/>
<path d="M125.454 329.26C127.58 322.712 128.666 315.873 128.666 309" stroke="#025E73" stroke-opacity="0.1" stroke-miterlimit="10"/>
<path d="M104.075 284.408C113.131 284.408 120.473 277.067 120.473 268.01C120.473 258.954 113.131 251.612 104.075 251.612C95.0184 251.612 87.6768 258.954 87.6768 268.01C87.6768 277.067 95.0184 284.408 104.075 284.408Z" stroke="#025E73" stroke-opacity="0.1" stroke-miterlimit="10"/>
<path d="M79.483 309C79.483 299.945 72.1403 292.602 63.085 292.602" stroke="#025E73" stroke-opacity="0.1" stroke-miterlimit="10"/>
<path d="M95.8699 309C95.8699 290.89 81.1956 276.215 63.085 276.215" stroke="#025E73" stroke-opacity="0.1" stroke-miterlimit="10"/>
<path d="M145.053 292.602C135.998 292.602 128.655 299.945 128.655 309" stroke="#025E73" stroke-opacity="0.1" stroke-miterlimit="10"/>
<path d="M145.053 276.204C126.943 276.204 112.268 290.878 112.268 308.989" stroke="#025E73" stroke-opacity="0.1" stroke-miterlimit="10"/>
<path d="M128.667 227.032C128.667 236.088 136.009 243.43 145.065 243.43" stroke="#025E73" stroke-opacity="0.1" stroke-miterlimit="10"/>
<path d="M112.268 227.032C112.268 245.143 126.943 259.817 145.053 259.817" stroke="#025E73" stroke-opacity="0.1" stroke-miterlimit="10"/>
<path d="M63.085 243.419C72.1403 243.419 79.483 236.076 79.483 227.021" stroke="#025E73" stroke-opacity="0.1" stroke-miterlimit="10"/>
<path d="M63.085 259.817C81.1956 259.817 95.8699 245.143 95.8699 227.032" stroke="#025E73" stroke-opacity="0.1" stroke-miterlimit="10"/>
<path d="M145.053 210.634C135.998 210.634 128.655 217.977 128.655 227.032" stroke="#025E73" stroke-opacity="0.1" stroke-miterlimit="10"/>
<path d="M63.085 161.451C72.1403 161.451 79.483 154.108 79.483 145.053" stroke="#025E73" stroke-opacity="0.1" stroke-miterlimit="10"/>
<path d="M145.053 194.236C126.943 194.236 112.268 208.91 112.268 227.021" stroke="#025E73" stroke-opacity="0.1" stroke-miterlimit="10"/>
<path d="M63.085 177.849C81.1956 177.849 95.8699 163.175 95.8699 145.064" stroke="#025E73" stroke-opacity="0.1" stroke-miterlimit="10"/>
<path d="M145.053 177.849C117.887 177.849 95.8699 199.866 95.8699 227.032" stroke="#025E73" stroke-opacity="0.1" stroke-miterlimit="10"/>
<path d="M63.085 194.236C90.2509 194.236 112.268 172.219 112.268 145.053" stroke="#025E73" stroke-opacity="0.1" stroke-miterlimit="10"/>
<path d="M145.053 161.451C108.832 161.451 79.4719 190.811 79.4719 227.032" stroke="#025E73" stroke-opacity="0.1" stroke-miterlimit="10"/>
<path d="M63.085 210.634C69.9688 210.634 76.8079 209.548 83.3447 207.421" stroke="#025E73" stroke-opacity="0.1" stroke-miterlimit="10"/>
<path d="M125.454 165.324C127.58 158.776 128.666 151.937 128.666 145.064" stroke="#025E73" stroke-opacity="0.1" stroke-miterlimit="10"/>
<path d="M79.483 145.053C79.483 135.998 72.1403 128.655 63.085 128.655" stroke="#025E73" stroke-opacity="0.1" stroke-miterlimit="10"/>
<path d="M128.667 63.085C128.667 72.1403 136.009 79.483 145.065 79.483" stroke="#025E73" stroke-opacity="0.1" stroke-miterlimit="10"/>
<path d="M95.8699 145.053C95.8699 126.942 81.1956 112.268 63.085 112.268" stroke="#025E73" stroke-opacity="0.1" stroke-miterlimit="10"/>
<path d="M112.268 63.085C112.268 81.1956 126.943 95.8699 145.053 95.8699" stroke="#025E73" stroke-opacity="0.1" stroke-miterlimit="10"/>
<path d="M112.268 145.053C112.268 117.887 90.2509 95.8699 63.085 95.8699" stroke="#025E73" stroke-opacity="0.1" stroke-miterlimit="10"/>
<path d="M95.8699 63.085C95.8699 90.2509 117.887 112.268 145.053 112.268" stroke="#025E73" stroke-opacity="0.1" stroke-miterlimit="10"/>
<path d="M128.666 145.053C128.666 108.832 99.3062 79.4719 63.085 79.4719" stroke="#025E73" stroke-opacity="0.1" stroke-miterlimit="10"/>
<path d="M79.4834 63.085C79.4834 69.9688 80.5691 76.8079 82.6958 83.3447" stroke="#025E73" stroke-opacity="0.1" stroke-miterlimit="10"/>
<path d="M124.793 125.454C131.341 127.58 138.181 128.666 145.053 128.666" stroke="#025E73" stroke-opacity="0.1" stroke-miterlimit="10"/>
<path d="M79.483 63.0851C79.483 54.0298 72.1403 46.687 63.085 46.687" stroke="#025E73" stroke-opacity="0.1" stroke-miterlimit="10"/>
<path d="M95.8699 63.085C95.8699 44.9744 81.1956 30.3 63.085 30.3" stroke="#025E73" stroke-opacity="0.1" stroke-miterlimit="10"/>
<path d="M112.268 -18.8828C112.268 -0.772185 126.943 13.9021 145.053 13.9021" stroke="#025E73" stroke-opacity="0.1" stroke-miterlimit="10"/>
<path d="M112.268 63.0849C112.268 35.9189 90.2509 13.9019 63.085 13.9019" stroke="#025E73" stroke-opacity="0.1" stroke-miterlimit="10"/>
<path d="M95.8699 -18.8828C95.8699 8.28313 117.887 30.3002 145.053 30.3002" stroke="#025E73" stroke-opacity="0.1" stroke-miterlimit="10"/>
<path d="M128.666 63.085C128.666 26.8637 99.3062 -2.49609 63.085 -2.49609" stroke="#025E73" stroke-opacity="0.1" stroke-miterlimit="10"/>
<path d="M79.4834 -18.8828C79.4834 -11.999 80.5691 -5.15992 82.6958 1.37692" stroke="#025E73" stroke-opacity="0.1" stroke-miterlimit="10"/>
<path d="M124.793 43.4856C131.341 45.6123 138.181 46.698 145.053 46.698" stroke="#025E73" stroke-opacity="0.1" stroke-miterlimit="10"/>
<path d="M145.053 571.302C154.108 571.302 161.451 563.959 161.451 554.904" stroke="#025E73" stroke-opacity="0.1" stroke-miterlimit="10"/>
<path d="M145.053 587.7C163.163 587.7 177.838 573.026 177.838 554.915" stroke="#025E73" stroke-opacity="0.1" stroke-miterlimit="10"/>
<path d="M227.032 604.087C208.921 604.087 194.247 618.761 194.247 636.872" stroke="#025E73" stroke-opacity="0.1" stroke-miterlimit="10"/>
<path d="M145.053 604.087C172.219 604.087 194.236 582.07 194.236 554.904" stroke="#025E73" stroke-opacity="0.1" stroke-miterlimit="10"/>
<path d="M227.032 587.7C199.866 587.7 177.849 609.717 177.849 636.883" stroke="#025E73" stroke-opacity="0.1" stroke-miterlimit="10"/>
<path d="M145.053 620.485C181.274 620.485 210.634 591.125 210.634 554.904" stroke="#025E73" stroke-opacity="0.1" stroke-miterlimit="10"/>
<path d="M227.032 571.302C220.148 571.302 213.309 572.387 206.772 574.514" stroke="#025E73" stroke-opacity="0.1" stroke-miterlimit="10"/>
<path d="M164.663 616.612C162.537 623.16 161.451 629.999 161.451 636.872" stroke="#025E73" stroke-opacity="0.1" stroke-miterlimit="10"/>
<path d="M161.451 554.904C161.451 545.849 154.108 538.506 145.053 538.506" stroke="#025E73" stroke-opacity="0.1" stroke-miterlimit="10"/>
<path d="M210.634 472.936C210.634 481.991 217.977 489.334 227.032 489.334" stroke="#025E73" stroke-opacity="0.1" stroke-miterlimit="10"/>
<path d="M177.849 554.904C177.849 536.793 163.175 522.119 145.064 522.119" stroke="#025E73" stroke-opacity="0.1" stroke-miterlimit="10"/>
<path d="M194.236 472.936C194.236 491.047 208.91 505.721 227.021 505.721" stroke="#025E73" stroke-opacity="0.1" stroke-miterlimit="10"/>
<path d="M194.236 554.904C194.236 527.738 172.219 505.721 145.053 505.721" stroke="#025E73" stroke-opacity="0.1" stroke-miterlimit="10"/>
<path d="M177.849 472.936C177.849 500.102 199.866 522.119 227.032 522.119" stroke="#025E73" stroke-opacity="0.1" stroke-miterlimit="10"/>
<path d="M210.634 554.904C210.634 518.683 181.274 489.323 145.053 489.323" stroke="#025E73" stroke-opacity="0.1" stroke-miterlimit="10"/>
<path d="M161.451 472.936C161.451 479.82 162.537 486.659 164.663 493.196" stroke="#025E73" stroke-opacity="0.1" stroke-miterlimit="10"/>
<path d="M206.761 535.305C213.309 537.431 220.148 538.517 227.021 538.517" stroke="#025E73" stroke-opacity="0.1" stroke-miterlimit="10"/>
<path d="M210.634 390.968C210.634 400.023 217.977 407.366 227.032 407.366" stroke="#025E73" stroke-opacity="0.1" stroke-miterlimit="10"/>
<path d="M161.451 472.936C161.451 463.881 154.108 456.538 145.053 456.538" stroke="#025E73" stroke-opacity="0.1" stroke-miterlimit="10"/>
<path d="M194.236 390.968C194.236 409.078 208.91 423.753 227.021 423.753" stroke="#025E73" stroke-opacity="0.1" stroke-miterlimit="10"/>
<path d="M177.849 472.936C177.849 454.825 163.175 440.151 145.064 440.151" stroke="#025E73" stroke-opacity="0.1" stroke-miterlimit="10"/>
<path d="M177.849 390.968C177.849 418.134 199.866 440.151 227.032 440.151" stroke="#025E73" stroke-opacity="0.1" stroke-miterlimit="10"/>
<path d="M194.236 472.936C194.236 445.77 172.219 423.753 145.053 423.753" stroke="#025E73" stroke-opacity="0.1" stroke-miterlimit="10"/>
<path d="M161.451 390.968C161.451 427.189 190.811 456.549 227.032 456.549" stroke="#025E73" stroke-opacity="0.1" stroke-miterlimit="10"/>
<path d="M210.634 472.936C210.634 466.052 209.549 459.213 207.422 452.676" stroke="#025E73" stroke-opacity="0.1" stroke-miterlimit="10"/>
<path d="M165.324 410.567C158.776 408.44 151.937 407.354 145.064 407.354" stroke="#025E73" stroke-opacity="0.1" stroke-miterlimit="10"/>
<path d="M227.032 374.57C217.977 374.57 210.634 381.913 210.634 390.968" stroke="#025E73" stroke-opacity="0.1" stroke-miterlimit="10"/>
<path d="M145.053 325.387C154.108 325.387 161.451 318.044 161.451 308.989" stroke="#025E73" stroke-opacity="0.1" stroke-miterlimit="10"/>
<path d="M227.032 358.183C208.921 358.183 194.247 372.857 194.247 390.968" stroke="#025E73" stroke-opacity="0.1" stroke-miterlimit="10"/>
<path d="M145.053 341.785C163.163 341.785 177.838 327.111 177.838 309" stroke="#025E73" stroke-opacity="0.1" stroke-miterlimit="10"/>
<path d="M227.032 341.785C199.866 341.785 177.849 363.802 177.849 390.968" stroke="#025E73" stroke-opacity="0.1" stroke-miterlimit="10"/>
<path d="M145.053 358.183C172.219 358.183 194.236 336.166 194.236 309" stroke="#025E73" stroke-opacity="0.1" stroke-miterlimit="10"/>
<path d="M227.032 325.387C190.811 325.387 161.451 354.747 161.451 390.968" stroke="#025E73" stroke-opacity="0.1" stroke-miterlimit="10"/>
<path d="M145.053 374.57C151.937 374.57 158.776 373.484 165.312 371.357" stroke="#025E73" stroke-opacity="0.1" stroke-miterlimit="10"/>
<path d="M207.422 329.26C209.549 322.712 210.634 315.873 210.634 309" stroke="#025E73" stroke-opacity="0.1" stroke-miterlimit="10"/>
<path d="M227.032 292.602C217.977 292.602 210.634 299.945 210.634 309" stroke="#025E73" stroke-opacity="0.1" stroke-miterlimit="10"/>
<path d="M145.053 243.419C154.108 243.419 161.451 236.076 161.451 227.021" stroke="#025E73" stroke-opacity="0.1" stroke-miterlimit="10"/>
<path d="M227.032 276.204C208.921 276.204 194.247 290.878 194.247 308.989" stroke="#025E73" stroke-opacity="0.1" stroke-miterlimit="10"/>
<path d="M145.053 259.817C163.163 259.817 177.838 245.143 177.838 227.032" stroke="#025E73" stroke-opacity="0.1" stroke-miterlimit="10"/>
<path d="M227.032 259.817C199.866 259.817 177.849 281.834 177.849 309" stroke="#025E73" stroke-opacity="0.1" stroke-miterlimit="10"/>
<path d="M145.053 276.204C172.219 276.204 194.236 254.186 194.236 227.021" stroke="#025E73" stroke-opacity="0.1" stroke-miterlimit="10"/>
<path d="M227.032 243.419C190.811 243.419 161.451 272.779 161.451 309" stroke="#025E73" stroke-opacity="0.1" stroke-miterlimit="10"/>
<path d="M145.053 292.602C151.937 292.602 158.776 291.516 165.312 289.39" stroke="#025E73" stroke-opacity="0.1" stroke-miterlimit="10"/>
<path d="M207.422 247.292C209.549 240.744 210.634 233.905 210.634 227.032" stroke="#025E73" stroke-opacity="0.1" stroke-miterlimit="10"/>
<path d="M210.634 145.053C210.634 154.108 217.977 161.451 227.032 161.451" stroke="#025E73" stroke-opacity="0.1" stroke-miterlimit="10"/>
<path d="M161.451 227.032C161.451 217.977 154.108 210.634 145.053 210.634" stroke="#025E73" stroke-opacity="0.1" stroke-miterlimit="10"/>
<path d="M194.236 145.053C194.236 163.163 208.91 177.838 227.021 177.838" stroke="#025E73" stroke-opacity="0.1" stroke-miterlimit="10"/>
<path d="M177.849 227.032C177.849 208.921 163.175 194.247 145.064 194.247" stroke="#025E73" stroke-opacity="0.1" stroke-miterlimit="10"/>
<path d="M177.849 145.053C177.849 172.219 199.866 194.236 227.032 194.236" stroke="#025E73" stroke-opacity="0.1" stroke-miterlimit="10"/>
<path d="M194.236 227.032C194.236 199.866 172.219 177.849 145.053 177.849" stroke="#025E73" stroke-opacity="0.1" stroke-miterlimit="10"/>
<path d="M161.451 145.053C161.451 181.274 190.811 210.634 227.032 210.634" stroke="#025E73" stroke-opacity="0.1" stroke-miterlimit="10"/>
<path d="M210.634 227.032C210.634 220.148 209.549 213.309 207.422 206.772" stroke="#025E73" stroke-opacity="0.1" stroke-miterlimit="10"/>
<path d="M165.324 164.664C158.776 162.537 151.937 161.451 145.064 161.451" stroke="#025E73" stroke-opacity="0.1" stroke-miterlimit="10"/>
<path d="M145.053 79.483C154.108 79.483 161.451 72.1403 161.451 63.085" stroke="#025E73" stroke-opacity="0.1" stroke-miterlimit="10"/>
<path d="M227.032 128.666C217.977 128.666 210.634 136.009 210.634 145.064" stroke="#025E73" stroke-opacity="0.1" stroke-miterlimit="10"/>
<path d="M145.053 95.8699C163.163 95.8699 177.838 81.1956 177.838 63.085" stroke="#025E73" stroke-opacity="0.1" stroke-miterlimit="10"/>
<path d="M227.032 112.268C208.921 112.268 194.247 126.942 194.247 145.053" stroke="#025E73" stroke-opacity="0.1" stroke-miterlimit="10"/>
<path d="M145.053 112.268C172.219 112.268 194.236 90.2509 194.236 63.085" stroke="#025E73" stroke-opacity="0.1" stroke-miterlimit="10"/>
<path d="M227.032 95.8699C199.866 95.8699 177.849 117.887 177.849 145.053" stroke="#025E73" stroke-opacity="0.1" stroke-miterlimit="10"/>
<path d="M145.053 128.666C181.274 128.666 210.634 99.3062 210.634 63.085" stroke="#025E73" stroke-opacity="0.1" stroke-miterlimit="10"/>
<path d="M227.032 79.4834C220.148 79.4834 213.309 80.5691 206.772 82.6958" stroke="#025E73" stroke-opacity="0.1" stroke-miterlimit="10"/>
<path d="M164.663 124.793C162.537 131.341 161.451 138.18 161.451 145.053" stroke="#025E73" stroke-opacity="0.1" stroke-miterlimit="10"/>
<path d="M186.043 38.5047C195.099 38.5047 202.441 31.163 202.441 22.1066C202.441 13.0502 195.099 5.7085 186.043 5.7085C176.986 5.7085 169.645 13.0502 169.645 22.1066C169.645 31.163 176.986 38.5047 186.043 38.5047Z" stroke="#025E73" stroke-opacity="0.1" stroke-miterlimit="10"/>
<path d="M161.451 63.0851C161.451 54.0298 154.108 46.687 145.053 46.687" stroke="#025E73" stroke-opacity="0.1" stroke-miterlimit="10"/>
<path d="M177.849 63.085C177.849 44.9744 163.175 30.3 145.064 30.3" stroke="#025E73" stroke-opacity="0.1" stroke-miterlimit="10"/>
<path d="M227.032 46.687C217.977 46.687 210.634 54.0298 210.634 63.0851" stroke="#025E73" stroke-opacity="0.1" stroke-miterlimit="10"/>
<path d="M227.032 30.3C208.921 30.3 194.247 44.9744 194.247 63.085" stroke="#025E73" stroke-opacity="0.1" stroke-miterlimit="10"/>
<path d="M194.236 -18.8828C194.236 -0.772185 208.91 13.9021 227.021 13.9021" stroke="#025E73" stroke-opacity="0.1" stroke-miterlimit="10"/>
<path d="M145.053 13.9021C163.163 13.9021 177.838 -0.772185 177.838 -18.8828" stroke="#025E73" stroke-opacity="0.1" stroke-miterlimit="10"/>
<path d="M292.602 554.904C292.602 563.959 299.945 571.302 309 571.302" stroke="#025E73" stroke-opacity="0.1" stroke-miterlimit="10"/>
<path d="M276.204 554.904C276.204 573.014 290.878 587.689 308.989 587.689" stroke="#025E73" stroke-opacity="0.1" stroke-miterlimit="10"/>
<path d="M259.817 636.883C259.817 618.772 245.143 604.098 227.032 604.098" stroke="#025E73" stroke-opacity="0.1" stroke-miterlimit="10"/>
<path d="M259.817 554.904C259.817 582.07 281.834 604.087 309 604.087" stroke="#025E73" stroke-opacity="0.1" stroke-miterlimit="10"/>
<path d="M276.204 636.883C276.204 609.717 254.187 587.7 227.021 587.7" stroke="#025E73" stroke-opacity="0.1" stroke-miterlimit="10"/>
<path d="M243.419 554.904C243.419 591.125 272.779 620.485 309 620.485" stroke="#025E73" stroke-opacity="0.1" stroke-miterlimit="10"/>
<path d="M292.602 636.883C292.602 629.999 291.516 623.16 289.389 616.624" stroke="#025E73" stroke-opacity="0.1" stroke-miterlimit="10"/>
<path d="M247.292 574.514C240.744 572.387 233.905 571.302 227.032 571.302" stroke="#025E73" stroke-opacity="0.1" stroke-miterlimit="10"/>
<path d="M268.011 530.324C277.067 530.324 284.409 522.982 284.409 513.925C284.409 504.869 277.067 497.527 268.011 497.527C258.954 497.527 251.613 504.869 251.613 513.925C251.613 522.982 258.954 530.324 268.011 530.324Z" stroke="#025E73" stroke-opacity="0.1" stroke-miterlimit="10"/>
<path d="M243.419 554.904C243.419 545.849 236.076 538.506 227.021 538.506" stroke="#025E73" stroke-opacity="0.1" stroke-miterlimit="10"/>
<path d="M259.817 554.904C259.817 536.793 245.143 522.119 227.032 522.119" stroke="#025E73" stroke-opacity="0.1" stroke-miterlimit="10"/>
<path d="M309 538.517C299.945 538.517 292.602 545.859 292.602 554.915" stroke="#025E73" stroke-opacity="0.1" stroke-miterlimit="10"/>
<path d="M309 522.119C290.89 522.119 276.215 536.793 276.215 554.904" stroke="#025E73" stroke-opacity="0.1" stroke-miterlimit="10"/>
<path d="M292.602 472.936C292.602 481.991 299.945 489.334 309 489.334" stroke="#025E73" stroke-opacity="0.1" stroke-miterlimit="10"/>
<path d="M276.204 472.936C276.204 491.047 290.878 505.721 308.989 505.721" stroke="#025E73" stroke-opacity="0.1" stroke-miterlimit="10"/>
<path d="M227.032 489.334C236.088 489.334 243.43 481.991 243.43 472.936" stroke="#025E73" stroke-opacity="0.1" stroke-miterlimit="10"/>
<path d="M227.032 505.732C245.143 505.732 259.817 491.058 259.817 472.947" stroke="#025E73" stroke-opacity="0.1" stroke-miterlimit="10"/>
<path d="M292.602 390.968C292.602 400.023 299.945 407.366 309 407.366" stroke="#025E73" stroke-opacity="0.1" stroke-miterlimit="10"/>
<path d="M243.419 472.936C243.419 463.881 236.076 456.538 227.021 456.538" stroke="#025E73" stroke-opacity="0.1" stroke-miterlimit="10"/>
<path d="M276.204 390.968C276.204 409.078 290.878 423.753 308.989 423.753" stroke="#025E73" stroke-opacity="0.1" stroke-miterlimit="10"/>
<path d="M259.817 472.936C259.817 454.825 245.143 440.151 227.032 440.151" stroke="#025E73" stroke-opacity="0.1" stroke-miterlimit="10"/>
<path d="M259.817 390.968C259.817 418.134 281.834 440.151 309 440.151" stroke="#025E73" stroke-opacity="0.1" stroke-miterlimit="10"/>
<path d="M276.204 472.936C276.204 445.77 254.187 423.753 227.021 423.753" stroke="#025E73" stroke-opacity="0.1" stroke-miterlimit="10"/>
<path d="M243.419 390.968C243.419 427.189 272.779 456.549 309 456.549" stroke="#025E73" stroke-opacity="0.1" stroke-miterlimit="10"/>
<path d="M292.602 472.936C292.602 466.052 291.516 459.213 289.389 452.676" stroke="#025E73" stroke-opacity="0.1" stroke-miterlimit="10"/>
<path d="M247.292 410.567C240.744 408.44 233.905 407.354 227.032 407.354" stroke="#025E73" stroke-opacity="0.1" stroke-miterlimit="10"/>
<path d="M227.032 325.387C236.088 325.387 243.43 318.044 243.43 308.989" stroke="#025E73" stroke-opacity="0.1" stroke-miterlimit="10"/>
<path d="M309 374.57C299.945 374.57 292.602 381.913 292.602 390.968" stroke="#025E73" stroke-opacity="0.1" stroke-miterlimit="10"/>
<path d="M227.032 341.785C245.143 341.785 259.817 327.111 259.817 309" stroke="#025E73" stroke-opacity="0.1" stroke-miterlimit="10"/>
<path d="M309 358.183C290.89 358.183 276.215 372.857 276.215 390.968" stroke="#025E73" stroke-opacity="0.1" stroke-miterlimit="10"/>
<path d="M227.032 358.183C254.198 358.183 276.215 336.166 276.215 309" stroke="#025E73" stroke-opacity="0.1" stroke-miterlimit="10"/>
<path d="M309 341.785C281.834 341.785 259.817 363.802 259.817 390.968" stroke="#025E73" stroke-opacity="0.1" stroke-miterlimit="10"/>
<path d="M227.032 374.57C263.253 374.57 292.613 345.21 292.613 308.989" stroke="#025E73" stroke-opacity="0.1" stroke-miterlimit="10"/>
<path d="M309 325.387C302.116 325.387 295.277 326.472 288.74 328.599" stroke="#025E73" stroke-opacity="0.1" stroke-miterlimit="10"/>
<path d="M246.631 370.708C244.505 377.256 243.419 384.095 243.419 390.968" stroke="#025E73" stroke-opacity="0.1" stroke-miterlimit="10"/>
<path d="M227.032 243.419C236.088 243.419 243.43 236.076 243.43 227.021" stroke="#025E73" stroke-opacity="0.1" stroke-miterlimit="10"/>
<path d="M309 292.602C299.945 292.602 292.602 299.945 292.602 309" stroke="#025E73" stroke-opacity="0.1" stroke-miterlimit="10"/>
<path d="M227.032 259.817C245.143 259.817 259.817 245.143 259.817 227.032" stroke="#025E73" stroke-opacity="0.1" stroke-miterlimit="10"/>
<path d="M309 276.204C290.89 276.204 276.215 290.878 276.215 308.989" stroke="#025E73" stroke-opacity="0.1" stroke-miterlimit="10"/>
<path d="M227.032 276.204C254.198 276.204 276.215 254.186 276.215 227.021" stroke="#025E73" stroke-opacity="0.1" stroke-miterlimit="10"/>
<path d="M309 259.817C281.834 259.817 259.817 281.834 259.817 309" stroke="#025E73" stroke-opacity="0.1" stroke-miterlimit="10"/>
<path d="M227.032 292.602C263.253 292.602 292.613 263.242 292.613 227.021" stroke="#025E73" stroke-opacity="0.1" stroke-miterlimit="10"/>
<path d="M309 243.419C302.116 243.419 295.277 244.505 288.74 246.631" stroke="#025E73" stroke-opacity="0.1" stroke-miterlimit="10"/>
<path d="M246.631 288.729C244.505 295.277 243.419 302.116 243.419 308.989" stroke="#025E73" stroke-opacity="0.1" stroke-miterlimit="10"/>
<path d="M243.419 227.032C243.419 217.977 236.076 210.634 227.021 210.634" stroke="#025E73" stroke-opacity="0.1" stroke-miterlimit="10"/>
<path d="M292.602 145.053C292.602 154.108 299.945 161.451 309 161.451" stroke="#025E73" stroke-opacity="0.1" stroke-miterlimit="10"/>
<path d="M259.817 227.032C259.817 208.921 245.143 194.247 227.032 194.247" stroke="#025E73" stroke-opacity="0.1" stroke-miterlimit="10"/>
<path d="M276.204 145.053C276.204 163.163 290.878 177.838 308.989 177.838" stroke="#025E73" stroke-opacity="0.1" stroke-miterlimit="10"/>
<path d="M276.204 227.032C276.204 199.866 254.187 177.849 227.021 177.849" stroke="#025E73" stroke-opacity="0.1" stroke-miterlimit="10"/>
<path d="M259.817 145.053C259.817 172.219 281.834 194.236 309 194.236" stroke="#025E73" stroke-opacity="0.1" stroke-miterlimit="10"/>
<path d="M292.602 227.032C292.602 190.811 263.242 161.451 227.021 161.451" stroke="#025E73" stroke-opacity="0.1" stroke-miterlimit="10"/>
<path d="M243.419 145.053C243.419 151.937 244.505 158.776 246.631 165.312" stroke="#025E73" stroke-opacity="0.1" stroke-miterlimit="10"/>
<path d="M288.729 207.421C295.277 209.548 302.116 210.634 308.989 210.634" stroke="#025E73" stroke-opacity="0.1" stroke-miterlimit="10"/>
<path d="M268.011 120.473C277.067 120.473 284.409 113.131 284.409 104.075C284.409 95.0182 277.067 87.6765 268.011 87.6765C258.954 87.6765 251.613 95.0182 251.613 104.075C251.613 113.131 258.954 120.473 268.011 120.473Z" stroke="#025E73" stroke-opacity="0.1" stroke-miterlimit="10"/>
<path d="M243.419 145.053C243.419 135.998 236.076 128.655 227.021 128.655" stroke="#025E73" stroke-opacity="0.1" stroke-miterlimit="10"/>
<path d="M259.817 145.053C259.817 126.942 245.143 112.268 227.032 112.268" stroke="#025E73" stroke-opacity="0.1" stroke-miterlimit="10"/>
<path d="M309 128.666C299.945 128.666 292.602 136.009 292.602 145.064" stroke="#025E73" stroke-opacity="0.1" stroke-miterlimit="10"/>
<path d="M309 112.268C290.89 112.268 276.215 126.942 276.215 145.053" stroke="#025E73" stroke-opacity="0.1" stroke-miterlimit="10"/>
<path d="M292.602 63.085C292.602 72.1403 299.945 79.483 309 79.483" stroke="#025E73" stroke-opacity="0.1" stroke-miterlimit="10"/>
<path d="M276.204 63.085C276.204 81.1956 290.878 95.8699 308.989 95.8699" stroke="#025E73" stroke-opacity="0.1" stroke-miterlimit="10"/>
<path d="M227.032 79.483C236.088 79.483 243.43 72.1403 243.43 63.085" stroke="#025E73" stroke-opacity="0.1" stroke-miterlimit="10"/>
<path d="M227.032 95.8699C245.143 95.8699 259.817 81.1956 259.817 63.085" stroke="#025E73" stroke-opacity="0.1" stroke-miterlimit="10"/>
<path d="M227.032 30.2997C231.554 30.2997 235.226 26.6283 235.226 22.1063C235.226 17.5842 231.554 13.9128 227.032 13.9128" stroke="#025E73" stroke-opacity="0.1" stroke-miterlimit="10"/>
<path d="M227.032 46.6869C240.61 46.6869 251.624 35.6728 251.624 22.0954C251.624 8.51804 240.61 -2.49609 227.032 -2.49609" stroke="#025E73" stroke-opacity="0.1" stroke-miterlimit="10"/>
<path d="M276.204 63.0848C276.204 58.5627 272.532 54.8914 268.01 54.8914C263.488 54.8914 259.817 58.5627 259.817 63.0848" stroke="#025E73" stroke-opacity="0.1" stroke-miterlimit="10"/>
<path d="M292.602 63.0849C292.602 49.5075 281.588 38.4934 268.01 38.4934C254.433 38.4934 243.419 49.5075 243.419 63.0849" stroke="#025E73" stroke-opacity="0.1" stroke-miterlimit="10"/>
<path d="M309 13.9019C304.478 13.9019 300.807 17.5732 300.807 22.0953C300.807 26.6174 304.478 30.2887 309 30.2887" stroke="#025E73" stroke-opacity="0.1" stroke-miterlimit="10"/>
<path d="M309 -2.48486C295.423 -2.48486 284.409 8.52927 284.409 22.1066C284.409 35.684 295.423 46.6981 309 46.6981" stroke="#025E73" stroke-opacity="0.1" stroke-miterlimit="10"/>
<path d="M243.419 -18.8828C243.419 -5.30544 254.433 5.70869 268.01 5.70869C281.588 5.70869 292.602 -5.30544 292.602 -18.8828" stroke="#025E73" stroke-opacity="0.1" stroke-miterlimit="10"/>
<path d="M309 571.302C318.055 571.302 325.398 563.959 325.398 554.904" stroke="#025E73" stroke-opacity="0.1" stroke-miterlimit="10"/>
<path d="M309 587.7C327.111 587.7 341.785 573.026 341.785 554.915" stroke="#025E73" stroke-opacity="0.1" stroke-miterlimit="10"/>
<path d="M390.969 604.087C372.858 604.087 358.184 618.761 358.184 636.872" stroke="#025E73" stroke-opacity="0.1" stroke-miterlimit="10"/>
<path d="M309 604.087C336.166 604.087 358.183 582.07 358.183 554.904" stroke="#025E73" stroke-opacity="0.1" stroke-miterlimit="10"/>
<path d="M390.968 587.7C363.802 587.7 341.785 609.717 341.785 636.883" stroke="#025E73" stroke-opacity="0.1" stroke-miterlimit="10"/>
<path d="M309 620.485C345.221 620.485 374.581 591.125 374.581 554.904" stroke="#025E73" stroke-opacity="0.1" stroke-miterlimit="10"/>
<path d="M390.968 571.302C384.084 571.302 377.245 572.387 370.708 574.514" stroke="#025E73" stroke-opacity="0.1" stroke-miterlimit="10"/>
<path d="M328.599 616.612C326.472 623.16 325.387 629.999 325.387 636.872" stroke="#025E73" stroke-opacity="0.1" stroke-miterlimit="10"/>
<path d="M390.968 538.517C381.913 538.517 374.57 545.859 374.57 554.915" stroke="#025E73" stroke-opacity="0.1" stroke-miterlimit="10"/>
<path d="M309 489.334C318.055 489.334 325.398 481.991 325.398 472.936" stroke="#025E73" stroke-opacity="0.1" stroke-miterlimit="10"/>
<path d="M390.969 522.119C372.858 522.119 358.184 536.793 358.184 554.904" stroke="#025E73" stroke-opacity="0.1" stroke-miterlimit="10"/>
<path d="M309 505.732C327.111 505.732 341.785 491.058 341.785 472.947" stroke="#025E73" stroke-opacity="0.1" stroke-miterlimit="10"/>
<path d="M390.968 505.732C363.802 505.732 341.785 527.749 341.785 554.915" stroke="#025E73" stroke-opacity="0.1" stroke-miterlimit="10"/>
<path d="M309 522.119C336.166 522.119 358.183 500.102 358.183 472.936" stroke="#025E73" stroke-opacity="0.1" stroke-miterlimit="10"/>
<path d="M390.968 489.334C354.747 489.334 325.387 518.694 325.387 554.915" stroke="#025E73" stroke-opacity="0.1" stroke-miterlimit="10"/>
<path d="M309 538.517C315.884 538.517 322.723 537.431 329.26 535.305" stroke="#025E73" stroke-opacity="0.1" stroke-miterlimit="10"/>
<path d="M371.369 493.207C373.495 486.659 374.581 479.82 374.581 472.947" stroke="#025E73" stroke-opacity="0.1" stroke-miterlimit="10"/>
<path d="M349.979 448.356C359.035 448.356 366.377 441.014 366.377 431.958C366.377 422.901 359.035 415.56 349.979 415.56C340.922 415.56 333.581 422.901 333.581 431.958C333.581 441.014 340.922 448.356 349.979 448.356Z" stroke="#025E73" stroke-opacity="0.1" stroke-miterlimit="10"/>
<path d="M325.387 472.936C325.387 463.881 318.044 456.538 308.989 456.538" stroke="#025E73" stroke-opacity="0.1" stroke-miterlimit="10"/>
<path d="M341.785 472.936C341.785 454.825 327.111 440.151 309 440.151" stroke="#025E73" stroke-opacity="0.1" stroke-miterlimit="10"/>
<path d="M390.968 456.549C381.913 456.549 374.57 463.892 374.57 472.947" stroke="#025E73" stroke-opacity="0.1" stroke-miterlimit="10"/>
<path d="M390.969 440.151C372.858 440.151 358.184 454.825 358.184 472.936" stroke="#025E73" stroke-opacity="0.1" stroke-miterlimit="10"/>
<path d="M374.57 390.968C374.57 400.023 381.913 407.366 390.968 407.366" stroke="#025E73" stroke-opacity="0.1" stroke-miterlimit="10"/>
<path d="M358.184 390.968C358.184 409.078 372.858 423.753 390.969 423.753" stroke="#025E73" stroke-opacity="0.1" stroke-miterlimit="10"/>
<path d="M309 407.366C318.055 407.366 325.398 400.023 325.398 390.968" stroke="#025E73" stroke-opacity="0.1" stroke-miterlimit="10"/>
<path d="M309 423.753C327.111 423.753 341.785 409.078 341.785 390.968" stroke="#025E73" stroke-opacity="0.1" stroke-miterlimit="10"/>
<path d="M349.979 366.376C359.035 366.376 366.377 359.035 366.377 349.978C366.377 340.922 359.035 333.58 349.979 333.58C340.922 333.58 333.581 340.922 333.581 349.978C333.581 359.035 340.922 366.376 349.979 366.376Z" stroke="#025E73" stroke-opacity="0.1" stroke-miterlimit="10"/>
<path d="M325.387 390.968C325.387 381.913 318.044 374.57 308.989 374.57" stroke="#025E73" stroke-opacity="0.1" stroke-miterlimit="10"/>
<path d="M341.785 390.968C341.785 372.857 327.111 358.183 309 358.183" stroke="#025E73" stroke-opacity="0.1" stroke-miterlimit="10"/>
<path d="M390.968 374.57C381.913 374.57 374.57 381.913 374.57 390.968" stroke="#025E73" stroke-opacity="0.1" stroke-miterlimit="10"/>
<path d="M390.969 358.183C372.858 358.183 358.184 372.857 358.184 390.968" stroke="#025E73" stroke-opacity="0.1" stroke-miterlimit="10"/>
<path d="M374.57 309C374.57 318.055 381.913 325.398 390.968 325.398" stroke="#025E73" stroke-opacity="0.1" stroke-miterlimit="10"/>
<path d="M358.184 309C358.184 327.111 372.858 341.785 390.969 341.785" stroke="#025E73" stroke-opacity="0.1" stroke-miterlimit="10"/>
<path d="M309 325.387C318.055 325.387 325.398 318.044 325.398 308.989" stroke="#025E73" stroke-opacity="0.1" stroke-miterlimit="10"/>
<path d="M309 341.785C327.111 341.785 341.785 327.111 341.785 309" stroke="#025E73" stroke-opacity="0.1" stroke-miterlimit="10"/>
<path d="M390.968 292.602C381.913 292.602 374.57 299.945 374.57 309" stroke="#025E73" stroke-opacity="0.1" stroke-miterlimit="10"/>
<path d="M309 243.419C318.055 243.419 325.398 236.076 325.398 227.021" stroke="#025E73" stroke-opacity="0.1" stroke-miterlimit="10"/>
<path d="M390.969 276.204C372.858 276.204 358.184 290.878 358.184 308.989" stroke="#025E73" stroke-opacity="0.1" stroke-miterlimit="10"/>
<path d="M309 259.817C327.111 259.817 341.785 245.143 341.785 227.032" stroke="#025E73" stroke-opacity="0.1" stroke-miterlimit="10"/>
<path d="M390.968 259.817C363.802 259.817 341.785 281.834 341.785 309" stroke="#025E73" stroke-opacity="0.1" stroke-miterlimit="10"/>
<path d="M309 276.204C336.166 276.204 358.183 254.186 358.183 227.021" stroke="#025E73" stroke-opacity="0.1" stroke-miterlimit="10"/>
<path d="M390.968 243.419C354.747 243.419 325.387 272.779 325.387 309" stroke="#025E73" stroke-opacity="0.1" stroke-miterlimit="10"/>
<path d="M309 292.602C315.884 292.602 322.723 291.516 329.26 289.39" stroke="#025E73" stroke-opacity="0.1" stroke-miterlimit="10"/>
<path d="M371.369 247.292C373.495 240.744 374.581 233.905 374.581 227.032" stroke="#025E73" stroke-opacity="0.1" stroke-miterlimit="10"/>
<path d="M390.968 210.634C381.913 210.634 374.57 217.977 374.57 227.032" stroke="#025E73" stroke-opacity="0.1" stroke-miterlimit="10"/>
<path d="M309 161.451C318.055 161.451 325.398 154.108 325.398 145.053" stroke="#025E73" stroke-opacity="0.1" stroke-miterlimit="10"/>
<path d="M390.969 194.236C372.858 194.236 358.184 208.91 358.184 227.021" stroke="#025E73" stroke-opacity="0.1" stroke-miterlimit="10"/>
<path d="M309 177.849C327.111 177.849 341.785 163.175 341.785 145.064" stroke="#025E73" stroke-opacity="0.1" stroke-miterlimit="10"/>
<path d="M390.968 177.849C363.802 177.849 341.785 199.866 341.785 227.032" stroke="#025E73" stroke-opacity="0.1" stroke-miterlimit="10"/>
<path d="M309 194.236C336.166 194.236 358.183 172.219 358.183 145.053" stroke="#025E73" stroke-opacity="0.1" stroke-miterlimit="10"/>
<path d="M390.968 161.451C354.747 161.451 325.387 190.811 325.387 227.032" stroke="#025E73" stroke-opacity="0.1" stroke-miterlimit="10"/>
<path d="M309 210.634C315.884 210.634 322.723 209.548 329.26 207.421" stroke="#025E73" stroke-opacity="0.1" stroke-miterlimit="10"/>
<path d="M371.369 165.324C373.495 158.776 374.581 151.937 374.581 145.064" stroke="#025E73" stroke-opacity="0.1" stroke-miterlimit="10"/>
<path d="M374.57 63.085C374.57 72.1403 381.913 79.483 390.968 79.483" stroke="#025E73" stroke-opacity="0.1" stroke-miterlimit="10"/>
<path d="M325.387 145.053C325.387 135.998 318.044 128.655 308.989 128.655" stroke="#025E73" stroke-opacity="0.1" stroke-miterlimit="10"/>
<path d="M358.184 63.085C358.184 81.1956 372.858 95.8699 390.969 95.8699" stroke="#025E73" stroke-opacity="0.1" stroke-miterlimit="10"/>
<path d="M341.785 145.053C341.785 126.942 327.111 112.268 309 112.268" stroke="#025E73" stroke-opacity="0.1" stroke-miterlimit="10"/>
<path d="M341.785 63.085C341.785 90.2509 363.802 112.268 390.968 112.268" stroke="#025E73" stroke-opacity="0.1" stroke-miterlimit="10"/>
<path d="M358.183 145.053C358.183 117.887 336.166 95.8699 309 95.8699" stroke="#025E73" stroke-opacity="0.1" stroke-miterlimit="10"/>
<path d="M325.387 63.085C325.387 99.3062 354.747 128.666 390.968 128.666" stroke="#025E73" stroke-opacity="0.1" stroke-miterlimit="10"/>
<path d="M374.57 145.053C374.57 138.169 373.485 131.33 371.358 124.793" stroke="#025E73" stroke-opacity="0.1" stroke-miterlimit="10"/>
<path d="M329.26 82.6844C322.712 80.5577 315.873 79.4719 309 79.4719" stroke="#025E73" stroke-opacity="0.1" stroke-miterlimit="10"/>
<path d="M309 30.2997C313.522 30.2997 317.193 26.6283 317.193 22.1063C317.193 17.5842 313.522 13.9128 309 13.9128" stroke="#025E73" stroke-opacity="0.1" stroke-miterlimit="10"/>
<path d="M309 46.6869C322.577 46.6869 333.592 35.6728 333.592 22.0954C333.592 8.51804 322.577 -2.49609 309 -2.49609" stroke="#025E73" stroke-opacity="0.1" stroke-miterlimit="10"/>
<path d="M358.183 63.0848C358.183 58.5627 354.511 54.8914 349.989 54.8914C345.467 54.8914 341.796 58.5627 341.796 63.0848" stroke="#025E73" stroke-opacity="0.1" stroke-miterlimit="10"/>
<path d="M374.57 63.0849C374.57 49.5075 363.556 38.4934 349.978 38.4934C336.401 38.4934 325.387 49.5075 325.387 63.0849" stroke="#025E73" stroke-opacity="0.1" stroke-miterlimit="10"/>
<path d="M390.968 13.9019C386.446 13.9019 382.775 17.5732 382.775 22.0953C382.775 26.6174 386.446 30.2887 390.968 30.2887" stroke="#025E73" stroke-opacity="0.1" stroke-miterlimit="10"/>
<path d="M390.968 -2.48486C377.391 -2.48486 366.376 8.52927 366.376 22.1066C366.376 35.684 377.391 46.6981 390.968 46.6981" stroke="#025E73" stroke-opacity="0.1" stroke-miterlimit="10"/>
<path d="M325.387 -18.8828C325.387 -5.30544 336.401 5.70869 349.978 5.70869C363.556 5.70869 374.57 -5.30544 374.57 -18.8828" stroke="#025E73" stroke-opacity="0.1" stroke-miterlimit="10"/>
<path d="M390.968 571.302C400.023 571.302 407.366 563.959 407.366 554.904" stroke="#025E73" stroke-opacity="0.1" stroke-miterlimit="10"/>
<path d="M472.936 604.087C454.825 604.087 440.151 618.761 440.151 636.872" stroke="#025E73" stroke-opacity="0.1" stroke-miterlimit="10"/>
<path d="M390.968 587.7C409.078 587.7 423.753 573.026 423.753 554.915" stroke="#025E73" stroke-opacity="0.1" stroke-miterlimit="10"/>
<path d="M472.936 587.7C445.77 587.7 423.753 609.717 423.753 636.883" stroke="#025E73" stroke-opacity="0.1" stroke-miterlimit="10"/>
<path d="M390.968 604.087C418.134 604.087 440.151 582.07 440.151 554.904" stroke="#025E73" stroke-opacity="0.1" stroke-miterlimit="10"/>
<path d="M472.936 571.302C436.715 571.302 407.355 600.662 407.355 636.883" stroke="#025E73" stroke-opacity="0.1" stroke-miterlimit="10"/>
<path d="M390.968 620.485C397.852 620.485 404.691 619.399 411.227 617.272" stroke="#025E73" stroke-opacity="0.1" stroke-miterlimit="10"/>
<path d="M453.336 575.175C455.463 568.627 456.549 561.788 456.549 554.915" stroke="#025E73" stroke-opacity="0.1" stroke-miterlimit="10"/>
<path d="M407.366 554.904C407.366 545.849 400.023 538.506 390.968 538.506" stroke="#025E73" stroke-opacity="0.1" stroke-miterlimit="10"/>
<path d="M456.549 472.936C456.549 481.991 463.892 489.334 472.947 489.334" stroke="#025E73" stroke-opacity="0.1" stroke-miterlimit="10"/>
<path d="M423.753 554.904C423.753 536.793 409.078 522.119 390.968 522.119" stroke="#025E73" stroke-opacity="0.1" stroke-miterlimit="10"/>
<path d="M440.151 472.936C440.151 491.047 454.825 505.721 472.936 505.721" stroke="#025E73" stroke-opacity="0.1" stroke-miterlimit="10"/>
<path d="M440.151 554.904C440.151 527.738 418.134 505.721 390.968 505.721" stroke="#025E73" stroke-opacity="0.1" stroke-miterlimit="10"/>
<path d="M423.753 472.936C423.753 500.102 445.77 522.119 472.936 522.119" stroke="#025E73" stroke-opacity="0.1" stroke-miterlimit="10"/>
<path d="M456.549 554.904C456.549 518.683 427.189 489.323 390.968 489.323" stroke="#025E73" stroke-opacity="0.1" stroke-miterlimit="10"/>
<path d="M407.366 472.936C407.366 479.82 408.451 486.659 410.578 493.196" stroke="#025E73" stroke-opacity="0.1" stroke-miterlimit="10"/>
<path d="M452.676 535.305C459.224 537.431 466.063 538.517 472.936 538.517" stroke="#025E73" stroke-opacity="0.1" stroke-miterlimit="10"/>
<path d="M456.549 390.968C456.549 400.023 463.892 407.366 472.947 407.366" stroke="#025E73" stroke-opacity="0.1" stroke-miterlimit="10"/>
<path d="M407.366 472.936C407.366 463.881 400.023 456.538 390.968 456.538" stroke="#025E73" stroke-opacity="0.1" stroke-miterlimit="10"/>
<path d="M440.151 390.968C440.151 409.078 454.825 423.753 472.936 423.753" stroke="#025E73" stroke-opacity="0.1" stroke-miterlimit="10"/>
<path d="M423.753 472.936C423.753 454.825 409.078 440.151 390.968 440.151" stroke="#025E73" stroke-opacity="0.1" stroke-miterlimit="10"/>
<path d="M423.753 390.968C423.753 418.134 445.77 440.151 472.936 440.151" stroke="#025E73" stroke-opacity="0.1" stroke-miterlimit="10"/>
<path d="M440.151 472.936C440.151 445.77 418.134 423.753 390.968 423.753" stroke="#025E73" stroke-opacity="0.1" stroke-miterlimit="10"/>
<path d="M407.366 390.968C407.366 427.189 436.726 456.549 472.947 456.549" stroke="#025E73" stroke-opacity="0.1" stroke-miterlimit="10"/>
<path d="M456.549 472.936C456.549 466.052 455.463 459.213 453.336 452.676" stroke="#025E73" stroke-opacity="0.1" stroke-miterlimit="10"/>
<path d="M411.227 410.567C404.679 408.44 397.84 407.354 390.968 407.354" stroke="#025E73" stroke-opacity="0.1" stroke-miterlimit="10"/>
<path d="M390.968 358.183C395.49 358.183 399.161 354.511 399.161 349.989C399.161 345.467 395.49 341.796 390.968 341.796" stroke="#025E73" stroke-opacity="0.1" stroke-miterlimit="10"/>
<path d="M390.968 374.57C404.545 374.57 415.559 363.556 415.559 349.978C415.559 336.401 404.545 325.387 390.968 325.387" stroke="#025E73" stroke-opacity="0.1" stroke-miterlimit="10"/>
<path d="M440.151 390.968C440.151 386.446 436.48 382.774 431.958 382.774C427.436 382.774 423.764 386.446 423.764 390.968" stroke="#025E73" stroke-opacity="0.1" stroke-miterlimit="10"/>
<path d="M456.549 390.968C456.549 377.391 445.535 366.376 431.957 366.376C418.38 366.376 407.366 377.391 407.366 390.968" stroke="#025E73" stroke-opacity="0.1" stroke-miterlimit="10"/>
<path d="M472.936 341.785C468.414 341.785 464.743 345.456 464.743 349.978C464.743 354.5 468.414 358.171 472.936 358.171" stroke="#025E73" stroke-opacity="0.1" stroke-miterlimit="10"/>
<path d="M472.936 325.387C459.358 325.387 448.344 336.401 448.344 349.978C448.344 363.556 459.358 374.57 472.936 374.57" stroke="#025E73" stroke-opacity="0.1" stroke-miterlimit="10"/>
<path d="M423.753 309C423.753 313.522 427.424 317.193 431.946 317.193C436.468 317.193 440.14 313.522 440.14 309" stroke="#025E73" stroke-opacity="0.1" stroke-miterlimit="10"/>
<path d="M407.366 309C407.366 322.577 418.38 333.592 431.957 333.592C445.535 333.592 456.549 322.577 456.549 309" stroke="#025E73" stroke-opacity="0.1" stroke-miterlimit="10"/>
<path d="M407.366 309C407.366 299.945 400.023 292.602 390.968 292.602" stroke="#025E73" stroke-opacity="0.1" stroke-miterlimit="10"/>
<path d="M456.549 227.032C456.549 236.088 463.892 243.43 472.947 243.43" stroke="#025E73" stroke-opacity="0.1" stroke-miterlimit="10"/>
<path d="M423.753 309C423.753 290.89 409.078 276.215 390.968 276.215" stroke="#025E73" stroke-opacity="0.1" stroke-miterlimit="10"/>
<path d="M440.151 227.032C440.151 245.143 454.825 259.817 472.936 259.817" stroke="#025E73" stroke-opacity="0.1" stroke-miterlimit="10"/>
<path d="M440.151 309C440.151 281.834 418.134 259.817 390.968 259.817" stroke="#025E73" stroke-opacity="0.1" stroke-miterlimit="10"/>
<path d="M423.753 227.032C423.753 254.198 445.77 276.215 472.936 276.215" stroke="#025E73" stroke-opacity="0.1" stroke-miterlimit="10"/>
<path d="M456.549 309C456.549 272.779 427.189 243.419 390.968 243.419" stroke="#025E73" stroke-opacity="0.1" stroke-miterlimit="10"/>
<path d="M407.366 227.032C407.366 233.916 408.451 240.755 410.578 247.292" stroke="#025E73" stroke-opacity="0.1" stroke-miterlimit="10"/>
<path d="M452.676 289.39C459.224 291.516 466.063 292.602 472.936 292.602" stroke="#025E73" stroke-opacity="0.1" stroke-miterlimit="10"/>
<path d="M407.366 227.032C407.366 217.977 400.023 210.634 390.968 210.634" stroke="#025E73" stroke-opacity="0.1" stroke-miterlimit="10"/>
<path d="M456.549 145.053C456.549 154.108 463.892 161.451 472.947 161.451" stroke="#025E73" stroke-opacity="0.1" stroke-miterlimit="10"/>
<path d="M423.753 227.032C423.753 208.921 409.078 194.247 390.968 194.247" stroke="#025E73" stroke-opacity="0.1" stroke-miterlimit="10"/>
<path d="M440.151 145.053C440.151 163.163 454.825 177.838 472.936 177.838" stroke="#025E73" stroke-opacity="0.1" stroke-miterlimit="10"/>
<path d="M440.151 227.032C440.151 199.866 418.134 177.849 390.968 177.849" stroke="#025E73" stroke-opacity="0.1" stroke-miterlimit="10"/>
<path d="M423.753 145.053C423.753 172.219 445.77 194.236 472.936 194.236" stroke="#025E73" stroke-opacity="0.1" stroke-miterlimit="10"/>
<path d="M456.549 227.032C456.549 190.811 427.189 161.451 390.968 161.451" stroke="#025E73" stroke-opacity="0.1" stroke-miterlimit="10"/>
<path d="M407.366 145.053C407.366 151.937 408.451 158.776 410.578 165.312" stroke="#025E73" stroke-opacity="0.1" stroke-miterlimit="10"/>
<path d="M452.676 207.421C459.224 209.548 466.063 210.634 472.936 210.634" stroke="#025E73" stroke-opacity="0.1" stroke-miterlimit="10"/>
<path d="M456.549 63.085C456.549 72.1403 463.892 79.483 472.947 79.483" stroke="#025E73" stroke-opacity="0.1" stroke-miterlimit="10"/>
<path d="M407.366 145.053C407.366 135.998 400.023 128.655 390.968 128.655" stroke="#025E73" stroke-opacity="0.1" stroke-miterlimit="10"/>
<path d="M440.151 63.085C440.151 81.1956 454.825 95.8699 472.936 95.8699" stroke="#025E73" stroke-opacity="0.1" stroke-miterlimit="10"/>
<path d="M423.753 145.053C423.753 126.942 409.078 112.268 390.968 112.268" stroke="#025E73" stroke-opacity="0.1" stroke-miterlimit="10"/>
<path d="M423.753 63.085C423.753 90.2509 445.77 112.268 472.936 112.268" stroke="#025E73" stroke-opacity="0.1" stroke-miterlimit="10"/>
<path d="M440.151 145.053C440.151 117.887 418.134 95.8699 390.968 95.8699" stroke="#025E73" stroke-opacity="0.1" stroke-miterlimit="10"/>
<path d="M407.366 63.085C407.366 99.3062 436.726 128.666 472.947 128.666" stroke="#025E73" stroke-opacity="0.1" stroke-miterlimit="10"/>
<path d="M456.549 145.053C456.549 138.169 455.463 131.33 453.336 124.793" stroke="#025E73" stroke-opacity="0.1" stroke-miterlimit="10"/>
<path d="M411.227 82.6844C404.679 80.5577 397.84 79.4719 390.968 79.4719" stroke="#025E73" stroke-opacity="0.1" stroke-miterlimit="10"/>
<path d="M407.366 63.0851C407.366 54.0298 400.023 46.687 390.968 46.687" stroke="#025E73" stroke-opacity="0.1" stroke-miterlimit="10"/>
<path d="M423.753 63.085C423.753 44.9744 409.078 30.3 390.968 30.3" stroke="#025E73" stroke-opacity="0.1" stroke-miterlimit="10"/>
<path d="M440.151 -18.8828C440.151 -0.772185 454.825 13.9021 472.936 13.9021" stroke="#025E73" stroke-opacity="0.1" stroke-miterlimit="10"/>
<path d="M440.151 63.0849C440.151 35.9189 418.134 13.9019 390.968 13.9019" stroke="#025E73" stroke-opacity="0.1" stroke-miterlimit="10"/>
<path d="M423.753 -18.8828C423.753 8.28313 445.77 30.3002 472.936 30.3002" stroke="#025E73" stroke-opacity="0.1" stroke-miterlimit="10"/>
<path d="M456.549 63.085C456.549 26.8637 427.189 -2.49609 390.968 -2.49609" stroke="#025E73" stroke-opacity="0.1" stroke-miterlimit="10"/>
<path d="M407.366 -18.8828C407.366 -11.999 408.451 -5.15992 410.578 1.37692" stroke="#025E73" stroke-opacity="0.1" stroke-miterlimit="10"/>
<path d="M452.676 43.4856C459.224 45.6123 466.063 46.698 472.936 46.698" stroke="#025E73" stroke-opacity="0.1" stroke-miterlimit="10"/>
<path d="M472.936 571.302C481.991 571.302 489.334 563.959 489.334 554.904" stroke="#025E73" stroke-opacity="0.1" stroke-miterlimit="10"/>
<path d="M472.936 587.7C491.047 587.7 505.721 573.026 505.721 554.915" stroke="#025E73" stroke-opacity="0.1" stroke-miterlimit="10"/>
<path d="M472.936 604.087C500.102 604.087 522.119 582.07 522.119 554.904" stroke="#025E73" stroke-opacity="0.1" stroke-miterlimit="10"/>
<path d="M472.936 620.485C479.82 620.485 486.659 619.399 493.196 617.272" stroke="#025E73" stroke-opacity="0.1" stroke-miterlimit="10"/>
<path d="M489.334 554.904C489.334 545.849 481.991 538.506 472.936 538.506" stroke="#025E73" stroke-opacity="0.1" stroke-miterlimit="10"/>
<path d="M505.732 554.904C505.732 536.793 491.058 522.119 472.947 522.119" stroke="#025E73" stroke-opacity="0.1" stroke-miterlimit="10"/>
<path d="M522.119 554.904C522.119 527.738 500.102 505.721 472.936 505.721" stroke="#025E73" stroke-opacity="0.1" stroke-miterlimit="10"/>
<path d="M538.517 554.904C538.517 518.683 509.157 489.323 472.936 489.323" stroke="#025E73" stroke-opacity="0.1" stroke-miterlimit="10"/>
<path d="M489.334 472.936C489.334 463.881 481.991 456.538 472.936 456.538" stroke="#025E73" stroke-opacity="0.1" stroke-miterlimit="10"/>
<path d="M505.721 472.936C505.721 454.825 491.047 440.151 472.936 440.151" stroke="#025E73" stroke-opacity="0.1" stroke-miterlimit="10"/>
<path d="M522.119 472.936C522.119 445.77 500.102 423.753 472.936 423.753" stroke="#025E73" stroke-opacity="0.1" stroke-miterlimit="10"/>
<path d="M493.207 410.567C486.659 408.44 479.82 407.354 472.947 407.354" stroke="#025E73" stroke-opacity="0.1" stroke-miterlimit="10"/>
<path d="M472.936 325.387C481.991 325.387 489.334 318.044 489.334 308.989" stroke="#025E73" stroke-opacity="0.1" stroke-miterlimit="10"/>
<path d="M472.936 341.785C491.047 341.785 505.721 327.111 505.721 309" stroke="#025E73" stroke-opacity="0.1" stroke-miterlimit="10"/>
<path d="M472.936 358.183C500.102 358.183 522.119 336.166 522.119 309" stroke="#025E73" stroke-opacity="0.1" stroke-miterlimit="10"/>
<path d="M472.936 374.57C479.82 374.57 486.659 373.484 493.196 371.357" stroke="#025E73" stroke-opacity="0.1" stroke-miterlimit="10"/>
<path d="M472.936 276.204C477.458 276.204 481.129 272.532 481.129 268.01C481.129 263.488 477.458 259.817 472.936 259.817" stroke="#025E73" stroke-opacity="0.1" stroke-miterlimit="10"/>
<path d="M472.936 292.602C486.513 292.602 497.528 281.588 497.528 268.01C497.528 254.433 486.513 243.419 472.936 243.419" stroke="#025E73" stroke-opacity="0.1" stroke-miterlimit="10"/>
<path d="M489.334 227.032C489.334 217.977 481.991 210.634 472.936 210.634" stroke="#025E73" stroke-opacity="0.1" stroke-miterlimit="10"/>
<path d="M505.721 227.032C505.721 208.921 491.047 194.247 472.936 194.247" stroke="#025E73" stroke-opacity="0.1" stroke-miterlimit="10"/>
<path d="M522.119 227.032C522.119 199.866 500.102 177.849 472.936 177.849" stroke="#025E73" stroke-opacity="0.1" stroke-miterlimit="10"/>
<path d="M493.207 164.664C486.659 162.537 479.82 161.451 472.947 161.451" stroke="#025E73" stroke-opacity="0.1" stroke-miterlimit="10"/>
<path d="M489.334 145.053C489.334 135.998 481.991 128.655 472.936 128.655" stroke="#025E73" stroke-opacity="0.1" stroke-miterlimit="10"/>
<path d="M505.732 145.053C505.732 126.942 491.058 112.268 472.947 112.268" stroke="#025E73" stroke-opacity="0.1" stroke-miterlimit="10"/>
<path d="M522.119 145.053C522.119 117.887 500.102 95.8699 472.936 95.8699" stroke="#025E73" stroke-opacity="0.1" stroke-miterlimit="10"/>
<path d="M538.517 145.053C538.517 108.832 509.157 79.4719 472.936 79.4719" stroke="#025E73" stroke-opacity="0.1" stroke-miterlimit="10"/>
<path d="M489.334 63.0851C489.334 54.0298 481.991 46.687 472.936 46.687" stroke="#025E73" stroke-opacity="0.1" stroke-miterlimit="10"/>
<path d="M505.721 63.085C505.721 44.9744 491.047 30.3 472.936 30.3" stroke="#025E73" stroke-opacity="0.1" stroke-miterlimit="10"/>
<path d="M522.119 63.0849C522.119 35.9189 500.102 13.9019 472.936 13.9019" stroke="#025E73" stroke-opacity="0.1" stroke-miterlimit="10"/>
<path d="M493.207 0.716355C486.659 -1.41036 479.82 -2.49609 472.947 -2.49609" stroke="#025E73" stroke-opacity="0.1" stroke-miterlimit="10"/>
</g>
</g>
</svg>
