<svg width="75" height="73" viewBox="0 0 75 73" fill="none" xmlns="http://www.w3.org/2000/svg">
<ellipse cx="37.5" cy="36.5" rx="37.5" ry="36.5" fill="#00AC00"/>
<path d="M30.2896 22.7093C28.0662 22.7949 26.0563 23.5884 24.9817 24.6643C24.863 24.7829 24.7221 24.877 24.567 24.9412C24.4119 25.0053 24.2457 25.0383 24.0779 25.0383C23.91 25.0382 23.7439 25.0051 23.5888 24.9408C23.4338 24.8765 23.2929 24.7823 23.1743 24.6636C23.0557 24.5449 22.9616 24.404 22.8974 24.2489C22.8332 24.0938 22.8002 23.9276 22.8003 23.7598C22.8004 23.592 22.8335 23.4258 22.8977 23.2707C22.962 23.1157 23.0562 22.9748 23.1749 22.8562C24.8322 21.1989 27.5309 20.2585 30.1899 20.155C32.8668 20.0515 35.7891 20.7837 37.8361 22.8307C38.0756 23.0704 38.2102 23.3955 38.2101 23.7345C38.2099 24.0734 38.0752 24.3985 37.8354 24.6381C37.5957 24.8777 37.2705 25.0122 36.9316 25.0121C36.5926 25.0119 36.2676 24.8772 36.028 24.6374C34.6352 23.2434 32.4963 22.6224 30.2896 22.708" fill="white"/>
<path fill-rule="evenodd" clip-rule="evenodd" d="M43.3069 41.3238C45.8403 38.3297 47.2278 34.5331 47.222 30.611C47.222 21.4366 39.7854 14 30.611 14C21.4366 14 14 21.4366 14 30.611C14 39.7854 21.4366 47.222 30.611 47.222C34.6935 47.222 38.4309 45.75 41.3238 43.3069L40.8331 46.1282L50.4343 55.7294L55.7294 50.4343L46.1282 40.8331L43.3069 41.3238ZM30.611 43.3887C37.6681 43.3887 43.3887 37.6681 43.3887 30.611C43.3887 23.5539 37.6681 17.8333 30.611 17.8333C23.5539 17.8333 17.8333 23.5539 17.8333 30.611C17.8333 37.6681 23.5539 43.3887 30.611 43.3887Z" fill="white"/>
<path d="M52.2412 57.5363L57.5363 52.2412L59.2689 53.9739C60.2439 54.9488 60.2439 56.5294 59.2689 57.5031L57.5031 59.2689C56.5281 60.2439 54.9475 60.2439 53.9739 59.2689L52.2412 57.5363Z" fill="white"/>
</svg>
