<svg width="75" height="73" viewBox="0 0 75 73" fill="none" xmlns="http://www.w3.org/2000/svg">
<ellipse cx="37.5" cy="36.5" rx="37.5" ry="36.5" fill="#00AC00"/>
<path fill-rule="evenodd" clip-rule="evenodd" d="M48.5708 16C50.3014 16 51.7326 16.9844 52.7805 18.0187C53.8715 19.0915 54.8718 20.534 55.7609 22.124C57.5459 25.313 59.0996 29.4796 60.1271 33.5963C61.1477 37.6813 61.7125 41.9477 61.3519 45.3023C60.989 48.6705 59.2538 52.2904 55.3753 52.2904C52.0275 52.2904 49.3602 50.5666 47.1782 48.8179L46.3821 48.1624L45.2661 47.2211L44.2591 46.3864C41.9478 44.5152 39.8952 43.2178 37.2301 43.2178C34.565 43.2178 32.5123 44.5152 30.2011 46.3864L29.194 47.2211L28.0781 48.1624L27.2842 48.8179C25.0977 50.5666 22.4304 52.2904 19.0849 52.2904C15.2041 52.2904 13.4689 48.6705 13.1083 45.3023C12.7499 41.9454 13.3124 37.6813 14.3331 33.5963C15.3606 29.4796 16.9142 25.313 18.6993 22.1217C19.5884 20.534 20.5886 19.0915 21.6796 18.0164C22.7275 16.9844 24.1587 16 25.8893 16C27.0574 16 28.1983 16.279 29.321 16.6124L30.6638 17.0229C30.8876 17.0925 31.1106 17.1583 31.3329 17.2203C33.2948 17.7828 35.3021 18.2682 37.2301 18.2682C39.158 18.2682 41.1653 17.7828 43.1273 17.2203L45.1346 16.6147C46.2641 16.2813 47.4141 16 48.5708 16ZM48.5708 20.5363C47.7021 20.5363 46.7949 20.7994 45.9148 21.0875L44.876 21.43L44.3748 21.5842C42.3674 22.1558 39.8385 22.8045 37.2301 22.8045C34.6217 22.8045 32.0927 22.1558 30.0854 21.5842L29.5864 21.43L28.5453 21.0875C27.6653 20.7971 26.758 20.5363 25.8893 20.5363C24.9412 20.7132 24.0907 21.8632 23.4488 22.9292L23.0904 23.5529L22.6595 24.3377C21.1126 27.1003 19.6882 30.87 18.7356 34.6964C17.8396 38.271 17.4042 41.6959 17.5697 44.2453L17.6287 44.9099L17.6741 45.3091L17.7421 45.7808C17.8986 46.6904 18.2366 47.7541 19.0849 47.7541C20.9266 47.7541 22.4644 46.8378 24.3765 45.3181L25.2905 44.5742L27.0143 43.1316L27.7946 42.4965C30.2079 40.5845 33.2268 38.6815 37.2301 38.6815C41.2334 38.6815 44.2523 40.5868 46.6656 42.4965L47.4481 43.1316L49.1719 44.5742L50.0837 45.3181C51.9957 46.8378 53.5313 47.7541 55.3753 47.7541C56.1465 47.7541 56.4958 46.8763 56.6704 46.0326L56.7566 45.5381L56.8405 44.8191C57.1195 42.2198 56.6886 38.5477 55.7269 34.6964C54.8514 31.1898 53.5812 27.7286 52.184 25.0477L51.3697 23.5507L51.0114 22.9315C50.3695 21.8632 49.5189 20.7132 48.5708 20.5363ZM29.2915 25.0726C30.7954 25.0726 32.2377 25.67 33.3011 26.7334C34.3645 27.7968 34.9619 29.2391 34.9619 30.743C34.9619 32.2469 34.3645 33.6891 33.3011 34.7525C32.2377 35.816 30.7954 36.4134 29.2915 36.4134C27.7877 36.4134 26.3454 35.816 25.282 34.7525C24.2186 33.6891 23.6212 32.2469 23.6212 30.743C23.6212 29.2391 24.2186 27.7968 25.282 26.7334C26.3454 25.67 27.7877 25.0726 29.2915 25.0726ZM45.1686 25.0726C45.7242 25.0727 46.2604 25.2766 46.6755 25.6458C47.0907 26.015 47.3559 26.5237 47.4209 27.0754L47.4368 27.3408V28.4748H48.5708C49.1489 28.4755 49.705 28.6968 50.1254 29.0937C50.5457 29.4906 50.7987 30.0329 50.8326 30.6101C50.8665 31.1872 50.6787 31.7554 50.3076 32.1988C49.9366 32.6421 49.4103 32.927 48.8362 32.9953L48.5708 33.0111H47.4368V34.1452C47.4361 34.7233 47.2148 35.2794 46.8179 35.6997C46.421 36.1201 45.8786 36.3731 45.3015 36.407C44.7244 36.4408 44.1562 36.2531 43.7128 35.882C43.2695 35.511 42.9846 34.9846 42.9163 34.4106L42.9005 34.1452V33.0111H41.7664C41.1883 33.0105 40.6322 32.7891 40.2119 32.3923C39.7915 31.9954 39.5385 31.453 39.5046 30.8759C39.4708 30.2988 39.6585 29.7305 40.0296 29.2872C40.4006 28.8439 40.9269 28.559 41.501 28.4907L41.7664 28.4748H42.9005V27.3408C42.9005 26.7392 43.1394 26.1623 43.5648 25.7369C43.9901 25.3116 44.5671 25.0726 45.1686 25.0726ZM29.2915 29.6089C28.9908 29.6089 28.7023 29.7284 28.4896 29.9411C28.277 30.1538 28.1575 30.4422 28.1575 30.743C28.1575 31.0438 28.277 31.3322 28.4896 31.5449C28.7023 31.7576 28.9908 31.8771 29.2915 31.8771C29.5923 31.8771 29.8808 31.7576 30.0935 31.5449C30.3061 31.3322 30.4256 31.0438 30.4256 30.743C30.4256 30.4422 30.3061 30.1538 30.0935 29.9411C29.8808 29.7284 29.5923 29.6089 29.2915 29.6089Z" fill="white"/>
</svg>
