<svg width="75" height="73" viewBox="0 0 75 73" fill="none" xmlns="http://www.w3.org/2000/svg">
<ellipse cx="37.5" cy="36.5" rx="37.5" ry="36.5" fill="#00AC00"/>
<g clip-path="url(#clip0_331_938)">
<path d="M34.211 18C21.579 18 14 28.133 14 33.2C14 38.267 16.526 42.067 21.579 42.067C26.632 42.067 29.159 43.333 29.159 47.133C29.159 52.199 32.948 55.999 38.001 55.999C54.423 55.999 62.001 47.133 62.001 38.267C62 23.067 49.366 18 34.211 18ZM31.053 23.067C31.4683 23.0673 31.8795 23.1494 32.2631 23.3087C32.6466 23.468 32.995 23.7013 33.2883 23.9954C33.5816 24.2894 33.814 24.6384 33.9724 25.0223C34.1307 25.4063 34.2118 25.8177 34.211 26.233C34.211 27.983 32.797 29.4 31.053 29.4C29.309 29.4 27.895 27.982 27.895 26.233C27.8942 25.8177 27.9753 25.4063 28.1336 25.0223C28.292 24.6384 28.5244 24.2894 28.8177 23.9954C29.111 23.7013 29.4594 23.468 29.8429 23.3087C30.2265 23.1494 30.6377 23.0673 31.053 23.067ZM41.157 23.067C41.5723 23.0673 41.9835 23.1494 42.3671 23.3087C42.7506 23.468 43.099 23.7013 43.3923 23.9954C43.6856 24.2894 43.918 24.6384 44.0764 25.0223C44.2347 25.4063 44.3158 25.8177 44.315 26.233C44.3159 26.6484 44.2349 27.0599 44.0767 27.444C43.9184 27.828 43.686 28.1771 43.3926 28.4713C43.0993 28.7654 42.7509 28.9989 42.3673 29.1582C41.9837 29.3176 41.5724 29.3997 41.157 29.4C40.7417 29.3996 40.3305 29.3173 39.947 29.1579C39.5635 28.9985 39.2152 28.7651 38.922 28.4709C38.6288 28.1768 38.3964 27.8277 38.2382 27.4437C38.08 27.0597 37.9991 26.6483 38 26.233C37.9992 25.8178 38.0803 25.4065 38.2385 25.0226C38.3968 24.6387 38.6292 24.2898 38.9224 23.9957C39.2156 23.7017 39.5638 23.4683 39.9473 23.309C40.3307 23.1496 40.7418 23.0674 41.157 23.067ZM51.263 28.133C51.6785 28.1331 52.0899 28.2152 52.4736 28.3745C52.8573 28.5338 53.2059 28.7672 53.4993 29.0614C53.7927 29.3555 54.0252 29.7047 54.1836 30.0888C54.3419 30.4729 54.4229 30.8845 54.422 31.3C54.4228 31.7154 54.3417 32.1269 54.1833 32.5109C54.0249 32.8949 53.7923 33.2439 53.4989 33.538C53.2055 33.832 52.857 34.0654 52.4734 34.2246C52.0897 34.3838 51.6784 34.4659 51.263 34.466C50.8478 34.4656 50.4367 34.3834 50.0533 34.224C49.6698 34.0647 49.3216 33.8313 49.0284 33.5373C48.7352 33.2432 48.5028 32.8943 48.3445 32.5104C48.1863 32.1265 48.1052 31.7152 48.106 31.3C48.1051 30.8847 48.186 30.4733 48.3442 30.0893C48.5024 29.7053 48.7348 29.3562 49.028 29.0621C49.3212 28.7679 49.6695 28.5345 50.053 28.3751C50.4365 28.2157 50.8477 28.1334 51.263 28.133ZM22.211 30.667C22.6261 30.6674 23.0371 30.7496 23.4205 30.9089C23.8039 31.0682 24.1521 31.3014 24.4453 31.5954C24.7385 31.8893 24.9709 32.2381 25.1292 32.6219C25.2875 33.0056 25.3687 33.4169 25.368 33.832C25.368 35.582 23.954 36.999 22.211 36.999C20.468 36.999 19.053 35.581 19.053 33.832C19.0523 33.4168 19.1335 33.0055 19.2919 32.6216C19.4503 32.2378 19.6828 31.889 19.9761 31.595C20.2694 31.3011 20.6177 31.0678 21.0012 30.9086C21.3847 30.7494 21.7958 30.6673 22.211 30.667ZM38 43.333C40.093 43.333 41.789 45.033 41.789 47.134C41.789 49.232 40.093 50.933 38 50.933C35.907 50.933 34.211 49.232 34.211 47.134C34.2101 46.6356 34.3074 46.1419 34.4973 45.6811C34.6873 45.2203 34.9661 44.8015 35.318 44.4485C35.6699 44.0955 36.0878 43.8153 36.548 43.6239C37.0082 43.4325 37.5016 43.3337 38 43.333Z" fill="white"/>
</g>
<defs>
<clipPath id="clip0_331_938">
<rect width="54" height="54" fill="white" transform="translate(11 10)"/>
</clipPath>
</defs>
</svg>
