<svg width="75" height="73" viewBox="0 0 75 73" fill="none" xmlns="http://www.w3.org/2000/svg">
<ellipse cx="37.5" cy="36.5" rx="37.5" ry="36.5" fill="#025E73"/>
<path d="M60.7994 40.875L58.0125 38.0881C58.328 37.4369 58.4945 36.7236 58.5 36C58.5 35.0358 58.2141 34.0933 57.6784 33.2916C57.1427 32.4899 56.3814 31.8651 55.4906 31.4961C54.5998 31.1271 53.6196 31.0306 52.6739 31.2187C51.7283 31.4068 50.8596 31.8711 50.1779 32.5529C49.4961 33.2346 49.0318 34.1033 48.8437 35.0489C48.6556 35.9946 48.7521 36.9748 49.1211 37.8656C49.4901 38.7564 50.1149 39.5177 50.9166 40.0534C51.7183 40.5891 52.6608 40.875 53.625 40.875C54.3491 40.8697 55.063 40.7032 55.7147 40.3875L58.5 43.1728V55.5H48.75V50.625C48.7457 47.6095 47.5459 44.7187 45.4136 42.5864C43.2813 40.4541 40.3905 39.2543 37.375 39.25H27.625C24.6095 39.2543 21.7187 40.4541 19.5864 42.5864C17.4541 44.7187 16.2543 47.6095 16.25 50.625V58.75H61.75V43.1728C61.7502 42.3111 61.4083 41.4846 60.7994 40.875ZM19.5 50.625C19.5026 48.4709 20.3594 46.4058 21.8826 44.8826C23.4058 43.3594 25.4709 42.5026 27.625 42.5H37.375C39.5291 42.5026 41.5942 43.3594 43.1174 44.8826C44.6406 46.4058 45.4974 48.4709 45.5 50.625V55.5H19.5V50.625Z" fill="white"/>
<path d="M32.5 16.5C34.107 16.5 35.6779 16.9765 37.014 17.8693C38.3502 18.7621 39.3916 20.031 40.0065 21.5157C40.6215 23.0003 40.7824 24.634 40.4689 26.2101C40.1554 27.7862 39.3816 29.2339 38.2452 30.3702C37.1089 31.5065 35.6612 32.2804 34.0851 32.5939C32.509 32.9074 30.8754 32.7465 29.3907 32.1315C27.9061 31.5166 26.6371 30.4752 25.7443 29.139C24.8515 27.8029 24.375 26.232 24.375 24.625C24.375 22.4701 25.231 20.4035 26.7548 18.8798C28.2785 17.356 30.3451 16.5 32.5 16.5ZM32.5 13.25C30.2502 13.25 28.051 13.9171 26.1804 15.167C24.3098 16.4169 22.8518 18.1935 21.9909 20.272C21.1299 22.3505 20.9047 24.6376 21.3436 26.8442C21.7825 29.0507 22.8658 31.0775 24.4567 32.6683C26.0475 34.2592 28.0743 35.3425 30.2809 35.7814C32.4874 36.2203 34.7745 35.9951 36.853 35.1341C38.9315 34.2732 40.7081 32.8152 41.958 30.9446C43.2079 29.074 43.875 26.8748 43.875 24.625C43.875 21.6082 42.6766 18.7149 40.5433 16.5817C38.4101 14.4484 35.5168 13.25 32.5 13.25Z" fill="white"/>
</svg>
