<svg width="75" height="73" viewBox="0 0 75 73" fill="none" xmlns="http://www.w3.org/2000/svg">
<ellipse cx="37.5" cy="36.5" rx="37.5" ry="36.5" fill="#00AC00"/>
<path d="M42.1302 52.6933C39.767 51.5511 37.7375 49.8201 36.2368 47.6666H18.2968V21.6666H57.2968V26.5633C59.0501 27.7972 60.5261 29.3839 61.6302 31.2216V21.6666C61.6302 20.5174 61.1736 19.4152 60.361 18.6025C59.5483 17.7899 58.4461 17.3333 57.2968 17.3333H18.2968C17.1476 17.3333 16.0454 17.7899 15.2327 18.6025C14.42 19.4152 13.9635 20.5174 13.9635 21.6666V47.6666C13.9635 48.8159 14.42 49.9181 15.2327 50.7308C16.0454 51.5434 17.1476 52 18.2968 52H33.4635V56.3333H29.1302V60.6666H46.4635V56.3333H42.1302V52.6933Z" fill="white"/>
<path d="M48.6303 26C46.0591 26 43.5457 26.7624 41.4078 28.1909C39.27 29.6194 37.6038 31.6497 36.6198 34.0251C35.6359 36.4006 35.3784 39.0144 35.88 41.5362C36.3817 44.0579 37.6198 46.3743 39.4379 48.1924C41.2559 50.0105 43.5723 51.2486 46.0941 51.7502C48.6158 52.2518 51.2297 51.9944 53.6051 51.0104C55.9806 50.0265 58.0109 48.3603 59.4394 46.2224C60.8678 44.0846 61.6303 41.5712 61.6303 39C61.6303 35.5522 60.2606 32.2456 57.8226 29.8076C55.3847 27.3696 52.0781 26 48.6303 26ZM48.6303 42.25C47.9875 42.25 47.3591 42.0594 46.8247 41.7023C46.2902 41.3452 45.8736 40.8376 45.6276 40.2437C45.3817 39.6499 45.3173 38.9964 45.4427 38.366C45.5681 37.7355 45.8776 37.1564 46.3322 36.7019C46.7867 36.2474 47.3658 35.9378 47.9962 35.8124C48.6267 35.687 49.2801 35.7514 49.874 35.9974C50.4678 36.2434 50.9754 36.6599 51.3325 37.1944C51.6896 37.7289 51.8803 38.3572 51.8803 39C51.8803 39.862 51.5378 40.6886 50.9284 41.2981C50.3189 41.9076 49.4922 42.25 48.6303 42.25Z" fill="white"/>
</svg>
