<svg width="75" height="73" viewBox="0 0 75 73" fill="none" xmlns="http://www.w3.org/2000/svg">
<ellipse cx="37.5" cy="36.5" rx="37.5" ry="36.5" fill="#00AC00"/>
<path d="M36.7475 9L60.495 22.7126V50.1328L36.7475 63.8454L13 50.1328V22.7126L36.7475 9ZM36.7475 14.6787L20.375 24.131L36.7475 33.5833L53.12 24.131L36.7475 14.6787ZM55.5783 28.3889L39.2058 37.8412V56.7458L55.5783 47.2959V28.3889ZM34.2892 56.7482V37.8436L17.9167 28.3864V47.291L34.2892 56.7482ZM39.2058 19.2144V29.0477H34.2892V19.2144H39.2058ZM31.5899 42.2391L23.0743 47.1558L20.6159 42.898L29.1316 37.9813L31.5899 42.2391ZM44.3634 37.9813L52.8791 42.898L50.4207 47.1558L41.9051 42.2391L44.3634 37.9813Z" fill="white"/>
</svg>
