<svg width="75" height="73" viewBox="0 0 75 73" fill="none" xmlns="http://www.w3.org/2000/svg">
<ellipse cx="37.5" cy="36.5" rx="37.5" ry="36.5" fill="#00AC00"/>
<path d="M58.9375 53.875H15.0625C14.6149 53.875 14.1857 53.6972 13.8693 53.3807C13.5528 53.0643 13.375 52.6351 13.375 52.1875V23.5C13.375 23.0524 13.5528 22.6232 13.8693 22.3068C14.1857 21.9903 14.6149 21.8125 15.0625 21.8125H25.9638L28.8494 17.5094C29.0022 17.2772 29.2101 17.0865 29.4544 16.954C29.6988 16.8215 29.9721 16.7514 30.25 16.75H43.75C44.0279 16.7514 44.3012 16.8215 44.5456 16.954C44.7899 17.0865 44.9978 17.2772 45.1506 17.5094L48.0363 21.8125H58.9375C59.3851 21.8125 59.8143 21.9903 60.1307 22.3068C60.4472 22.6232 60.625 23.0524 60.625 23.5V52.1875C60.625 52.6351 60.4472 53.0643 60.1307 53.3807C59.8143 53.6972 59.3851 53.875 58.9375 53.875ZM16.75 50.5H57.25V25.1875H47.125C46.8471 25.1861 46.5738 25.116 46.3294 24.9835C46.0851 24.851 45.8772 24.6603 45.7244 24.4281L42.8387 20.125H31.1612L28.2756 24.4281C28.1228 24.6603 27.9149 24.851 27.6706 24.9835C27.4262 25.116 27.1529 25.1861 26.875 25.1875H16.75V50.5Z" fill="white"/>
<path d="M37 47.125C34.9975 47.125 33.0399 46.5312 31.3749 45.4186C29.7098 44.3061 28.4121 42.7248 27.6457 40.8747C26.8794 39.0246 26.6789 36.9888 27.0696 35.0247C27.4602 33.0607 28.4245 31.2566 29.8405 29.8405C31.2566 28.4245 33.0607 27.4602 35.0247 27.0696C36.9888 26.6789 39.0246 26.8794 40.8747 27.6457C42.7248 28.4121 44.3061 29.7098 45.4186 31.3749C46.5312 33.0399 47.125 34.9975 47.125 37C47.125 39.6853 46.0583 42.2607 44.1595 44.1595C42.2607 46.0583 39.6853 47.125 37 47.125ZM37 30.25C35.665 30.25 34.3599 30.6459 33.2499 31.3876C32.1399 32.1293 31.2747 33.1835 30.7638 34.4169C30.2529 35.6503 30.1193 37.0075 30.3797 38.3169C30.6402 39.6262 31.283 40.829 32.227 41.773C33.171 42.717 34.3738 43.3599 35.6831 43.6203C36.9925 43.8808 38.3497 43.7471 39.5831 43.2362C40.8165 42.7253 41.8707 41.8601 42.6124 40.7501C43.3541 39.6401 43.75 38.335 43.75 37C43.75 35.2098 43.0388 33.4929 41.773 32.227C40.5071 30.9612 38.7902 30.25 37 30.25Z" fill="white"/>
</svg>
