<svg width="311" height="235" viewBox="0 0 311 235" fill="none" xmlns="http://www.w3.org/2000/svg">
<path d="M167.297 20.4728C156.961 -1.50316 115.805 -5.42635 106.656 21.8061C94.8333 22.4881 73.9147 10.6036 62.6739 28.4725C60.8042 35.0315 58.4365 48.6938 50.0078 50.7933C31.0815 53.5671 18.7678 63.2754 17.1894 80.6156C15.8561 95.274 22.1853 93.1591 22.1853 96.6072C22.1853 101.603 17.3886 101.864 14.8523 104.936C1.02154 121.71 -6.70224 145.103 20.354 154.413C0.952582 173.439 30.2079 202.962 50.6744 192.059C55.1723 212.426 85.531 230.823 103.316 211.384C106.526 205.821 105.752 217.054 107.645 217.713C115.353 229.413 132.464 233.957 144.961 231.038C183.128 209.299 155.505 71.1525 167.282 20.4652L167.297 20.4728Z" fill="#FFE5BB"/>
<path d="M158.47 52.2875C154.67 52.1036 156.394 34.0048 144.808 26.6335C138.211 22.4268 130.089 23.4919 126.479 23.967C117.66 25.124 111.775 29.4227 108.817 31.6294C100.864 37.5832 96.933 44.9239 95.1553 48.9543C94.7951 46.9391 93.9599 43.7055 91.8221 40.2881C90.0291 37.4223 88.1671 34.4492 84.8262 33.6217C81.2019 32.7328 77.9377 34.8937 75.8305 36.2882C71.1257 39.3992 68.9573 43.8818 68.1833 45.5905C67.6929 46.6709 67.3711 47.6134 67.1642 48.28C66.9957 48.4639 66.7505 48.7321 66.4593 49.0539C61.402 54.5556 57.4175 58.3945 56.6666 59.1071C52.6132 62.992 50.5366 64.8463 49.6708 65.4363C42.2612 70.5012 38.7288 67.827 32.0088 72.1027C30.6602 72.9609 23.3119 77.635 22.0169 86.0944C21.2353 91.1899 22.99 95.4043 24.0168 97.4195C24.331 98.0325 16.1015 89.9486 17.021 80.4241C18.1703 68.4936 31.3575 62.6165 34.0163 61.4365C36.7135 60.2335 38.6062 60.6319 44.3454 58.77C48.7053 57.3524 51.4715 56.4559 54.3372 54.7701C62.3905 50.05 66.2524 42.1117 67.6623 39.108C71.0491 31.9283 69.3404 30.097 72.6582 26.7791C76.3515 23.0858 83.2861 20.5342 88.6498 22.4498C90.9639 23.2773 92.2589 24.6719 95.9828 25.4458C98.4731 25.9669 100.596 25.9056 101.983 25.7753C104.695 22.3885 109.837 16.9788 117.974 13.4464C121.767 11.799 133.353 7.46199 145.965 11.7836C147.199 12.2051 151.375 13.7146 155.957 17.1167C161.911 21.5303 165.252 26.6795 166.953 29.7751C162.93 48.6325 160.202 52.3488 158.455 52.2645L158.47 52.2875Z" fill="#E08A5F"/>
<path d="M146.808 25.3002C147.252 90.937 147.696 156.574 148.141 222.211C150.509 222.464 152.608 222.211 154.47 221.544C185.266 210.594 166.623 84.5542 158.47 35.6293C154.585 32.1888 150.692 28.7407 146.808 25.3002Z" fill="#E08A5F"/>
<path d="M10.8677 140.253C10.3466 138.789 8.1015 131.97 11.5343 124.928C15.0514 117.725 22.0089 115.426 24.5299 114.599C32.0084 112.131 38.4679 114.147 40.8586 114.928C44.1305 116.001 46.6055 117.487 48.1916 118.591C47.3947 116.315 45.709 112.491 42.1919 108.928C40.3069 107.02 35.878 102.53 29.1963 101.933C20.7982 101.182 13.5112 107.013 10.2087 112.591C8.55359 115.388 7.99422 118.568 6.8755 124.92C5.56522 132.36 6.37744 134.766 6.8755 135.916C7.53448 137.433 8.8371 139.448 10.2087 141.578C11.0439 142.873 12.0017 144.352 12.2086 144.245C12.3389 144.176 12.2163 143.471 10.8753 140.245L10.8677 140.253Z" fill="#E08A5F"/>
<path d="M40.5215 166.903C39.625 167.125 39.1576 164.688 36.1922 162.236C32.974 159.577 27.2348 157.248 23.8633 159.57C21.6182 161.118 21.1968 164.19 20.8673 166.566C20.4229 169.761 21.0512 172.389 21.5339 173.899C21.6872 174.381 17.9785 169.723 17.8712 164.236C17.8099 161.217 19.1049 160.773 19.534 156.903C19.9861 152.888 20.5531 153.815 21.5339 151.907C23.3423 148.39 30.9664 148.72 36.5294 155.907C40.828 161.47 42.146 166.497 40.5292 166.903H40.5215Z" fill="#E08A5F"/>
<path d="M135.475 108.929H113.821V151.241H135.475V108.929Z" fill="#E08A5F"/>
<path d="M53.188 196.557C60.1838 202.886 62.7584 204.656 66.1836 205.89C71.5779 207.836 73.3939 208.932 77.5087 209.552C79.2404 209.813 89.4315 211.361 91.5004 207.223C92.7877 204.656 90.443 200.924 89.171 198.894C87.309 195.921 84.9643 194.158 83.5084 193.231C91.9525 197.231 96.7262 198.894 105.163 202.894C105.224 204.587 109.277 210.426 111.829 213.223C114.687 216.357 118.595 216.77 122.825 217.222C122.825 217.222 130.188 217.958 136.487 215.889C146.517 212.602 156.884 188.182 158.141 154.252C158.693 177.684 159.252 201.123 159.804 224.555C156.402 227.314 149.505 232.057 139.812 233.222C119.108 235.704 105.967 213.261 104.496 211.567C97.5001 216.901 89.1787 219.138 85.1712 219.23C81.1407 219.322 73.1794 216.901 60.8505 207.905C57.9847 205.813 53.3259 198.457 53.188 196.58V196.557Z" fill="#E08A5F"/>
<path d="M162.493 33.8975C158.762 27.3997 153.291 22.1586 146.578 18.925C139.629 15.4616 131.422 14.0133 123.966 16.5726C119.308 18.2507 115.162 21.3847 111.844 25.0856C110.818 26.2273 109.86 27.4763 108.802 28.5797C106.258 31.3076 102.849 33.5527 101.063 36.9855C99.6763 39.7363 99.4081 43.7974 102.128 45.8586C104.381 47.5903 107.967 47.0616 110.335 45.4219C110.749 45.146 111.086 44.8855 111.5 44.5483L92.0981 60.9614C92.6115 58.2182 93.1479 55.4904 93.9065 52.8315C94.4965 50.6936 95.0329 48.9772 95.4543 47.4601C96.2742 44.6786 96.4581 42.3339 96.8336 39.6443C97.6151 33.4914 96.9715 26.5338 100.174 20.8943C104.757 12.7644 112.182 5.73021 121.024 2.42768C133.322 -2.26176 147.46 0.220886 158.585 6.63438C166.363 11.1093 172.799 17.8293 177.113 25.668L162.509 33.9051L162.493 33.8975Z" fill="#001615"/>
<path d="M24.0167 101.741C22.1548 98.8447 19.7871 96.5 17.9251 93.5959C16.0018 90.6152 14.6302 87.1977 14.1628 83.6193C13.1437 76.4089 15.7029 69.03 18.9748 62.7774C19.925 61.3828 20.8904 60.0036 22.0245 58.7469C22.4536 58.2412 23.2122 57.5439 23.6873 57.0612C24.1623 56.5861 24.9592 55.9578 25.4803 55.5133C32.5298 49.9351 41.3493 47.9045 49.9772 46.7398C52.5288 46.8777 54.1916 44.5483 54.9578 42.2956C55.1187 41.7745 55.2413 41.3071 55.2184 40.8857C55.2107 40.8474 55.18 40.8857 55.1877 41.0926L55.1571 39.8359C55.5325 22.5877 67.8538 9.72237 85.2859 9.4695C94.3353 9.33924 103.354 12.9176 110.005 18.8101L99.155 31.7367C96.4348 29.6678 93.3699 28.1583 90.1976 27.415C87.0406 26.6564 83.7994 26.6794 81.0103 27.4687C78.2824 28.2579 75.999 29.7521 74.2903 31.9895C72.4436 34.4339 71.5548 37.4912 71.21 40.6864L71.1793 39.4298C71.4015 43.0158 70.6966 45.3146 69.5319 48.2187C66.4056 55.6359 58.973 61.582 50.5979 61.1529C46.0387 61.4288 35.5718 61.7966 29.2272 66.4554C28.4073 67.0454 27.6411 67.7044 26.8978 68.4016L27.0971 68.1258C25.1814 70.4322 23.4191 72.8152 22.0781 75.3438C18.3082 82.1941 18.9365 89.4888 23.3884 95.864C24.3156 97.1053 25.3883 98.247 26.7063 99.1282L24.0167 101.741Z" fill="#001615"/>
<path d="M25.8786 151.831C18.7832 155.409 10.0939 153.478 5.30487 147.026C1.09051 141.402 -0.204452 134.261 0.0254225 127.418C0.339584 119.817 3.46588 113.365 8.76831 108.009C11.3582 105.128 14.1704 102.392 17.7334 100.354C24.0933 96.5306 32.4837 96.3314 39.1271 99.6953C42.9353 101.611 46.0846 104.661 48.2301 108.293C49.4101 110.492 50.866 112.607 52.6973 114.3C56.245 117.74 60.9268 119.625 65.8002 120.261C69.4092 120.844 73.0335 120.79 76.6196 120.139C80.9335 119.38 85.1479 117.641 88.8182 115.074C90.1132 114.185 91.3699 113.174 92.6648 112.093C90.2971 120.767 81.5542 126.384 72.865 127.15C67.5319 127.679 62.1068 127.135 57.0649 125.242C53.6245 123.932 50.4369 121.832 47.8546 119.212C45.916 117.242 44.2992 114.997 43.0273 112.553C42.7514 112.009 42.33 111.158 42.0081 110.653C38.5447 104.722 30.9895 101.802 24.4381 103.733C20.285 104.959 17.0208 107.718 14.2393 111.166L13.4731 112.116C11.8333 114.032 10.3468 116.154 9.39664 118.461C7.74154 122.315 7.49634 126.644 7.94076 130.805C8.33921 134.82 9.38897 139.264 11.5804 142.452C14.768 147.348 19.9172 148.819 25.5262 149.67L25.8786 151.838V151.831Z" fill="#001615"/>
<path d="M65.4014 192.902C61.0567 191.339 56.0072 191.806 51.8081 193.017C49.9232 193.538 48.1685 194.258 46.2682 194.733C36.9046 197.4 26.6982 193.668 20.0855 186.917C15.9937 182.887 13.1816 177.508 12.4077 171.815C11.6261 166.144 12.6682 160.099 15.9784 155.348C18.0856 152.26 21.7022 149.708 25.5258 149.923L25.8783 151.555C15.5493 157.133 18.53 171.539 25.4492 178.718L26.9664 180.419C30.652 184.35 34.4756 190.059 40.2991 190.044C43.0346 189.959 45.7241 188.419 47.3409 186.159C49.1722 183.569 49.586 179.492 49.3485 176.136C49.3255 175.477 49.2642 174.749 49.1569 173.945L65.409 192.894L65.4014 192.902Z" fill="#001615"/>
<path d="M57.6625 190.235C57.2411 191.883 56.9652 192.925 57.0035 194.212C57.0342 196.166 57.8617 198.587 58.6893 200.518C61.8462 208.142 67.6237 213.1 75.5008 215.475C82.0062 217.636 89.753 218.739 95.9289 215.33C98.4422 213.851 100.925 211.713 101.5 208.725C102.189 205.047 100.044 201.338 96.8638 199.177L116.127 201.928C111.315 205.1 107.43 209.023 103.637 213.008C96.8944 221.123 86.5271 221.268 77.0946 218.709C70.2903 216.946 64.145 214.272 59.2103 209.069C57.1261 206.955 55.2642 204.342 53.5861 201.89C52.2911 199.92 51.1111 197.989 50.2912 195.729C49.5939 193.959 49.3027 191.706 49.0039 189.929L57.6625 190.227V190.235Z" fill="#001615"/>
<path d="M107.576 205.667C108.802 213.736 115.216 220.425 122.986 222.548C126.901 223.728 131.07 224.594 135.154 224.448C137.675 224.371 140.065 223.873 142.395 222.977C143.628 222.479 144.954 221.866 146.134 221.283C148.601 220.073 151 218.671 153.237 217.092C155.712 215.368 157.536 213.69 160.049 211.667L168.708 224.433C166.133 225.889 162.991 227.835 160.133 229.153C157.796 230.272 155.421 231.222 152.992 232.049C143.95 235.061 137.491 236.049 128.173 233.398C124.549 232.325 121.047 230.839 117.691 229.122C112.281 226.21 107.799 221.605 105.17 216.058C103.676 212.916 102.872 209.483 102.749 206.089L107.576 205.652V205.667Z" fill="#001615"/>
<path d="M100.626 81.9106C92.7336 77.382 89.1016 67.5051 92.2892 59.0994C93.224 56.6091 94.6109 54.3946 96.335 52.5633C96.6108 52.2644 97.1089 52.6092 96.9173 52.977C93.929 58.8848 94.519 66.5473 99.6528 70.9149C101.093 72.1332 102.771 72.9148 104.488 73.2826C107.093 73.842 108.748 76.4012 108.189 79.0065C107.469 82.4163 103.446 83.9105 100.626 81.9106Z" fill="#001615"/>
<path d="M76.0455 63.9727C81.6468 66.532 88.3974 63.6126 91.5774 58.4711C92.7957 56.5631 93.6692 54.318 94.0753 51.9426C94.1366 51.5442 94.742 51.5442 94.788 51.958C95.1098 54.4483 94.9412 57.0535 94.2363 59.6204C92.6961 65.1298 88.6733 69.6583 83.2712 71.8881C80.4591 73.0528 77.2715 73.5125 74.1146 73.2213C71.2948 73.1754 69.0267 70.777 69.3025 67.9342C69.5401 64.7083 73.1185 62.6241 76.0455 63.9651V63.9727Z" fill="#001615"/>
<path d="M47.3257 135.203C45.9694 144.199 38.0847 151.164 29.0966 151.256C26.4378 151.294 23.8708 150.796 21.5414 149.861C21.166 149.708 21.2962 149.126 21.71 149.164C25.7788 149.486 29.8169 148.574 32.9968 146.114C36.5522 143.479 38.6441 139.011 37.8932 134.743C37.4717 132.115 39.2571 129.64 41.8853 129.219C45.3105 128.636 48.1839 131.878 47.341 135.211L47.3257 135.203Z" fill="#001615"/>
<path d="M39.5407 164.619C39.8931 158.466 34.721 153.241 28.7749 152.145C26.5604 151.7 24.1467 151.7 21.7867 152.191C21.3959 152.275 21.1737 151.716 21.5415 151.524C23.7483 150.321 26.2386 149.532 28.8822 149.256C34.5754 148.689 40.2533 150.796 44.2991 155.018C46.4062 157.217 47.9924 160.014 48.8659 163.064C49.8467 165.707 48.4368 168.696 45.6936 169.47C42.598 170.42 39.3568 167.845 39.5483 164.627L39.5407 164.619Z" fill="#001615"/>
<path d="M305.643 29.6295H176.461V28.3882C176.461 25.7599 174.331 23.6298 171.703 23.6298H154.225C151.596 23.6298 149.466 25.7599 149.466 28.3882V213.79C149.466 216.418 151.596 218.548 154.225 218.548H155.129V219.789C155.129 222.417 157.259 224.548 159.887 224.548H305.635C308.264 224.548 310.394 222.417 310.394 219.789V34.3879C310.394 31.7597 308.264 29.6295 305.635 29.6295H305.643Z" fill="#001615"/>
<path d="M288.081 24.304H166.47C159.292 24.304 153.474 30.1224 153.474 37.2996V205.89C153.474 213.067 159.292 218.885 166.47 218.885H288.081C295.258 218.885 301.076 213.067 301.076 205.89V37.2996C301.076 30.1224 295.258 24.304 288.081 24.304Z" fill="#00352F"/>
<path d="M295.422 219.383H159.122C155.727 219.383 152.969 216.625 152.969 213.23V29.9513C152.969 26.5568 155.727 23.7983 159.122 23.7983H295.422C298.816 23.7983 301.575 26.5568 301.575 29.9513V213.23C301.575 216.625 298.816 219.383 295.422 219.383ZM159.122 24.8021C156.279 24.8021 153.973 27.1162 153.973 29.9513V213.23C153.973 216.073 156.287 218.379 159.122 218.379H295.422C298.265 218.379 300.571 216.073 300.571 213.23V29.9513C300.571 27.1085 298.265 24.8021 295.422 24.8021H159.122Z" fill="#0F6D6A"/>
<path d="M295.475 32.4646C296.707 32.4646 297.705 31.384 297.705 30.0509C297.705 28.7179 296.707 27.6372 295.475 27.6372C294.244 27.6372 293.246 28.7179 293.246 30.0509C293.246 31.384 294.244 32.4646 295.475 32.4646Z" fill="#2F9B74"/>
<path d="M296.74 216.74C297.971 216.74 298.969 215.659 298.969 214.326C298.969 212.993 297.971 211.912 296.74 211.912C295.508 211.912 294.51 212.993 294.51 214.326C294.51 215.659 295.508 216.74 296.74 216.74Z" fill="#2F9B74"/>
<path d="M157.872 32.5872C159.104 32.5872 160.102 31.5065 160.102 30.1735C160.102 28.8405 159.104 27.7598 157.872 27.7598C156.641 27.7598 155.643 28.8405 155.643 30.1735C155.643 31.5065 156.641 32.5872 157.872 32.5872Z" fill="#2F9B74"/>
<path d="M158.033 216.763C159.264 216.763 160.263 215.682 160.263 214.349C160.263 213.016 159.264 211.935 158.033 211.935C156.802 211.935 155.803 213.016 155.803 214.349C155.803 215.682 156.802 216.763 158.033 216.763Z" fill="#2F9B74"/>
<path d="M293.245 35.4606H163.305V213.046H293.245V35.4606Z" fill="#045B4F"/>
<path d="M294.073 213.881H162.462V34.633H294.073V213.889V213.881ZM164.133 212.219H292.41V36.2958H164.133V212.219Z" fill="#0F6D6A"/>
<path d="M274.419 61.9499C273.316 61.9499 272.419 61.0534 272.419 59.95C272.419 58.8466 273.316 57.9501 274.419 57.9501C275.523 57.9501 276.419 58.8466 276.419 59.95C276.419 61.0534 275.523 61.9499 274.419 61.9499ZM274.419 58.2872C273.5 58.2872 272.757 59.0381 272.757 59.95C272.757 60.8618 273.508 61.6127 274.419 61.6127C275.331 61.6127 276.082 60.8618 276.082 59.95C276.082 59.0381 275.331 58.2872 274.419 58.2872Z" fill="#FF9700"/>
<path d="M281.53 62.7391C279.982 62.7391 278.718 61.4824 278.718 59.927C278.718 58.3715 279.974 57.1148 281.53 57.1148C283.085 57.1148 284.342 58.3715 284.342 59.927C284.342 61.4824 283.085 62.7391 281.53 62.7391ZM281.53 57.452C280.166 57.452 279.055 58.563 279.055 59.927C279.055 61.2909 280.166 62.4019 281.53 62.4019C282.894 62.4019 284.005 61.2909 284.005 59.927C284.005 58.563 282.894 57.452 281.53 57.452Z" fill="#FF9700"/>
<path d="M181.181 97.1436C179.887 97.1436 178.829 96.0862 178.829 94.7912C178.829 93.4963 179.887 92.4388 181.181 92.4388C182.476 92.4388 183.534 93.4963 183.534 94.7912C183.534 96.0862 182.476 97.1436 181.181 97.1436ZM181.181 92.7683C180.07 92.7683 179.166 93.6725 179.166 94.7836C179.166 95.8946 180.07 96.7988 181.181 96.7988C182.293 96.7988 183.197 95.8946 183.197 94.7836C183.197 93.6725 182.293 92.7683 181.181 92.7683Z" fill="#007273"/>
<path d="M191.04 113.387L184.024 119.127L184.233 119.382L191.249 113.642L191.04 113.387Z" fill="#007273"/>
<path d="M178.419 121.448L162.531 125.348L162.61 125.668L178.498 121.768L178.419 121.448Z" fill="#007273"/>
<path d="M193.289 114.591C191.542 114.591 190.124 113.174 190.124 111.426C190.124 109.679 191.542 108.262 193.289 108.262C195.036 108.262 196.453 109.679 196.453 111.426C196.453 113.174 195.036 114.591 193.289 114.591ZM193.289 108.599C191.725 108.599 190.454 109.871 190.454 111.434C190.454 112.997 191.725 114.269 193.289 114.269C194.852 114.269 196.124 112.997 196.124 111.434C196.124 109.871 194.852 108.599 193.289 108.599Z" fill="#007273"/>
<path d="M187.289 105.595C185.542 105.595 184.124 104.178 184.124 102.431C184.124 100.684 185.542 99.2661 187.289 99.2661C189.036 99.2661 190.453 100.684 190.453 102.431C190.453 104.178 189.036 105.595 187.289 105.595ZM187.289 99.6033C185.725 99.6033 184.454 100.875 184.454 102.438C184.454 104.002 185.725 105.273 187.289 105.273C188.852 105.273 190.124 104.002 190.124 102.438C190.124 100.875 188.852 99.6033 187.289 99.6033Z" fill="#007273"/>
<path d="M181.296 123.594C179.549 123.594 178.132 122.177 178.132 120.43C178.132 118.683 179.549 117.265 181.296 117.265C183.043 117.265 184.461 118.683 184.461 120.43C184.461 122.177 183.043 123.594 181.296 123.594ZM181.296 117.595C179.733 117.595 178.461 118.867 178.461 120.43C178.461 121.993 179.733 123.265 181.296 123.265C182.86 123.265 184.132 121.993 184.132 120.43C184.132 118.867 182.86 117.595 181.296 117.595Z" fill="#007273"/>
<path d="M172.086 111.158H162.577V110.821H171.994L184.576 103.726L184.737 104.009L172.086 111.158Z" fill="#007273"/>
<path d="M170.11 101.189H163.167V100.86H170.025L179.174 95.6877L179.343 95.9789L170.11 101.189Z" fill="#007273"/>
<path d="M216.398 93.0978C215.294 93.0978 214.398 92.1936 214.398 91.0902C214.398 89.9868 215.294 89.0827 216.398 89.0827C217.501 89.0827 218.398 89.9868 218.398 91.0902C218.398 92.1936 217.501 93.0978 216.398 93.0978ZM216.398 89.4122C215.478 89.4122 214.735 90.1631 214.735 91.0902C214.735 92.0174 215.486 92.7683 216.398 92.7683C217.31 92.7683 218.061 92.0174 218.061 91.0902C218.061 90.1631 217.31 89.4122 216.398 89.4122Z" fill="#FF9700"/>
<path d="M216.375 86.7609C214.827 86.7609 213.563 85.4966 213.563 83.9334C213.563 82.3703 214.827 81.106 216.375 81.106C217.923 81.106 219.187 82.3703 219.187 83.9334C219.187 85.4966 217.931 86.7609 216.375 86.7609ZM216.375 81.4431C215.011 81.4431 213.9 82.5619 213.9 83.9334C213.9 85.305 215.011 86.4238 216.375 86.4238C217.739 86.4238 218.85 85.305 218.85 83.9334C218.85 82.5619 217.739 81.4431 216.375 81.4431Z" fill="#FF9700"/>
<path d="M280.211 68.3863C280.901 68.0338 281.705 67.9419 282.433 68.1871C282.778 68.302 283.115 68.4859 283.376 68.7924C283.973 69.4897 284.218 70.6008 283.628 71.7884L281.13 76.7767C280.778 77.4817 278.993 80.7689 278.495 81.7497C277.422 83.8798 274.265 84.0714 273.031 81.6194C272.457 80.4777 271.476 79.6118 270.296 79.0985C267.698 77.9721 267.798 74.6925 269.989 73.5738C273.391 71.8421 276.793 70.1104 280.196 68.3863H280.211Z" fill="#AAAAAA"/>
<path d="M239.508 68.4399C238.818 68.0875 238.014 67.9955 237.286 68.2407C236.941 68.3556 236.604 68.5395 236.343 68.846C235.746 69.5433 235.5 70.6544 236.09 71.8421C237.255 74.1715 238.088 75.8342 238.588 76.8303C238.941 77.5353 240.726 80.8225 241.224 81.8033C242.121 83.5963 244.496 84.0177 245.96 82.6538C247.446 81.2746 248.925 79.8953 250.412 78.5161C251.944 77.0909 251.592 74.5776 249.73 73.6351C246.328 71.9034 242.925 70.1716 239.523 68.4476L239.508 68.4399Z" fill="#AAAAAA"/>
<path d="M280.319 109.511C281.009 109.863 281.814 109.955 282.541 109.71C282.886 109.595 283.223 109.411 283.484 109.105C284.082 108.407 284.327 107.296 283.737 106.109C282.572 103.779 281.739 102.116 281.239 101.12C280.886 100.415 279.101 97.1282 278.603 96.1474C277.53 94.0173 274.373 93.8257 273.14 96.2777C272.565 97.4194 271.584 98.2853 270.404 98.7986C267.807 99.925 267.906 103.205 270.098 104.323C273.5 106.055 276.902 107.787 280.304 109.511H280.319Z" fill="#AAAAAA"/>
<path d="M238.297 110.078C237.608 110.43 236.803 110.522 236.075 110.277C235.731 110.162 235.393 109.978 235.133 109.672C234.535 108.975 234.29 107.863 234.88 106.676L237.378 101.687C237.73 100.983 239.516 97.6953 240.014 96.7145C241.087 94.5844 244.244 94.3928 245.477 96.8448C246.052 97.9865 247.033 98.8524 248.213 99.3658C250.81 100.492 250.711 103.772 248.519 104.89C245.117 106.622 241.715 108.354 238.313 110.078H238.297Z" fill="#AAAAAA"/>
<path d="M272.266 82.5236L278.641 78.8839V75.9875C278.641 74.8151 277.691 73.8726 276.526 73.8726H242.344C241.171 73.8726 240.229 74.8228 240.229 75.9875V79.1291L246.045 82.5236L245.984 96.1168L240.229 99.404V101.772C240.229 102.944 241.179 103.887 242.344 103.887H276.526C277.699 103.887 278.641 102.936 278.641 101.772V99.8791L272.205 96.1245L272.266 82.5312V82.5236Z" fill="#8C8C8C"/>
<path d="M272.265 82.5236L272.211 96.1168L278.648 99.8714V78.8839L272.265 82.5236Z" fill="#333333"/>
<path d="M246.037 82.5159L240.221 79.1214V99.3964L245.975 96.1092L246.037 82.5159Z" fill="#333333"/>
<path d="M238.106 71.5356C238.728 71.5356 239.233 71.0313 239.233 70.4092C239.233 69.7871 238.728 69.2828 238.106 69.2828C237.484 69.2828 236.98 69.7871 236.98 70.4092C236.98 71.0313 237.484 71.5356 238.106 71.5356Z" fill="#333333"/>
<path d="M281.514 71.5356C282.136 71.5356 282.64 71.0313 282.64 70.4092C282.64 69.7871 282.136 69.2828 281.514 69.2828C280.892 69.2828 280.387 69.7871 280.387 70.4092C280.387 71.0313 280.892 71.5356 281.514 71.5356Z" fill="#333333"/>
<path d="M281.514 108.461C282.136 108.461 282.64 107.957 282.64 107.335C282.64 106.713 282.136 106.208 281.514 106.208C280.892 106.208 280.387 106.713 280.387 107.335C280.387 107.957 280.892 108.461 281.514 108.461Z" fill="#333333"/>
<path d="M237.355 108.461C237.977 108.461 238.482 107.957 238.482 107.335C238.482 106.713 237.977 106.208 237.355 106.208C236.733 106.208 236.229 106.713 236.229 107.335C236.229 107.957 236.733 108.461 237.355 108.461Z" fill="#333333"/>
<path d="M264.634 78.2709H254.228C251.867 78.2709 249.953 80.1852 249.953 82.5466V94.4541C249.953 96.8155 251.867 98.7298 254.228 98.7298H264.634C266.995 98.7298 268.91 96.8155 268.91 94.4541V82.5466C268.91 80.1852 266.995 78.2709 264.634 78.2709Z" fill="#4F4F4F"/>
<path d="M263.622 80.064H255.002C253.042 80.064 251.454 81.6523 251.454 83.6117V93.9331C251.454 95.8924 253.042 97.4808 255.002 97.4808H263.622C265.581 97.4808 267.17 95.8924 267.17 93.9331V83.6117C267.17 81.6523 265.581 80.064 263.622 80.064Z" fill="#E5E5E5"/>
<path d="M261.807 125.625C263.639 125.625 265.124 124.14 265.124 122.307C265.124 120.475 263.639 118.989 261.807 118.989C259.974 118.989 258.489 120.475 258.489 122.307C258.489 124.14 259.974 125.625 261.807 125.625Z" fill="#B6C100"/>
<path d="M268.726 115.817C270.558 115.817 272.043 114.332 272.043 112.499C272.043 110.667 270.558 109.181 268.726 109.181C266.893 109.181 265.408 110.667 265.408 112.499C265.408 114.332 266.893 115.817 268.726 115.817Z" fill="#B6C100"/>
<path d="M277.668 123.893C279.501 123.893 280.986 122.408 280.986 120.575C280.986 118.743 279.501 117.258 277.668 117.258C275.836 117.258 274.351 118.743 274.351 120.575C274.351 122.408 275.836 123.893 277.668 123.893Z" fill="#B6C100"/>
<path d="M253.73 118.123C255.563 118.123 257.048 116.638 257.048 114.806C257.048 112.973 255.563 111.488 253.73 111.488C251.898 111.488 250.413 112.973 250.413 114.806C250.413 116.638 251.898 118.123 253.73 118.123Z" fill="#B6C100"/>
<path d="M260.665 156.942V160.42C260.665 161.876 259.485 163.056 258.029 163.056H198.545C197.089 163.056 195.909 161.876 195.909 160.42V156.942C195.909 155.486 197.089 154.306 198.545 154.306H258.029C259.485 154.306 260.665 155.486 260.665 156.942ZM202.231 155.624C200.499 155.624 199.089 157.026 199.089 158.765V158.857C199.089 160.589 200.491 161.999 202.231 161.999H252.221C253.952 161.999 255.362 160.597 255.362 158.857V158.765C255.362 157.034 253.96 155.624 252.221 155.624H202.231Z" fill="#11AAA2"/>
<path d="M252.221 155.624H202.238C200.503 155.624 199.097 157.03 199.097 158.765V158.85C199.097 160.585 200.503 161.991 202.238 161.991H252.221C253.956 161.991 255.362 160.585 255.362 158.85V158.765C255.362 157.03 253.956 155.624 252.221 155.624Z" fill="#88E5CF"/>
<path d="M246.443 144.728V148.735C246.443 150.191 245.263 151.371 243.807 151.371H204.008C202.553 151.371 201.373 150.191 201.373 148.735V144.728C201.373 143.272 202.553 142.092 204.008 142.092H243.807C245.263 142.092 246.443 143.272 246.443 144.728ZM205.503 143.777C204.016 143.777 202.805 144.988 202.805 146.475V147.057C202.805 148.544 204.016 149.754 205.503 149.754H241.784C243.271 149.754 244.482 148.544 244.482 147.057V146.475C244.482 144.988 243.271 143.777 241.784 143.777H205.503Z" fill="#11AAA2"/>
<path d="M241.777 143.777H205.502C204.013 143.777 202.805 144.985 202.805 146.475V147.049C202.805 148.539 204.013 149.747 205.502 149.747H241.777C243.266 149.747 244.474 148.539 244.474 147.049V146.475C244.474 144.985 243.266 143.777 241.777 143.777Z" fill="#88E5CF"/>
<path d="M168.991 42.8549V40.8933C168.991 40.0734 170.171 39.4068 171.627 39.4068H231.111C232.567 39.4068 233.747 40.0734 233.747 40.8933V42.8549C233.747 43.6748 232.567 44.3414 231.111 44.3414H171.627C170.171 44.3414 168.991 43.6748 168.991 42.8549ZM227.425 43.5981C229.157 43.5981 230.567 42.8089 230.567 41.8281V41.7745C230.567 40.7937 229.165 40.0044 227.425 40.0044H177.435C175.704 40.0044 174.294 40.7937 174.294 41.7745V41.8281C174.294 42.8089 175.696 43.5981 177.435 43.5981H227.425Z" fill="#11AAA2"/>
<path d="M174.293 41.8281V41.7745C174.293 40.7937 175.695 40.0045 177.435 40.0045H227.425C229.156 40.0045 230.566 40.7937 230.566 41.7745V41.8281C230.566 42.8089 229.164 43.5982 227.425 43.5982H177.435C175.703 43.5982 174.293 42.8089 174.293 41.8281Z" fill="#88E5CF"/>
<path d="M183.22 49.7435V47.483C183.22 46.6632 184.4 45.9965 185.856 45.9965H225.655C227.11 45.9965 228.29 46.6632 228.29 47.483V49.7435C228.29 50.5634 227.11 51.23 225.655 51.23H185.856C184.4 51.23 183.22 50.5634 183.22 49.7435ZM224.153 50.2798C225.639 50.2798 226.85 49.5979 226.85 48.7627V48.4332C226.85 47.5903 225.639 46.916 224.153 46.916H187.871C186.384 46.916 185.174 47.598 185.174 48.4332V48.7627C185.174 49.6055 186.384 50.2798 187.871 50.2798H224.153Z" fill="#11AAA2"/>
<path d="M185.182 48.7626V48.4332C185.182 47.5903 186.392 46.916 187.879 46.916H224.161C225.647 46.916 226.858 47.5979 226.858 48.4332V48.7626C226.858 49.6055 225.647 50.2798 224.161 50.2798H187.879C186.392 50.2798 185.182 49.5979 185.182 48.7626Z" fill="#88E5CF"/>
<path d="M228.858 110.622H227.632C227.118 110.622 226.697 109.955 226.697 109.128V75.4435C226.697 74.6159 227.111 73.9493 227.632 73.9493H228.858C229.371 73.9493 229.792 74.6159 229.792 75.4435V109.128C229.792 109.955 229.379 110.622 228.858 110.622ZM229.325 77.5277C229.325 76.5469 228.827 75.75 228.214 75.75H228.183C227.57 75.75 227.072 76.5469 227.072 77.5277V105.841C227.072 106.821 227.57 107.618 228.183 107.618H228.214C228.827 107.618 229.325 106.821 229.325 105.841V77.5277Z" fill="#11AAA2"/>
<path d="M233.172 102.561H231.755C231.241 102.561 230.82 101.894 230.82 101.067V78.5315C230.82 77.7039 231.234 77.0373 231.755 77.0373H233.172C233.686 77.0373 234.107 77.7039 234.107 78.5315V101.067C234.107 101.894 233.693 102.561 233.172 102.561ZM233.509 79.382C233.509 78.5391 233.08 77.8572 232.559 77.8572H232.352C231.824 77.8572 231.402 78.5391 231.402 79.382V99.9251C231.402 100.768 231.831 101.45 232.352 101.45H232.559C233.088 101.45 233.509 100.768 233.509 99.9251V79.382Z" fill="#11AAA2"/>
<path d="M228.214 107.618H228.183C227.57 107.618 227.072 106.821 227.072 105.841V77.5277C227.072 76.5469 227.57 75.75 228.183 75.75H228.214C228.827 75.75 229.325 76.5469 229.325 77.5277V105.841C229.325 106.821 228.827 107.618 228.214 107.618Z" fill="#034C4C"/>
<path d="M232.559 101.45H232.352C231.823 101.45 231.402 100.768 231.402 99.9251V79.3819C231.402 78.5391 231.831 77.8571 232.352 77.8571H232.559C233.088 77.8571 233.509 78.5391 233.509 79.3819V99.9251C233.509 100.768 233.08 101.45 232.559 101.45Z" fill="#034C4C"/>
<path d="M212.108 184.939C212.465 180.493 209.344 176.616 205.138 176.279C200.933 175.942 197.234 179.273 196.878 183.719C196.522 188.166 199.643 192.043 203.848 192.38C208.054 192.717 211.752 189.386 212.108 184.939Z" fill="#009991"/>
<path d="M204.445 193.239C204.231 193.239 204.016 193.231 203.794 193.216C199.135 192.84 195.664 188.557 196.055 183.661C196.446 178.764 200.56 175.086 205.212 175.462C209.87 175.837 213.341 180.121 212.951 185.017C212.575 189.683 208.828 193.246 204.445 193.246V193.239ZM204.576 177.102C201.051 177.102 198.032 179.998 197.725 183.799C197.404 187.775 200.193 191.262 203.932 191.561C207.679 191.867 210.981 188.864 211.296 184.887C211.617 180.91 208.828 177.423 205.089 177.125C204.913 177.109 204.744 177.102 204.576 177.102Z" fill="#003534"/>
<path d="M209.836 184.606C210.084 181.51 207.908 178.809 204.977 178.574C202.045 178.339 199.467 180.659 199.219 183.755C198.971 186.852 201.147 189.552 204.078 189.787C207.01 190.022 209.588 187.702 209.836 184.606Z" fill="#81FCF9"/>
<path d="M204.491 190.649C204.33 190.649 204.177 190.649 204.016 190.634C202.369 190.503 200.875 189.699 199.817 188.381C198.768 187.078 198.262 185.415 198.4 183.707C198.683 180.159 201.672 177.492 205.051 177.761C206.698 177.891 208.192 178.695 209.25 180.013C210.3 181.316 210.805 182.979 210.667 184.687C210.399 188.067 207.671 190.649 204.491 190.649ZM204.576 179.408C202.254 179.408 200.262 181.324 200.055 183.837C199.955 185.124 200.323 186.366 201.112 187.339C201.886 188.296 202.967 188.879 204.147 188.971C206.614 189.17 208.79 187.185 209.005 184.557C209.104 183.27 208.736 182.029 207.947 181.055C207.173 180.098 206.093 179.515 204.913 179.423C204.798 179.416 204.683 179.408 204.576 179.408Z" fill="#003534"/>
<path d="M194.665 183.489C195.116 181.743 194.143 179.982 192.492 179.556C190.841 179.129 189.136 180.198 188.685 181.943C188.234 183.689 189.207 185.45 190.858 185.876C192.51 186.303 194.214 185.234 194.665 183.489Z" fill="#81FCF9"/>
<path d="M195.991 191.338C196.346 189.961 195.499 188.551 194.098 188.189C192.696 187.827 191.272 188.65 190.916 190.026C190.56 191.403 191.408 192.813 192.809 193.175C194.21 193.537 195.635 192.714 195.991 191.338Z" fill="#81FCF9"/>
<path d="M189.551 189.022C189.859 187.829 189.136 186.611 187.935 186.301C186.735 185.991 185.512 186.706 185.203 187.898C184.895 189.09 185.619 190.308 186.819 190.619C188.02 190.929 189.243 190.214 189.551 189.022Z" fill="#81FCF9"/>
<path d="M177.757 211.882H176.761V177.738L163.114 167.064L163.727 166.275L177.757 177.255V211.882Z" fill="#64BCBA"/>
<path d="M172.86 211.736H171.856V180.948L163.098 173.485L163.742 172.726L172.86 180.481V211.736Z" fill="#64BCBA"/>
<path d="M269.178 50.8622H285.997V39.4758H269.178V50.8622Z" fill="#EF9F00"/>
<path d="M287.001 51.866H268.182V38.4797H287.001V51.866ZM270.174 49.8661H284.993V40.4719H270.174V49.8661Z" fill="#BA5800"/>
<path d="M254.71 48.5865H266.15V39.4758H254.71V48.5865Z" fill="#EF9F00"/>
<path d="M267.147 49.5826H253.707V38.472H267.147V49.5826ZM255.707 47.5827H265.147V40.4719H255.707V47.5827Z" fill="#BA5800"/>
<path d="M242.597 46.6708H251.347V39.7056H242.597V46.6708Z" fill="#EF9F00"/>
<path d="M252.343 47.667H241.601V38.7019H252.343V47.667ZM243.601 45.6671H250.351V40.7018H243.601V45.6671Z" fill="#BA5800"/>
<path d="M258.956 198.687H246.137V197.691H258.688L275.622 187.806V176.274H276.626V188.381L258.956 198.687Z" fill="#00BAB5"/>
<path d="M259.248 200.71H247.578V199.714H258.98C262.083 197.89 265.171 196.089 268.259 194.289C271.286 192.526 274.32 190.756 277.355 188.971C277.355 186.726 277.393 184.71 277.423 182.757C277.462 180.726 277.492 178.634 277.492 176.274H278.489C278.489 178.642 278.45 180.741 278.42 182.772C278.381 184.802 278.351 186.894 278.351 189.254V189.538L278.105 189.683C274.979 191.522 271.868 193.331 268.757 195.147C265.631 196.97 262.505 198.794 259.363 200.641L259.248 200.71Z" fill="#00BAB5"/>
<path d="M259.821 203.3H247.86V202.304H259.553L282.832 188.963V176.42H283.828V189.538L259.821 203.3Z" fill="#00BAB5"/>
<path d="M259.814 205.031H247.86V204.035H259.553L284.564 189.821V176.42H285.56V190.404L259.814 205.031Z" fill="#00BAB5"/>
<path d="M228.329 202.947H247.141V205.016C247.141 206.418 246.014 207.56 244.627 207.56H225.142C223.755 207.56 222.628 206.418 222.628 205.016V198.564C222.628 197.162 223.755 196.02 225.142 196.02H244.627C246.014 196.02 247.141 197.162 247.141 198.564V199.767H228.329V202.94V202.947Z" fill="#C99400"/>
<path d="M275.568 175.431H271.484V150.873H275.568V175.431ZM271.821 175.094H275.239V151.202H271.821V175.094Z" fill="#003A38"/>
<path d="M289.261 175.577H285.177V151.019H289.261V175.577ZM285.514 175.24H288.931V151.348H285.514V175.24Z" fill="#003A38"/>
<path d="M273.239 174.542C273.556 174.542 273.813 174.35 273.813 174.113C273.813 173.876 273.556 173.684 273.239 173.684C272.921 173.684 272.664 173.876 272.664 174.113C272.664 174.35 272.921 174.542 273.239 174.542Z" fill="#003A38"/>
<path d="M287.223 174.68C287.541 174.68 287.798 174.488 287.798 174.251C287.798 174.014 287.541 173.822 287.223 173.822C286.906 173.822 286.648 174.014 286.648 174.251C286.648 174.488 286.906 174.68 287.223 174.68Z" fill="#003A38"/>
<path d="M287.223 153.057C287.541 153.057 287.798 152.865 287.798 152.628C287.798 152.391 287.541 152.199 287.223 152.199C286.906 152.199 286.648 152.391 286.648 152.628C286.648 152.865 286.906 153.057 287.223 153.057Z" fill="#003A38"/>
<path d="M273.094 152.766C273.411 152.766 273.668 152.573 273.668 152.337C273.668 152.1 273.411 151.907 273.094 151.907C272.776 151.907 272.519 152.1 272.519 152.337C272.519 152.573 272.776 152.766 273.094 152.766Z" fill="#003A38"/>
<path d="M290.687 173.247H285.637V176.565H274.68V173.247H270.213V153.639H274.68V149.455H285.637V153.639H290.687V173.247Z" fill="#003A38"/>
<path d="M245.462 209.499H221.716C220.352 209.499 219.249 208.395 219.249 207.031V197.99C219.249 196.626 220.352 195.522 221.716 195.522H245.462C246.826 195.522 247.93 196.626 247.93 197.99V207.031C247.93 208.395 246.826 209.499 245.462 209.499ZM221.716 196.526C220.904 196.526 220.245 197.185 220.245 197.997V207.039C220.245 207.851 220.904 208.51 221.716 208.51H245.462C246.275 208.51 246.934 207.851 246.934 207.039V197.997C246.934 197.185 246.275 196.526 245.462 196.526H221.716Z" fill="#64BCBA"/>
<path d="M187.496 148.459H187.764V147.616H177.542V148.567H178.216V166.175H177.542V167.324H187.764V166.068H187.496V148.459Z" fill="#EF8E00"/>
<path d="M192.476 150.03H190.998V164.282H192.476V150.03Z" fill="#EF8E00"/>
<path d="M174.723 150.03H173.374V164.282H174.723V150.03Z" fill="#EF8E00"/>
<path d="M178.216 148.567H177.542V150.03H174.722V164.282H177.542V166.175H178.216V148.567Z" fill="#EF8E00"/>
<path d="M187.764 150.03V148.459H187.496V166.068H187.764V164.282H190.997V150.03H187.764Z" fill="#EF8E00"/>
<path d="M176.201 149.716C176.498 149.716 176.738 149.575 176.738 149.402C176.738 149.228 176.498 149.088 176.201 149.088C175.905 149.088 175.665 149.228 175.665 149.402C175.665 149.575 175.905 149.716 176.201 149.716Z" fill="#EF8E00"/>
<path d="M189.243 149.609C189.539 149.609 189.779 149.468 189.779 149.294C189.779 149.121 189.539 148.98 189.243 148.98C188.947 148.98 188.707 149.121 188.707 149.294C188.707 149.468 188.947 149.609 189.243 149.609Z" fill="#EF8E00"/>
<path d="M189.243 165.332C189.539 165.332 189.779 165.191 189.779 165.018C189.779 164.844 189.539 164.704 189.243 164.704C188.947 164.704 188.707 164.844 188.707 165.018C188.707 165.191 188.947 165.332 189.243 165.332Z" fill="#EF8E00"/>
<path d="M176.064 165.539C176.36 165.539 176.6 165.398 176.6 165.225C176.6 165.051 176.36 164.911 176.064 164.911C175.767 164.911 175.527 165.051 175.527 165.225C175.527 165.398 175.767 165.539 176.064 165.539Z" fill="#EF8E00"/>
<path d="M110.388 116.499C110.197 117.311 109.76 118.032 109.162 118.568V143.272C109.538 143.609 109.852 144.015 110.074 144.475H130.816V116.499H110.388Z" fill="#0F6D6A"/>
<path d="M132.985 146.643H108.733L108.135 145.44C108.028 145.233 107.89 145.042 107.714 144.889L106.994 144.245V117.61L107.714 116.966C107.997 116.714 108.189 116.384 108.273 116.024L108.664 114.346H132.985V146.651V146.643ZM111.323 142.306H128.648V118.668H111.836C111.683 118.928 111.515 119.181 111.323 119.418V142.306Z" fill="#00352F"/>
<path d="M119.323 135.586C119.323 135.586 119.261 135.54 119.215 135.51C118.518 135.341 117.813 135.364 117.062 135.379C114.127 135.51 111.147 136.092 108.304 136.919C102.71 138.575 97.3082 141.142 93.8525 146C87.7301 154.122 86.9869 163.539 93.2395 171.738C95.3773 174.657 97.9595 177.132 101.254 178.573C107.223 181.285 113.936 181.132 119.093 177.186C126.594 171.155 129.92 156.014 133.866 147.072C136.096 141.701 140.019 136.988 145.061 134.061C155.037 128.154 168.462 128.981 177.542 136.192C183.396 140.804 186.454 147.8 187.388 155.064H178.531C179.189 151.494 178.791 147.8 177.213 144.574C176.431 142.958 175.351 141.471 174.04 140.176C167.182 133.425 155.466 133.004 147.559 138.13C142.624 141.203 139.544 146.36 138.356 151.969C135.506 163.47 133.759 178.151 122.932 185.316C115.315 190.373 105.492 190.089 97.6914 185.706C95.5075 184.549 93.4463 183.017 91.7376 181.255C86.8183 176.075 83.2859 169.416 82.9564 162.221C82.5886 153.7 86.6114 145.563 92.4196 139.555C95.4462 136.483 99.2085 134.284 102.994 132.314C107.001 130.268 111.07 128.491 115.338 126.966C116.595 126.537 117.959 126.069 119.323 125.916V135.579V135.586Z" fill="#001E1C"/>
<path d="M189.618 154.076H176.96V157.738H189.618V154.076Z" fill="#FFE600"/>
<path d="M122.15 123.924H118.487V136.253H122.15V123.924Z" fill="#00BCB7"/>
<path d="M176.799 79.6119C180.849 79.6119 184.132 76.3288 184.132 72.2789C184.132 68.229 180.849 64.9459 176.799 64.9459C172.749 64.9459 169.466 68.229 169.466 72.2789C169.466 76.3288 172.749 79.6119 176.799 79.6119Z" fill="#D13B00"/>
<path d="M176.799 80.9451C172.025 80.9451 168.133 77.0603 168.133 72.2789C168.133 67.4975 172.018 63.6126 176.799 63.6126C181.58 63.6126 185.465 67.4975 185.465 72.2789C185.465 77.0603 181.58 80.9451 176.799 80.9451ZM176.799 66.2868C173.489 66.2868 170.799 68.9763 170.799 72.2865C170.799 75.5967 173.489 78.2863 176.799 78.2863C180.109 78.2863 182.799 75.5967 182.799 72.2865C182.799 68.9763 180.109 66.2868 176.799 66.2868Z" fill="#330F01"/>
<path d="M130.816 81.6118C135.048 81.6118 138.479 78.1812 138.479 73.9493C138.479 69.7174 135.048 66.2868 130.816 66.2868C126.584 66.2868 123.154 69.7174 123.154 73.9493C123.154 78.1812 126.584 81.6118 130.816 81.6118Z" fill="#FF9700"/>
<path d="M174.967 73.6121C176.715 73.6121 178.132 72.1952 178.132 70.4475C178.132 68.6997 176.715 67.2829 174.967 67.2829C173.22 67.2829 171.803 68.6997 171.803 70.4475C171.803 72.1952 173.22 73.6121 174.967 73.6121Z" fill="#F9A287"/>
<path d="M179.266 77.1292C180.146 77.1292 180.86 76.4156 180.86 75.5354C180.86 74.6552 180.146 73.9416 179.266 73.9416C178.386 73.9416 177.672 74.6552 177.672 75.5354C177.672 76.4156 178.386 77.1292 179.266 77.1292Z" fill="#F9A287"/>
<path d="M128.441 75.3286C130.189 75.3286 131.606 73.9118 131.606 72.164C131.606 70.4162 130.189 68.9994 128.441 68.9994C126.693 68.9994 125.276 70.4162 125.276 72.164C125.276 73.9118 126.693 75.3286 128.441 75.3286Z" fill="#F4DCA6"/>
<path d="M132.74 78.8457C133.62 78.8457 134.334 78.1321 134.334 77.2519C134.334 76.3716 133.62 75.6581 132.74 75.6581C131.86 75.6581 131.146 76.3716 131.146 77.2519C131.146 78.1321 131.86 78.8457 132.74 78.8457Z" fill="#F4DCA6"/>
</svg>
