<svg width="210" height="307" viewBox="0 0 210 307" fill="none" xmlns="http://www.w3.org/2000/svg">
<path d="M203.335 59.9577C195.83 43.1435 186.233 31.3838 177.406 24.084C169.593 17.6249 155.486 5.44481 124.216 1.75389C116.618 0.851659 110.19 0.0622107 105.576 0.33903C100.973 0.000695229 94.5344 0.636355 86.927 1.4258C55.6156 4.70663 41.344 16.6919 33.4496 23.0485C24.5196 30.2355 14.7694 41.8619 7.04919 58.5736C-8.0836 91.3204 5.33701 124.774 9.26375 132.126C18.5321 149.473 20.4801 147.894 33.4393 171.701C48.2338 198.89 52.3963 217.15 56.4051 230.15C57.7994 234.651 58.9682 238.701 59.9115 242.136C62.003 249.671 66.1655 256.51 72.0813 261.626C72.3273 261.841 72.5734 262.046 72.8297 262.261C85.2353 272.494 99.5582 272.719 103.782 272.545V272.658C107.996 272.883 122.329 272.811 134.868 262.743C135.124 262.538 135.381 262.333 135.627 262.118C141.614 257.084 145.869 250.297 148.053 242.792C149.047 239.368 150.278 235.328 151.723 230.848C155.906 217.909 160.315 199.7 175.458 172.705C188.725 149.073 190.652 150.672 200.156 133.448C204.186 126.148 218.047 92.8787 203.345 59.9372L203.335 59.9577Z" fill="#001E1D"/>
<path d="M122.412 277.774C121.694 276.554 120.392 275.969 120.156 275.867C117.757 274.831 115.502 276.195 112.641 276.964C110.611 277.517 109.955 277.476 103.711 277.251C96.8729 277.394 96.8114 277.507 94.7814 276.964C91.9209 276.195 89.6653 274.831 87.2662 275.867C87.0304 275.969 85.7283 276.554 85.0107 277.774C82.7654 281.577 87.0202 290.005 93.5716 293.624C96.9344 295.48 100.349 295.767 102.819 295.654C103.424 295.623 104.029 295.623 104.634 295.654C107.095 295.767 110.519 295.48 113.882 293.624C120.433 290.005 124.688 281.577 122.443 277.774H122.412Z" fill="#001E1D"/>
<path d="M103.701 306.532C105.808 306.532 107.515 304.719 107.515 302.482C107.515 300.246 105.808 298.433 103.701 298.433C101.595 298.433 99.8872 300.246 99.8872 302.482C99.8872 304.719 101.595 306.532 103.701 306.532Z" fill="#001E1D"/>
<path d="M199.009 92.0996C197.881 74.8035 191.781 62.5107 190.027 59.1273C180.995 41.78 168.056 32.6039 161.72 28.2158C139.605 12.9087 116.722 10.93 106.12 10.7249C95.5192 10.7864 71.4769 12.4371 49.1571 27.4469C42.7697 31.7427 29.6977 40.7444 20.4294 57.9585C18.6249 61.3214 12.3606 73.5219 10.9867 90.7975C9.44886 110.185 14.9545 124.775 18.1533 132.966C23.8332 147.535 31.779 158.464 38.5457 166.01C45.015 178.498 49.0443 189.089 51.4947 196.378C56.6517 211.645 56.9695 218.401 62.2394 229.361C66.607 238.455 70.749 246.965 80.4889 254.5C87.8708 260.201 96.6982 263.071 102.614 263.728V263.861C102.993 263.861 103.383 263.861 103.803 263.83C104.213 263.861 104.613 263.871 104.993 263.871V263.738C110.919 263.154 119.787 260.406 127.251 254.808C137.104 247.416 141.358 238.968 145.849 229.925C151.262 219.037 151.683 212.29 157.045 197.096C159.608 189.848 163.771 179.318 170.414 166.913C177.283 159.449 185.373 148.632 191.258 134.145C194.569 125.995 200.28 111.487 199.009 92.0791V92.0996Z" fill="#FFA435"/>
<path d="M193.636 92.6327C192.436 76.0953 186.531 64.3767 184.818 61.1573C176.063 44.6199 163.626 35.9258 157.536 31.7735C136.273 17.2763 114.373 15.5334 104.233 15.4001C94.0934 15.5231 71.1072 17.2763 49.8433 31.7735C43.7533 35.9258 31.3169 44.6199 22.5612 61.1573C20.8491 64.3767 14.9436 76.1056 13.744 92.6327C12.4009 111.19 17.763 125.113 20.8798 132.925C26.4162 146.818 34.0851 157.224 40.6058 164.401C46.8803 176.304 50.7968 186.413 53.1959 193.364C58.2299 207.933 58.5785 214.392 63.6843 224.84C67.9186 233.513 71.9376 241.633 81.3085 248.759C88.4033 254.162 96.8719 256.848 102.542 257.443V257.576C102.9 257.576 103.28 257.566 103.68 257.545C104.079 257.566 104.459 257.576 104.818 257.576V257.443C110.487 256.848 118.946 254.162 126.051 248.759C135.422 241.623 139.441 233.513 143.675 224.84C148.781 214.392 149.139 207.933 154.163 193.364C156.562 186.413 160.479 176.314 166.753 164.401C173.274 157.224 180.943 146.818 186.479 132.925C189.596 125.113 194.958 111.19 193.615 92.6327H193.636Z" fill="#F4952F"/>
<path d="M188.5 115.383C174.136 162.289 150.186 193.969 103.434 193.969C56.6823 193.969 35.8388 165.016 19.1886 115.383C3.03056 67.2063 57.8921 19.091 104.644 19.091C151.396 19.091 203.366 66.8372 188.5 115.383Z" fill="#FFC248"/>
<path d="M188.5 115.383C174.136 162.289 150.186 193.969 103.434 193.969C56.6823 193.969 35.8388 165.016 19.1886 115.383C3.03056 67.2063 57.8921 19.091 104.644 19.091C151.396 19.091 203.366 66.8372 188.5 115.383Z" fill="#FFC248"/>
<path opacity="0.63" d="M102.645 153.143C135.192 153.143 161.576 126.759 161.576 94.2116C161.576 61.6645 135.192 35.2798 102.645 35.2798C70.0975 35.2798 43.7129 61.6645 43.7129 94.2116C43.7129 126.759 70.0975 153.143 102.645 153.143Z" fill="#FCE8CD"/>
<g style="mix-blend-mode:overlay">
<mask id="mask0_62_1284" style="mask-type:luminance" maskUnits="userSpaceOnUse" x="0" y="0" width="210" height="273">
<path d="M203.315 59.7117C195.81 42.8975 186.213 31.1378 177.386 23.838C169.573 17.3788 155.466 5.19878 124.196 1.50785C116.598 0.605626 110.17 -0.183822 105.556 0.0929974C100.953 -0.245337 94.5144 0.390322 86.907 1.17977C55.5956 4.46059 41.324 16.4459 33.4295 22.8024C24.4996 29.9895 14.7494 41.6159 7.02917 58.3276C-8.10362 91.0743 5.31699 124.528 9.24373 131.88C18.5121 149.227 20.46 147.648 33.4193 171.454C48.2138 198.644 52.3763 216.904 56.3851 229.904C57.7794 234.405 58.9482 238.455 59.8914 241.89C61.983 249.425 66.1455 256.264 72.0612 261.38C72.3073 261.595 72.5534 261.8 72.8097 262.015C85.2153 272.248 99.5381 272.473 103.762 272.299V272.412C107.976 272.637 122.309 272.565 134.848 262.497C135.104 262.292 135.361 262.087 135.607 261.872C141.594 256.838 145.849 250.051 148.033 242.546C149.027 239.121 150.258 235.082 151.703 230.602C155.886 217.663 160.295 199.454 175.438 172.459C188.705 148.827 190.632 150.426 200.136 133.202C204.166 125.902 218.027 92.6327 203.325 59.6912L203.315 59.7117Z" fill="white"/>
</mask>
<g mask="url(#mask0_62_1284)">
<path d="M122.709 238.322H121.951C120.495 238.322 119.193 237.389 118.752 235.994C118.321 234.631 117.768 233.329 117.122 232.078C116.445 230.766 116.681 229.176 117.716 228.131L118.229 227.618C121.007 224.983 115.82 221.774 114.302 219.959C114.21 219.847 114.097 219.734 113.984 219.631C112.559 218.411 111.062 219.303 109.801 220.472C108.756 221.436 107.228 221.631 105.957 220.985C104.767 220.38 103.527 219.867 102.245 219.447C100.861 218.996 99.9076 217.724 99.8871 216.268C99.8666 214.269 99.4975 212.198 97.2009 212.26C91.8388 212.29 88.8553 211.286 88.7425 216.309C88.7118 217.745 87.789 219.006 86.4152 219.457C85.1336 219.877 83.8931 220.39 82.7038 221.005C81.4632 221.641 79.9561 221.436 78.9308 220.493C75.527 217.335 73.7123 220.482 70.3186 223.855C68.75 225.373 69.7548 227.003 71.0158 228.356C71.9898 229.392 72.1846 230.919 71.5387 232.18C70.9338 233.36 70.4212 234.59 70.0111 235.861C69.5702 237.225 68.3194 238.168 66.884 238.209C64.9873 238.26 63.0701 238.681 63.1213 240.895C63.1521 245.796 62.1576 249.2 66.9148 249.364C68.3194 249.415 69.5497 250.348 69.9803 251.681C70.4007 252.993 70.9236 254.254 71.549 255.454C72.1846 256.684 72.0001 258.181 71.0876 259.227C69.765 260.744 68.6167 262.569 70.4109 264.066C73.743 266.855 75.7935 270.177 78.859 267.234C79.9048 266.229 81.4529 265.973 82.7345 266.629C83.9443 267.244 85.2054 267.767 86.5075 268.188C87.8711 268.628 88.7938 269.889 88.8245 271.325C88.8656 273.252 89.2654 275.231 91.5107 275.169C96.6678 275.098 99.8153 276.195 99.9691 271.284C100.01 269.859 100.923 268.598 102.286 268.157C103.691 267.695 105.034 267.121 106.326 266.445C107.607 265.768 109.166 265.993 110.222 266.988C111.595 268.29 113.256 269.346 114.774 267.747C118.413 264.117 121.315 262.467 117.942 258.94C116.968 257.914 116.712 256.397 117.337 255.126C117.88 254.018 118.352 252.86 118.742 251.671C119.172 250.328 120.382 249.395 121.787 249.343C123.458 249.271 125.129 248.882 125.334 247.139C125.365 246.913 125.354 246.698 125.334 246.473C125.078 244.073 126.564 238.229 122.709 238.332V238.322ZM94.3712 258.509C86.2614 258.509 79.6793 251.927 79.6793 243.817C79.6793 235.707 86.2614 229.125 94.3712 229.125C102.481 229.125 109.063 235.707 109.063 243.817C109.063 251.927 102.481 258.509 94.3712 258.509Z" fill="#011F26"/>
<path d="M186.131 170.132L185.085 170.563C183.075 171.393 180.758 170.839 179.354 169.189C177.98 167.569 176.483 166.072 174.884 164.719C173.202 163.293 172.618 160.966 173.458 158.936L173.869 157.942C176.196 152.733 167.225 151.267 164.098 149.627C163.903 149.524 163.688 149.432 163.472 149.36C160.817 148.489 159.259 150.57 158.182 152.897C157.29 154.825 155.301 155.963 153.189 155.799C151.21 155.645 149.211 155.645 147.202 155.799C145.038 155.973 142.998 154.763 142.147 152.764C140.978 150.027 139.297 147.381 136.16 148.776C128.798 151.882 124.103 152.19 126.819 159.182C127.599 161.181 127.035 163.447 125.405 164.842C123.877 166.154 122.462 167.569 121.17 169.086C119.827 170.665 117.623 171.239 115.685 170.522C109.195 168.112 108.488 173.474 105.74 180.067C104.448 183.05 106.745 184.721 109.267 185.859C111.195 186.731 112.333 188.72 112.169 190.822C112.015 192.79 112.004 194.769 112.169 196.768C112.333 198.901 111.154 200.91 109.195 201.782C106.612 202.93 104.202 204.611 105.545 207.626C108.385 214.362 108.959 219.621 115.593 217.13C117.551 216.392 119.786 216.986 121.14 218.575C122.462 220.134 123.908 221.579 125.446 222.892C127.014 224.235 127.609 226.388 126.953 228.346C125.999 231.196 125.456 234.364 128.778 235.4C134.95 237.338 139.676 240.752 142.229 234.949C143.09 232.98 145.079 231.729 147.222 231.904C149.232 232.068 151.272 232.068 153.312 231.904C155.445 231.729 157.444 232.949 158.295 234.897C159.453 237.532 161.135 240.034 164.19 238.67C171.254 235.636 176.216 235.349 173.622 228.5C172.864 226.511 173.417 224.255 175.027 222.881C176.698 221.456 178.236 219.898 179.61 218.227C180.984 216.566 183.27 215.992 185.29 216.761C187.935 217.776 190.806 218.278 191.985 215.212C194.927 208.148 197.993 204.211 191.339 201.269C189.411 200.418 188.181 198.46 188.325 196.358C188.448 194.513 188.437 192.657 188.284 190.791C188.109 188.699 189.247 186.721 191.154 185.839C193.42 184.793 195.491 183.296 194.794 180.784C194.702 180.467 194.568 180.159 194.404 179.872C192.692 176.714 191.4 167.815 186.141 170.152L186.131 170.132ZM158.582 214.085C147.407 218.709 134.591 213.398 129.967 202.212C125.343 191.037 130.654 178.221 141.839 173.597C153.015 168.973 165.83 174.284 170.454 185.47C175.078 196.645 169.767 209.461 158.582 214.085Z" fill="#011F26"/>
<path d="M100.676 164.944H99.4865C97.1899 164.944 95.1497 163.468 94.4525 161.284C93.7656 159.141 92.9146 157.091 91.8996 155.122C90.8333 153.061 91.2024 150.55 92.8428 148.909L93.6528 148.099C98.0306 143.957 89.8696 138.913 87.4705 136.052C87.3167 135.868 87.1526 135.694 86.9681 135.54C84.733 133.623 82.3749 135.027 80.3859 136.852C78.7455 138.369 76.3362 138.677 74.3472 137.662C72.4812 136.709 70.523 135.899 68.5032 135.253C66.3194 134.545 64.8225 132.546 64.7918 130.26C64.761 127.122 64.1766 123.852 60.5575 123.954C52.1299 124.006 47.4239 122.416 47.2496 130.331C47.1984 132.597 45.7425 134.586 43.5895 135.283C41.5697 135.94 39.6115 136.76 37.7455 137.713C35.7975 138.708 33.4189 138.39 31.8195 136.903C26.4574 131.941 23.6072 136.883 18.2656 142.194C15.805 144.583 17.3736 147.135 19.3729 149.268C20.9005 150.898 21.2081 153.297 20.1931 155.276C19.2499 157.132 18.4399 159.059 17.7837 161.069C17.0866 163.222 15.1283 164.708 12.8625 164.76C9.87901 164.842 6.8545 165.498 6.94677 168.984C6.99804 176.694 5.43965 182.056 12.9138 182.302C15.1283 182.374 17.0558 183.85 17.7427 185.952C18.4092 188.012 19.2294 190.001 20.2034 191.898C21.1978 193.836 20.9108 196.184 19.4754 197.824C17.3941 200.213 15.5794 203.094 18.4092 205.442C23.6482 209.82 26.8778 215.059 31.7067 210.435C33.3471 208.866 35.7873 208.446 37.807 209.481C39.7037 210.445 41.6927 211.275 43.7433 211.932C45.886 212.619 47.3522 214.608 47.3932 216.863C47.4547 219.898 48.0903 223.015 51.6172 222.912C59.727 222.799 64.6893 224.522 64.9148 216.802C64.9763 214.556 66.4219 212.588 68.5545 211.891C70.7588 211.173 72.8811 210.271 74.9111 209.194C76.9206 208.128 79.3812 208.487 81.0319 210.055C83.1952 212.106 85.7993 213.767 88.1882 211.245C93.9091 205.544 98.4817 202.94 93.1812 197.383C91.6433 195.774 91.2332 193.374 92.2277 191.375C93.0889 189.632 93.8271 187.807 94.432 185.931C95.1086 183.819 97.0156 182.353 99.2302 182.261C101.865 182.158 104.49 181.533 104.818 178.795C104.859 178.447 104.849 178.098 104.818 177.75C104.418 173.977 106.745 164.78 100.686 164.934L100.676 164.944ZM56.0771 196.696C43.3126 196.696 32.9678 186.352 32.9678 173.587C32.9678 160.823 43.3126 150.478 56.0771 150.478C68.8415 150.478 79.1864 160.823 79.1864 173.587C79.1864 186.352 68.8415 196.696 56.0771 196.696Z" fill="#011F26"/>
</g>
</g>
<path d="M126.768 255.413C120.248 246.862 118.997 221.169 118.269 209.932C117.674 198.798 117.5 187.674 117.838 176.54C118.074 169.886 117.982 160.7 118.771 154.138C119.243 150.662 119.735 146.941 121.745 143.855C124.544 139.723 129.096 141.199 131.28 144.89C132.418 146.736 132.971 148.561 133.617 150.478C134.458 153.246 135.093 156.137 135.463 158.926C136.683 166.287 141.04 168.338 147.325 164.226C150.011 162.473 154.409 158.259 154.481 155.02C154.44 154.845 154.42 154.866 154.399 154.866C153.005 154.374 151.026 155.061 149.539 155.522C147.909 156.086 146.279 156.804 144.669 157.583L145.818 156.24C145.151 160.187 146.084 164.257 146.228 168.338C146.351 171.793 146.453 175.853 144.331 179.093C143.521 180.333 142.24 181.41 140.845 181.994L141.337 181.707C140.825 182.107 140.097 182.281 139.584 182.25C138.231 182.189 137.38 181.348 136.631 180.559C135.319 179.113 134.284 177.555 133.207 176.027C132.1 174.407 130.121 171.752 129.178 170.86C124.339 167.538 116.28 168.943 111.287 171.465C109.462 172.449 107.719 173.977 107.237 176.048L103.126 172.336C104.438 171.68 105.587 171.075 106.725 170.532C113.153 167.2 120.35 164.688 127.681 166.051C128.942 166.328 130.244 166.759 131.485 167.528C132.715 168.42 133.648 169.425 134.53 170.388C136.56 172.552 138.508 175.535 140.579 177.596C140.599 177.616 140.609 177.596 140.415 177.504C139.912 177.257 139.01 177.329 138.436 177.78L138.928 177.493C141.768 176.191 141.491 171.424 141.512 168.512C141.501 164.093 140.671 159.521 141.85 155.061C142.024 154.466 142.455 154.015 142.978 153.8C144.731 153.061 146.525 152.385 148.422 151.841C150.554 151.298 152.461 150.785 154.819 151.257C157.352 151.78 158.49 154.271 157.731 156.629C156.993 159.172 155.26 161.304 153.548 163.088C152.164 164.493 150.626 165.723 148.934 166.769C140.917 171.69 134.499 168.645 132.787 159.459C132.305 156.763 131.802 154.21 130.388 151.893C129.25 150.047 127.558 147.853 125.969 146.582C125.825 146.479 125.794 146.51 125.948 146.52C126.112 146.541 126.307 146.438 126.256 146.449C125.374 147.269 124.943 148.622 124.482 149.832C123.939 151.421 123.477 153.143 123.098 154.886C122.319 158.382 121.734 162.002 121.345 165.631C120.494 172.921 120.668 180.303 120.945 187.623C121.56 202.233 123.077 216.955 126.215 231.207C127.64 237.122 129.055 243.182 132.151 248.349C132.541 248.954 132.971 249.477 133.31 249.764L126.799 255.433L126.768 255.413Z" fill="#844609"/>
<path d="M73.9884 248.933C76.0697 246.78 77.1462 243.653 78.2227 240.772C81.6573 230.54 83.3387 219.703 84.6921 208.938C85.9429 198.05 86.6503 187.069 86.6503 176.099C86.5273 167.159 85.5943 157.962 82.8466 149.473C82.416 148.355 81.9649 147.074 81.1857 146.387C81.2165 146.428 81.4933 146.479 81.5753 146.449C80.5706 147.135 79.2992 148.725 78.3765 149.904C76.7361 151.964 75.6493 154.333 75.1264 156.916C74.1832 163.17 71.7123 170.142 63.9921 168.912C58.4045 167.835 52.8271 163.119 50.264 158.095C48.8491 155.368 49.2387 151.954 52.6836 151.195C55.0314 150.755 56.9281 151.257 59.0401 151.811C60.9266 152.344 62.7106 153.031 64.4535 153.759C65.0482 154.005 65.4583 154.517 65.6018 155.102C66.7398 159.541 65.9299 164.083 65.9094 168.471C65.8991 171.27 65.7966 174.089 67.1294 176.325C67.5703 177.052 68.288 177.34 68.9851 177.739C68.37 177.227 67.3037 177.216 66.8424 177.555C67.3242 177.155 67.7958 176.54 68.2675 175.986C70.6563 173.095 72.7786 169.937 75.8236 167.569C78.1715 166.062 80.8474 165.672 83.4823 165.641C88.3523 165.652 93.0069 166.861 97.3848 168.912C99.7429 170.009 101.855 171.065 104.285 172.306L100.173 176.017C98.9842 171.721 93.9091 170.234 90.0234 169.343C86.1274 168.645 81.5445 168.502 78.233 170.819C76.408 172.634 73.9987 176.417 72.0609 178.97C70.9331 180.313 69.8874 182.045 67.8266 182.22C67.3242 182.25 66.5963 182.076 66.0734 181.676L66.5655 181.963C63.8384 180.897 62.0339 177.944 61.552 175.279C60.6498 170.634 61.3982 166.349 61.6956 161.899C61.8288 160.023 61.9724 157.942 61.593 156.209L62.7413 157.552C60.3832 156.424 57.9944 155.358 55.4825 154.835C54.5495 154.661 53.6473 154.548 53.0116 154.835C52.9911 154.845 52.9706 154.815 52.9296 154.979C52.8578 155.481 53.0629 156.178 53.309 156.722C55.2877 161.263 63.6025 168.83 68.7083 165.426C71.374 163.488 71.8764 159.49 72.3377 156.363C72.6966 154.476 73.1579 152.6 73.7116 150.693C74.7471 147.617 75.5365 144.644 78.274 142.45C80.55 140.635 83.6873 141.045 85.3995 143.434C86.4658 144.818 87.0399 146.459 87.491 147.997C88.9777 153.574 89.0494 159.295 89.2545 164.944C89.3365 171.475 89.7056 180.692 89.6646 187.131C89.5723 201.976 88.9674 216.73 87.0912 231.514C86.1172 238.189 85.1842 245.089 82.4058 251.414C81.9239 252.429 81.3703 253.475 80.4988 254.582L73.9884 248.913V248.933Z" fill="#844609"/>
<path d="M103.7 178.734C105.665 178.734 107.258 177.283 107.258 175.494C107.258 173.705 105.665 172.254 103.7 172.254C101.735 172.254 100.143 173.705 100.143 175.494C100.143 177.283 101.735 178.734 103.7 178.734Z" fill="#844609"/>
<path d="M86.579 56.6462C86.6405 58.7787 87.0711 60.7267 87.8503 62.4697C88.1989 63.2694 88.5987 63.8538 89.2446 64.3561C92.1359 66.3964 97.2006 65.6172 100.676 65.1148C103.701 64.5817 106.92 65.2174 109.852 65.4737C113.471 65.5864 117.121 65.9248 119.039 62.3364C119.992 60.6857 120.494 58.789 120.515 56.6462C120.515 56.5027 120.638 56.3899 120.782 56.3899C120.884 56.3899 120.976 56.4514 121.017 56.5437C122.514 59.7322 122.114 63.946 119.849 66.7245C117.357 69.6875 112.856 70.2001 109.463 69.7592C107.33 69.5234 105.403 68.9903 103.362 69.0108C101.281 69.0313 99.2922 69.5952 97.2109 69.7182C92.546 70.2104 86.0048 68.9698 85.1334 63.2591C84.9386 62.0801 84.9078 60.9113 85.0718 59.7732C85.0411 59.3426 86.0766 55.3236 86.5892 56.6667L86.579 56.6462Z" fill="#CE6F02"/>
<path d="M72.0479 62.8298C75.8587 56.2293 75.0084 48.6042 70.1488 45.7985C65.2892 42.9928 58.2605 46.069 54.4498 52.6695C50.639 59.2699 51.4893 66.895 56.3489 69.7007C61.2085 72.5064 68.2372 69.4302 72.0479 62.8298Z" fill="#4F2700"/>
<path d="M60.3322 71.5022C58.7636 71.5022 57.2872 71.1228 55.9646 70.3539C53.4015 68.8673 51.7714 66.1504 51.3818 62.685C51.0024 59.3119 51.8534 55.6107 53.7809 52.2786C57.7896 45.3274 65.3047 42.1183 70.5233 45.1326C73.0864 46.6192 74.7166 49.3361 75.1062 52.8015C75.4855 56.1746 74.6346 59.8758 72.7071 63.2079C70.7796 66.5399 68.0114 69.1236 64.8946 70.4872C63.3465 71.1639 61.8086 71.5022 60.3322 71.5022ZM66.1455 45.5222C62.2187 45.5222 57.8101 48.3621 55.1034 53.0476C53.34 56.1028 52.5608 59.4657 52.8991 62.5209C53.2272 65.4942 54.5908 67.8113 56.7233 69.0416C58.8559 70.2719 61.542 70.2924 64.2795 69.0928C67.0989 67.8625 69.6211 65.5044 71.3845 62.4492C73.148 59.3939 73.9272 56.0311 73.5888 52.9758C73.2607 50.0025 71.8971 47.6855 69.7646 46.4552C68.6573 45.8195 67.427 45.5119 66.1455 45.5119V45.5222Z" fill="#4F2700"/>
<path d="M71.5699 61.1333C74.905 55.3567 74.1581 48.6817 69.9017 46.2243C65.6452 43.7668 59.4911 46.4575 56.156 52.2341C52.8208 58.0107 53.5677 64.6857 57.8241 67.1432C62.0806 69.6006 68.2348 66.9099 71.5699 61.1333Z" fill="#AB4A00"/>
<path d="M150.118 68.6423C154.977 65.8366 155.827 58.2114 152.017 51.611C148.206 45.0106 141.177 41.9344 136.318 44.74C131.458 47.5457 130.608 55.1709 134.419 61.7713C138.229 68.3717 145.258 71.448 150.118 68.6423Z" fill="#4F2700"/>
<path d="M146.146 70.4256C141.666 70.4256 136.734 67.3294 133.751 62.1518C131.823 58.8197 130.972 55.1288 131.351 51.7454C131.741 48.2801 133.361 45.5631 135.934 44.0765C138.508 42.5899 141.676 42.5489 144.864 43.9432C147.981 45.3068 150.749 47.8905 152.677 51.2226C154.604 54.5547 155.455 58.2456 155.076 61.6289C154.686 65.0943 153.066 67.8112 150.493 69.2978C149.16 70.0668 147.684 70.4256 146.146 70.4256ZM140.312 44.4559C139.01 44.4559 137.78 44.7737 136.703 45.3991C134.571 46.6294 133.207 48.9465 132.879 51.9197C132.541 54.975 133.32 58.3378 135.083 61.3931C138.682 67.6164 145.254 70.5794 149.745 67.9855C151.877 66.7552 153.241 64.4381 153.569 61.4649C153.907 58.4096 153.128 55.0468 151.364 51.9915C149.601 48.9362 147.079 46.5782 144.259 45.3478C142.916 44.7634 141.573 44.4661 140.312 44.4661V44.4559Z" fill="#4F2700"/>
<path d="M148.641 66.0837C152.898 63.6262 153.645 56.9512 150.31 51.1746C146.975 45.398 140.82 42.7073 136.564 45.1648C132.307 47.6222 131.561 54.2972 134.896 60.0738C138.231 65.8504 144.385 68.5411 148.641 66.0837Z" fill="#AB4A00"/>
<path d="M138.313 57.2511C140.731 57.2511 142.691 55.2911 142.691 52.8732C142.691 50.4554 140.731 48.4954 138.313 48.4954C135.896 48.4954 133.936 50.4554 133.936 52.8732C133.936 55.2911 135.896 57.2511 138.313 57.2511Z" fill="#FFF2E1"/>
<path d="M144.045 60.5012C144.9 60.5012 145.593 59.8081 145.593 58.953C145.593 58.098 144.9 57.4049 144.045 57.4049C143.19 57.4049 142.497 58.098 142.497 58.953C142.497 59.8081 143.19 60.5012 144.045 60.5012Z" fill="#FFF2E1"/>
<path d="M63.2338 57.2511C65.6516 57.2511 67.6117 55.2911 67.6117 52.8732C67.6117 50.4554 65.6516 48.4954 63.2338 48.4954C60.816 48.4954 58.856 50.4554 58.856 52.8732C58.856 55.2911 60.816 57.2511 63.2338 57.2511Z" fill="#FFF2E1"/>
<path d="M68.9651 60.5012C69.8201 60.5012 70.5133 59.8081 70.5133 58.953C70.5133 58.098 69.8201 57.4049 68.9651 57.4049C68.1101 57.4049 67.417 58.098 67.417 58.953C67.417 59.8081 68.1101 60.5012 68.9651 60.5012Z" fill="#FFF2E1"/>
</svg>
