<svg width="337" height="279" viewBox="0 0 337 279" fill="none" xmlns="http://www.w3.org/2000/svg">
<path d="M44.5625 59.8089C56.6371 72.6591 75.5863 91.2558 101.34 110.372C136.021 136.117 163.607 148.368 184.557 159.182C216.595 175.725 261.139 203.391 311.094 251.31C285.446 261.19 243.388 273.803 190.286 273.855C134.673 273.908 90.9131 260.15 64.9307 249.768C107.994 218.771 151.18 187.95 194.49 157.296C240.109 125.003 285.869 92.9039 331.762 60.9988C290.911 53.1459 240.409 46.8265 182.495 47.0204C129.525 47.1879 82.9545 52.7669 44.5537 59.8177L44.5625 59.8089Z" fill="#004949"/>
<path d="M186.434 278.28C186.205 278.28 185.967 278.28 185.737 278.28C155.948 278.218 125.655 274.349 98.1481 267.095C86.4261 264.002 74.7657 260.238 63.5019 255.911L61.3603 255.091L60.8226 252.862C56.0016 232.969 52.0531 212.531 49.0829 192.136C45.2402 165.783 43.9094 145.327 42.6138 125.549C41.1948 103.868 40.3751 81.7636 40.19 59.8442L40.1548 56.213L43.7155 55.5167C64.6389 51.4361 86.0118 48.2279 107.253 45.9981C137.686 42.7988 173.945 42.1377 188.117 41.9967C221.538 41.6706 239.359 43.8299 256.581 45.9099C260.291 46.3594 263.799 46.7825 267.475 47.1791C289.226 49.55 311.119 52.7493 332.554 56.6889L336.123 57.3412V60.9723C336.176 80.6971 335.63 100.686 334.519 120.376C333.85 132.257 332.721 152.14 329.672 177.435C326.631 202.615 322.277 228.095 316.725 253.17L316.196 255.576L313.869 256.369C296.277 262.336 278.086 267.157 259.798 270.718C247.124 273.186 220.833 278.289 186.443 278.289L186.434 278.28ZM68.7813 248.569C79.0844 252.447 89.7047 255.832 100.378 258.652C127.171 265.721 156.697 269.493 185.755 269.546C219.661 269.625 244.674 264.751 258.123 262.133C275.213 258.811 292.223 254.351 308.722 248.869C313.957 224.852 318.082 200.482 320.991 176.386C324.014 151.373 325.124 131.657 325.794 119.882C326.834 101.568 327.372 82.9975 327.398 64.63C307.321 61.0252 286.864 58.0815 266.531 55.8605C262.812 55.4551 259.11 55.0056 255.541 54.5737C238.592 52.5289 221.071 50.4137 188.205 50.7222C174.156 50.8544 138.232 51.5066 108.169 54.6706C88.3915 56.7506 68.4992 59.6856 48.9595 63.3873C49.1975 83.9493 49.9995 104.644 51.3304 124.959C52.6701 145.477 53.9392 164.849 57.7291 190.858C60.5494 210.23 64.2687 229.629 68.7813 248.552V248.569Z" fill="black"/>
<path d="M64.9394 249.768C73.4268 243.757 130.988 202.985 197.064 156.247C227.092 135.006 301.734 82.2219 331.77 60.9988C332.458 90.771 331.532 124.527 327.602 161.403C324.032 194.93 318.594 225.346 312.46 252.236C242.083 204.951 171.716 157.666 101.339 110.381C82.4167 93.5297 63.4851 76.6693 44.5624 59.8177C43.8044 85.9853 44.4125 115.405 47.4797 147.416C51.1637 185.966 57.6593 220.322 64.9482 249.768H64.9394Z" fill="#2CC7CE"/>
<path d="M68.7199 89.3168C72.4392 83.0591 80.4948 79.4103 87.9599 77.6652C95.8833 75.6998 104.521 74.0164 112.894 72.7208C148.104 67.5737 180.696 66.5161 215.316 68.1201C237.923 69.2306 258.926 71.1432 280.678 75.4442C290.09 77.533 301.645 78.714 308.978 84.7778C314.345 89.2551 315.808 96.6232 315.941 103.692C316.064 112.214 315.509 121.054 315.192 129.568C314.231 151.479 312.512 174.095 309.383 196.278C307.762 206.652 306.475 217.986 303.073 227.76C297.45 245.097 281.867 248.701 265.994 252.324C244.11 257.735 220.869 260.97 197.425 261.393C166.075 261.931 133.403 260.027 104.08 251.293C81.8433 245.485 76.4053 237.729 72.4392 215.183C68.7551 197.098 66.349 178.219 65.2032 159.79C64.128 143.168 63.5815 128.995 63.749 111.871C63.8636 104.317 64.5863 95.8388 68.5788 89.5107L68.7022 89.3168H68.7199Z" fill="#0A9CA3"/>
<g opacity="0.49">
<path d="M153.066 225.451H146.588V214.258H138.638V244.312H146.588V232.388H153.066V244.312H161.016V214.258H153.066V225.451Z" fill="#000C3F"/>
<path d="M164.947 220.921H173.593V244.312H181.543V220.921H190.189V214.258H164.947V220.921Z" fill="#000C3F"/>
<path d="M206.238 224.059L205.41 227.946H205.225L204.396 224.059L201.946 214.258H193.855V244.312H200.324V237.235C200.324 233.674 199.681 225.495 199.311 221.979H199.496L201.805 230.898L203.471 236.354H206.987L208.556 230.898L211.103 221.979H211.244C210.874 225.495 210.231 233.674 210.231 237.235V244.312H216.797V214.258H208.706L206.256 224.059H206.238Z" fill="#000C3F"/>
<path d="M231.569 237.658V214.258H223.619V244.312H244.375V237.658H231.569Z" fill="#000C3F"/>
</g>
<g style="mix-blend-mode:darken">
<path d="M151.083 225.451H144.605V214.258H136.655V244.312H144.605V232.388H151.083V244.312H159.033V214.258H151.083V225.451Z" fill="#004949"/>
<path d="M162.964 220.921H171.61V244.312H179.56V220.921H188.206V214.258H162.964V220.921Z" fill="#004949"/>
<path d="M204.246 224.059L203.418 227.946H203.233L202.404 224.059L199.954 214.258H191.863V244.312H198.332V237.235C198.332 233.674 197.689 225.495 197.319 221.979H197.504L199.813 230.898L201.479 236.354H204.996L206.564 230.898L209.111 221.979H209.252C208.882 225.495 208.239 233.674 208.239 237.235V244.312H214.805V214.258H206.714L204.264 224.059H204.246Z" fill="#004949"/>
<path d="M229.586 237.658V214.258H221.636V244.312H242.392V237.658H229.586Z" fill="#004949"/>
</g>
<path d="M219.644 174.421C220.129 167.52 221.036 160.31 225.54 151.858C228.105 147.037 233.226 138.823 243.37 132.292C245.062 131.208 253.752 126.986 257.948 130.476C268.559 139.334 269.361 157.102 265.519 170.895C262.663 181.11 262.213 179.973 261.438 180.925C260.301 182.326 257.084 184.724 250.253 187.773C247.116 189.175 244.763 190.691 231.674 192.065C224.483 192.823 225.39 193.061 224.297 192.198C220.772 189.421 219.115 182.027 219.644 174.421Z" fill="#053142"/>
<path d="M157.358 174.421C156.874 167.52 156.019 160.284 151.462 151.858C148.677 146.711 143.697 138.69 133.632 132.292C131.94 131.217 123.25 126.986 119.054 130.476C108.443 139.334 107.641 157.102 111.484 170.895C114.339 181.11 114.789 179.973 115.564 180.925C116.701 182.326 119.918 184.724 126.749 187.773C129.886 189.175 132.24 190.691 145.328 192.065C152.52 192.823 151.612 193.061 152.705 192.198C156.23 189.421 157.887 182.027 157.358 174.421Z" fill="#053142"/>
<path d="M222.647 135.384C227.831 132.811 230.645 127.926 228.931 124.473C227.218 121.02 221.626 120.305 216.441 122.878C211.257 125.45 208.443 130.335 210.157 133.789C211.87 137.242 217.462 137.956 222.647 135.384Z" fill="#053142"/>
<path d="M167.188 133.938C168.967 130.354 166.046 125.284 160.666 122.614C155.285 119.945 149.481 120.686 147.703 124.27C145.925 127.854 148.845 132.924 154.225 135.594C159.606 138.264 165.41 137.523 167.188 133.938Z" fill="#053142"/>
<path d="M227.937 193.916C225.125 193.916 222.728 191.907 222.287 189.131C221.961 187.059 221.688 184.697 221.574 182.106C221.406 178.44 221.397 171.926 223.46 163.668C223.486 163.554 223.521 163.448 223.548 163.333C224.032 161.764 227.981 149.575 237.288 140.726C239.721 138.417 242.444 136.425 245.784 134.954C248.508 133.755 250.403 132.926 252.359 133.191C259.058 134.099 262.213 147.301 262.786 149.707C265.536 161.209 262.847 171.715 260.08 178.695C259.86 179.259 259.551 179.779 259.155 180.238C257.833 181.771 256.017 183.631 253.646 185.473C252.58 186.301 247.468 190.179 239.536 192.365C235.199 193.564 231.224 193.925 227.946 193.916H227.937Z" fill="#F2A71B"/>
<path d="M149.047 193.916C151.859 193.916 154.256 191.907 154.697 189.131C155.023 187.059 155.296 184.697 155.411 182.106C155.578 178.44 155.587 171.926 153.525 163.668C153.498 163.554 153.463 163.448 153.436 163.333C152.96 161.764 149.003 149.575 139.696 140.726C137.263 138.417 134.54 136.425 131.2 134.954C128.476 133.755 126.581 132.926 124.625 133.191C117.926 134.099 114.771 147.301 114.198 149.707C111.449 161.209 114.137 171.715 116.904 178.695C117.124 179.259 117.433 179.779 117.83 180.238C119.152 181.771 120.967 183.631 123.338 185.473C124.404 186.301 129.516 190.179 137.449 192.365C141.785 193.564 145.76 193.925 149.038 193.916H149.047Z" fill="#F2A71B"/>
<path d="M187.104 206.661C185.57 206.661 183.393 206.423 180.634 205.964C176.968 205.348 174.403 204.378 172.341 203.594C171.574 203.303 170.851 203.03 170.155 202.8C169.212 202.492 168.692 201.478 169.001 200.535C169.309 199.592 170.323 199.072 171.266 199.381C172.05 199.636 172.817 199.927 173.619 200.236C175.628 201.002 177.911 201.866 181.225 202.421C184.424 202.959 186.187 203.065 187.104 203.065C189.721 203.065 192.083 202.853 194.296 202.421C196.331 202.025 197.795 201.699 199.187 201.311C201.302 200.729 203.259 200.077 205.004 199.39C205.929 199.019 206.969 199.478 207.34 200.394C207.71 201.32 207.252 202.36 206.335 202.73C204.466 203.47 202.386 204.158 200.148 204.775C198.658 205.189 197.116 205.533 194.983 205.947C192.533 206.423 189.959 206.652 187.104 206.652V206.661Z" fill="#00181C"/>
<path d="M240.117 189.386C248.679 189.386 255.62 179.371 255.62 167.017C255.62 154.663 248.679 144.648 240.117 144.648C231.555 144.648 224.614 154.663 224.614 167.017C224.614 179.371 231.555 189.386 240.117 189.386Z" fill="#FFD592"/>
<path d="M136.884 189.386C145.447 189.386 152.388 179.371 152.388 167.017C152.388 154.663 145.447 144.648 136.884 144.648C128.322 144.648 121.381 154.663 121.381 167.017C121.381 179.371 128.322 189.386 136.884 189.386Z" fill="#FFD592"/>
<path d="M92.7724 84.1873C96.624 92.4632 100.484 100.739 104.336 109.024C103.798 112.779 103.261 116.524 102.723 120.279C96.7474 122.72 90.7718 125.153 84.7961 127.594C84.6111 130.291 84.426 132.997 84.2497 135.694C82.8219 132.142 81.3941 128.59 79.9663 125.038C85.7745 122.782 91.5826 120.526 97.3907 118.269C97.8931 115.308 97.5846 112.726 98.087 109.755C94.2796 105.269 91.2829 100.404 87.4755 95.9182C89.247 92.0137 91.0097 88.1005 92.7812 84.1961L92.7724 84.1873Z" fill="#011F26"/>
<path d="M74.4575 110.963C74.7219 118.499 74.9863 126.043 75.2507 133.579C69.231 134.292 63.2114 135.015 57.1917 135.729C56.5395 139.166 55.8961 142.595 55.2439 146.032C54.5741 141.37 53.9042 136.699 53.2256 132.036C58.8398 131.137 64.4453 130.247 70.0595 129.348C69.2487 122.535 68.4378 115.713 67.627 108.901C69.9009 109.588 72.1748 110.275 74.4487 110.963H74.4575Z" fill="#011F26"/>
<path d="M39.4058 118.402C38.0573 120.482 36.7089 122.553 35.3692 124.633C35.7129 125.329 36.0478 126.017 36.3916 126.713C35.616 127.383 34.8492 128.052 34.0736 128.722L34.4085 129.26C32.5136 128.511 30.6099 127.753 28.7149 127.004C27.8865 127.488 27.0492 127.982 26.2207 128.467C26.4675 129.022 26.7054 129.568 26.9522 130.124C27.6309 129.639 28.3007 129.154 28.9794 128.678C30.9272 129.674 32.875 130.679 34.8139 131.675C34.9638 131.437 35.1136 131.19 35.2546 130.952C35.5367 131.084 35.8099 131.217 36.0919 131.349C37.1848 130.467 38.2777 129.595 39.3617 128.713C39.1238 128.37 38.8946 128.026 38.6567 127.682C38.9299 127.709 39.2119 127.744 39.4851 127.77C41.7062 125.593 43.9184 123.425 46.1394 121.248C43.8919 120.297 41.6533 119.353 39.4058 118.402Z" fill="#011F26"/>
<path d="M112.903 47.5933C103.56 57.4469 102.132 46.5269 86.7615 35.7567C72.8008 25.9736 61.4313 24.7486 68.7377 15.6177C76.3262 6.15191 93.83 -0.537597 109.218 10.6204C124.607 22.3689 122.659 37.3167 112.903 47.5933Z" fill="#025E73"/>
<path d="M102.723 50.3696C101.251 49.3208 99.6999 47.7608 97.805 45.857C94.9405 42.9838 91.4592 39.476 86.5324 36.0123C82.531 33.2008 78.7941 31.1296 75.5771 29.3404C70.43 26.476 66.8164 24.4753 66.1554 21.6109C65.75 19.857 66.4727 17.8916 68.4557 15.415C72.3954 10.4882 78.3005 6.73359 84.7697 5.12951C90.1283 3.80748 101.057 3.41087 109.483 10.3119C119.222 18.2882 120.597 22.3512 120.897 28.0624C121.276 35.1309 118.473 42.3933 113.29 47.8401C110.558 50.7133 108.399 51.9296 106.301 51.8062C105.067 51.7269 103.922 51.2157 102.723 50.3608V50.3696ZM86.9907 35.4835C91.9968 38.9825 95.531 42.5255 98.4219 45.4252C101.701 48.7127 103.049 50.5635 105.376 50.7045C107.174 50.8103 109.069 50.2815 111.351 47.3554C119.68 36.7262 125.726 24.0346 108.963 10.9112C95.0287 1.33514e-05 76.7052 6.24003 69.0286 15.8116C67.169 18.1384 66.4727 19.9363 66.8429 21.4963C67.4422 24.0699 70.95 26.0089 75.9473 28.7763C79.1907 30.5743 82.9541 32.6543 86.9995 35.4835H86.9907Z" fill="#011F26"/>
<path d="M103.878 63.255C95.637 72.6944 77.6396 70.5967 64.3488 59.4388C51.8952 48.977 47.6206 33.7824 54.4952 25.057C61.4932 16.1641 77.7278 14.2427 91.5034 23.9817C106.231 34.3994 112.286 53.6218 103.878 63.255Z" fill="#025E73"/>
<path d="M65.2743 58.2842C52.6533 47.6726 48.5638 32.4075 55.5618 23.5146C62.6919 14.4631 82.2405 15.0183 94.0771 23.5234C108.954 34.2231 112.55 54.0449 103.966 63.872C95.5578 73.4964 78.7503 69.6185 65.2831 58.2754L65.2743 58.2842ZM93.4866 24.2373C83.113 17.0983 63.1326 15.3709 56.2757 24.0699C49.5421 32.6102 53.5699 47.3553 65.8208 57.6232C78.8737 68.5696 95.0113 72.4035 103.058 63.1757C111.264 53.7628 105.852 32.7424 93.4866 24.2373Z" fill="#011F26"/>
<path d="M67.3184 12.3126C67.9089 8.25834 71.7164 4.97087 76.3259 5.59664C80.0011 6.0902 81.5611 8.9458 80.5211 11.7926C79.5693 14.3926 76.5374 16.7458 73.1971 17.3187C69.1692 18.0062 66.7984 15.8821 67.3272 12.3126H67.3184Z" fill="#011F26"/>
<mask id="mask0_62_970" style="mask-type:luminance" maskUnits="userSpaceOnUse" x="69" y="7" width="11" height="10">
<path d="M69.6188 12.1098C70.1564 9.21017 72.8093 6.83932 76.0704 7.13898C78.8378 7.39458 80.1246 9.50983 79.3578 11.7485C78.6351 13.8285 76.2466 15.6705 73.6731 16.0319C70.7117 16.4461 69.1341 14.7451 69.6188 12.101V12.1098Z" fill="white"/>
</mask>
<g mask="url(#mask0_62_970)">
<path d="M78.1593 6.48682L69.1959 15.6441L65.644 13.7492L75.8678 3.44614L78.1593 6.48682Z" fill="#F3A81F"/>
<path d="M78.7404 7.26241L70.0943 16.1289L69.1953 15.6441L78.1587 6.48682L78.7404 7.26241Z" fill="#F3A81F"/>
<path d="M79.2873 7.99389L70.932 16.5783L70.0947 16.1288L78.7408 7.26236L79.2873 7.99389Z" fill="#F3A81E"/>
<path d="M79.7986 8.67257L71.7253 16.9926L70.9321 16.5783L79.2874 7.99393L79.7986 8.67257Z" fill="#F2A71C"/>
<path d="M80.2836 9.30715L72.4659 17.3892L71.7256 16.9926L79.7988 8.67258L80.2836 9.30715Z" fill="#F2A71B"/>
<path d="M72.4658 17.3892L80.2835 9.30716L81.4733 10.8848L74.2814 18.3675L72.4658 17.3892Z" fill="#F2A71B"/>
</g>
<mask id="mask1_62_970" style="mask-type:luminance" maskUnits="userSpaceOnUse" x="73" y="8" width="7" height="8">
<path d="M79.2871 11.2462C79.481 9.64208 78.8817 7.86174 76.8634 8.33767C74.6512 8.84886 73.1441 11.6428 73.1793 13.379C73.2146 14.9743 74.14 16.3316 76.5814 14.8068C78.0356 13.899 79.102 12.7445 79.2871 11.2462Z" fill="white"/>
</mask>
<g mask="url(#mask1_62_970)">
<path d="M79.1022 8.14371L72.9768 15.6L69.9097 13.6786L77.4541 6.00201L79.1022 8.14371Z" fill="#FFC776"/>
<path d="M79.1201 8.17018L73.0035 15.6177L72.9771 15.6L79.1025 8.14374L79.1201 8.17018Z" fill="#FFC776"/>
<path d="M79.1465 8.19664L73.0387 15.6353L73.0034 15.6177L79.12 8.1702L79.1465 8.19664Z" fill="#FFC775"/>
<path d="M79.164 8.22303L73.065 15.6529L73.0386 15.6353L79.1464 8.19659L79.164 8.22303Z" fill="#FFC674"/>
<path d="M79.182 8.24952L73.0919 15.6706L73.0654 15.6529L79.1644 8.22308L79.182 8.24952Z" fill="#FFC673"/>
<path d="M79.2074 8.27595L73.1173 15.6882L73.0908 15.6705L79.181 8.24951L79.2074 8.27595Z" fill="#FEC672"/>
<path d="M79.2255 8.30238L73.1441 15.7058L73.1177 15.6882L79.2079 8.27594L79.2255 8.30238Z" fill="#FEC571"/>
<path d="M79.243 8.32881L73.1705 15.7234L73.144 15.7058L79.2254 8.30237L79.243 8.32881Z" fill="#FEC570"/>
<path d="M79.2699 8.35527L73.2062 15.741L73.1709 15.7234L79.2435 8.32883L79.2699 8.35527Z" fill="#FEC46F"/>
<path d="M79.2874 8.3817L73.2325 15.7587L73.2061 15.741L79.2698 8.35526L79.2874 8.3817Z" fill="#FEC46E"/>
<path d="M79.3045 8.40818L73.2584 15.7763L73.2319 15.7587L79.2869 8.38174L79.3045 8.40818Z" fill="#FEC46C"/>
<path d="M79.322 8.43461L73.2847 15.7939L73.2583 15.7763L79.3044 8.40817L79.322 8.43461Z" fill="#FDC36B"/>
<path d="M79.3489 8.46104L73.3116 15.8116L73.2852 15.7939L79.3225 8.4346L79.3489 8.46104Z" fill="#FDC36A"/>
<path d="M79.3665 8.48747L73.338 15.8292L73.3115 15.8116L79.3488 8.46103L79.3665 8.48747Z" fill="#FDC369"/>
<path d="M79.384 8.5139L73.3643 15.838L73.3379 15.8292L79.3664 8.48746L79.384 8.5139Z" fill="#FDC268"/>
<path d="M79.4104 8.54039L73.3907 15.8557L73.3643 15.838L79.3839 8.51395L79.4104 8.54039Z" fill="#FDC267"/>
<path d="M79.4284 8.56682L73.4176 15.8733L73.3911 15.8556L79.4108 8.54037L79.4284 8.56682Z" fill="#FDC166"/>
<path d="M79.446 8.59321L73.4439 15.8909L73.4175 15.8732L79.4283 8.56677L79.446 8.59321Z" fill="#FDC165"/>
<path d="M79.4635 8.61967L73.4703 15.9085L73.4438 15.8909L79.4459 8.59323L79.4635 8.61967Z" fill="#FCC164"/>
<path d="M79.4899 8.64613L73.5055 15.9261L73.4702 15.9085L79.4634 8.61969L79.4899 8.64613Z" fill="#FCC063"/>
<path d="M79.5074 8.67259L73.5318 15.9438L73.5054 15.9262L79.4898 8.64615L79.5074 8.67259Z" fill="#FCC062"/>
<path d="M79.525 8.69902L73.5582 15.9614L73.5317 15.9438L79.5073 8.67258L79.525 8.69902Z" fill="#FCC061"/>
<path d="M79.543 8.72542L73.585 15.979L73.5586 15.9614L79.5254 8.69897L79.543 8.72542Z" fill="#FCBF60"/>
<path d="M79.5694 8.75187L73.6114 15.9966L73.585 15.979L79.5429 8.72543L79.5694 8.75187Z" fill="#FCBF5F"/>
<path d="M79.5869 8.77833L73.6378 16.0143L73.6113 15.9967L79.5693 8.75189L79.5869 8.77833Z" fill="#FCBE5E"/>
<path d="M79.6045 8.80476L73.6641 16.0231L73.6377 16.0143L79.5869 8.77832L79.6045 8.80476Z" fill="#FBBE5D"/>
<path d="M79.622 8.83122L73.6905 16.0407L73.6641 16.0231L79.6044 8.80478L79.622 8.83122Z" fill="#FBBE5C"/>
<path d="M79.6489 8.8488L73.7174 16.0583L73.6909 16.0407L79.6225 8.83118L79.6489 8.8488Z" fill="#FBBD5B"/>
<path d="M79.6664 8.87529L73.7437 16.076L73.7173 16.0584L79.6488 8.84885L79.6664 8.87529Z" fill="#FBBD5A"/>
<path d="M79.684 8.90172L73.7701 16.0936L73.7437 16.076L79.6664 8.87527L79.684 8.90172Z" fill="#FBBD59"/>
<path d="M79.7011 8.92817L73.796 16.1112L73.7695 16.0936L79.6834 8.90173L79.7011 8.92817Z" fill="#FBBC58"/>
<path d="M79.7191 8.9546L73.8228 16.1289L73.7964 16.1112L79.7015 8.92816L79.7191 8.9546Z" fill="#FABC56"/>
<path d="M79.7455 8.98103L73.8492 16.1377L73.8228 16.1288L79.719 8.95459L79.7455 8.98103Z" fill="#FABC55"/>
<path d="M79.763 9.00749L73.8756 16.1553L73.8491 16.1377L79.7454 8.98105L79.763 9.00749Z" fill="#FABB54"/>
<path d="M79.7806 9.02513L73.8931 16.1729L73.8755 16.1553L79.763 9.00751L79.7806 9.02513Z" fill="#FABB53"/>
<path d="M79.7987 9.05156L73.92 16.1906L73.8936 16.1729L79.781 9.02512L79.7987 9.05156Z" fill="#FABA52"/>
<path d="M79.8157 9.07798L73.9459 16.2082L73.9194 16.1905L79.7981 9.05154L79.8157 9.07798Z" fill="#FABA51"/>
<path d="M79.8338 9.10441L73.9727 16.2258L73.9463 16.2082L79.8161 9.07797L79.8338 9.10441Z" fill="#FABA50"/>
<path d="M79.8601 9.13087L73.9991 16.2346L73.9727 16.2258L79.8337 9.10443L79.8601 9.13087Z" fill="#F9B94F"/>
<path d="M79.8782 9.1573L74.026 16.2522L73.9995 16.2346L79.8605 9.13086L79.8782 9.1573Z" fill="#F9B94E"/>
<path d="M79.8952 9.17491L74.0518 16.2698L74.0254 16.2522L79.8776 9.15729L79.8952 9.17491Z" fill="#F9B94D"/>
<path d="M79.9133 9.2014L74.0787 16.2875L74.0522 16.2699L79.8957 9.17496L79.9133 9.2014Z" fill="#F9B84C"/>
<path d="M79.9308 9.2278L74.1051 16.3051L74.0786 16.2875L79.9132 9.20135L79.9308 9.2278Z" fill="#F9B84B"/>
<path d="M79.9484 9.25425L74.1314 16.3139L74.105 16.3051L79.9308 9.22781L79.9484 9.25425Z" fill="#F9B84A"/>
<path d="M79.9659 9.28068L74.1578 16.3315L74.1313 16.3139L79.9483 9.25424L79.9659 9.28068Z" fill="#F9B749"/>
<path d="M79.9923 9.29833L74.1753 16.3492L74.1577 16.3316L79.9659 9.2807L79.9923 9.29833Z" fill="#F8B748"/>
<path d="M80.0099 9.32475L74.2017 16.3668L74.1753 16.3492L79.9923 9.29831L80.0099 9.32475Z" fill="#F8B647"/>
<path d="M80.0274 9.35118L74.2281 16.3844L74.2017 16.3668L80.0098 9.32474L80.0274 9.35118Z" fill="#F8B646"/>
<path d="M80.045 9.37764L74.2545 16.3932L74.228 16.3844L80.0274 9.3512L80.045 9.37764Z" fill="#F8B645"/>
<path d="M80.063 9.39525L74.2813 16.4109L74.2549 16.3932L80.0454 9.37762L80.063 9.39525Z" fill="#F8B544"/>
<path d="M80.0806 9.42173L74.3077 16.4285L74.2812 16.4109L80.063 9.39529L80.0806 9.42173Z" fill="#F8B543"/>
<path d="M80.0981 9.44816L74.3252 16.4461L74.3076 16.4285L80.0805 9.42172L80.0981 9.44816Z" fill="#F8B542"/>
<path d="M80.1157 9.46581L74.3516 16.4638L74.3252 16.4462L80.0981 9.44818L80.1157 9.46581Z" fill="#F7B441"/>
<path d="M80.1338 9.4922L74.3785 16.4726L74.3521 16.4637L80.1161 9.46576L80.1338 9.4922Z" fill="#F7B440"/>
<path d="M80.1513 9.51863L74.4049 16.4902L74.3784 16.4725L80.1337 9.49219L80.1513 9.51863Z" fill="#F7B43F"/>
<path d="M80.1777 9.54512L74.4312 16.5078L74.4048 16.4902L80.1512 9.51868L80.1777 9.54512Z" fill="#F7B33E"/>
<path d="M80.1947 9.56273L74.4483 16.5255L74.4307 16.5078L80.1771 9.5451L80.1947 9.56273Z" fill="#F7B33D"/>
<path d="M80.2128 9.58918L74.4752 16.5343L74.4487 16.5255L80.1952 9.56274L80.2128 9.58918Z" fill="#F7B33C"/>
<path d="M80.2304 9.61561L74.5015 16.5519L74.4751 16.5343L80.2127 9.58917L80.2304 9.61561Z" fill="#F7B23B"/>
<path d="M80.2479 9.63326L74.5279 16.5695L74.5015 16.5519L80.2303 9.61563L80.2479 9.63326Z" fill="#F6B23A"/>
<path d="M80.266 9.65965L74.5548 16.5783L74.5283 16.5695L80.2483 9.63321L80.266 9.65965Z" fill="#F6B139"/>
<path d="M80.2835 9.68611L74.5723 16.596L74.5547 16.5783L80.2659 9.65967L80.2835 9.68611Z" fill="#F6B138"/>
<path d="M80.3006 9.70375L74.5982 16.6136L74.5718 16.596L80.283 9.68613L80.3006 9.70375Z" fill="#F6B137"/>
<path d="M80.3182 9.73021L74.6246 16.6312L74.5981 16.6136L80.3005 9.70377L80.3182 9.73021Z" fill="#F6B036"/>
<path d="M80.3362 9.75663L74.6514 16.64L74.625 16.6312L80.3186 9.73019L80.3362 9.75663Z" fill="#F6B035"/>
<path d="M80.3533 9.77425L74.6685 16.6577L74.6509 16.64L80.3356 9.75662L80.3533 9.77425Z" fill="#F6B034"/>
<path d="M80.3713 9.8007L74.6954 16.6753L74.6689 16.6577L80.3537 9.77426L80.3713 9.8007Z" fill="#F5AF33"/>
<path d="M80.3894 9.82713L74.7222 16.6841L74.6958 16.6753L80.3717 9.80069L80.3894 9.82713Z" fill="#F5AF32"/>
<path d="M80.4064 9.84475L74.7481 16.7017L74.7217 16.6841L80.3888 9.82712L80.4064 9.84475Z" fill="#F5AF31"/>
<path d="M80.4245 9.8712L74.7662 16.7193L74.7485 16.7017L80.4069 9.84476L80.4245 9.8712Z" fill="#F5AE30"/>
<path d="M80.4416 9.88884L74.7921 16.737L74.7656 16.7194L80.4239 9.87122L80.4416 9.88884Z" fill="#F5AE2F"/>
<path d="M80.4591 9.91526L74.8184 16.7458L74.792 16.737L80.4415 9.88882L80.4591 9.91526Z" fill="#F5AE2E"/>
<path d="M80.4767 9.94172L74.836 16.7634L74.8184 16.7458L80.459 9.91528L80.4767 9.94172Z" fill="#F5AD2D"/>
<path d="M80.4947 9.95937L74.8629 16.7811L74.8364 16.7635L80.4771 9.94174L80.4947 9.95937Z" fill="#F4AD2C"/>
<path d="M80.5123 9.98576L74.8892 16.7898L74.8628 16.781L80.4947 9.95932L80.5123 9.98576Z" fill="#F4AD2B"/>
<path d="M80.5299 10.0034L74.9068 16.8075L74.8892 16.7899L80.5122 9.98578L80.5299 10.0034Z" fill="#F4AC2A"/>
<path d="M80.5479 10.0299L74.9337 16.8251L74.9072 16.8075L80.5303 10.0034L80.5479 10.0299Z" fill="#F4AC29"/>
<path d="M80.5655 10.0475L74.96 16.8339L74.9336 16.8251L80.5478 10.0298L80.5655 10.0475Z" fill="#F4AC28"/>
<path d="M80.583 10.0739L74.9776 16.8516L74.96 16.8339L80.5654 10.0475L80.583 10.0739Z" fill="#F4AB27"/>
<path d="M80.6006 10.1004L75.004 16.8692L74.9775 16.8516L80.583 10.0739L80.6006 10.1004Z" fill="#F4AB26"/>
<path d="M80.6182 10.118L75.0303 16.878L75.0039 16.8692L80.6005 10.1003L80.6182 10.118Z" fill="#F3AB25"/>
<path d="M80.6357 10.1445L75.0479 16.8957L75.0303 16.878L80.6181 10.118L80.6357 10.1445Z" fill="#F3AA24"/>
<path d="M80.6538 10.1621L75.0748 16.9133L75.0483 16.8956L80.6361 10.1444L80.6538 10.1621Z" fill="#F3AA23"/>
<path d="M80.6713 10.1885L75.1011 16.9221L75.0747 16.9132L80.6537 10.162L80.6713 10.1885Z" fill="#F3AA22"/>
<path d="M80.6889 10.2061L75.1804 16.8692L75.1187 16.9309L75.1011 16.9221L80.6713 10.1885L80.6889 10.2061Z" fill="#F3A921"/>
<path d="M80.7063 10.2326L75.427 16.6136L75.1802 16.8692L80.6887 10.2061L80.7063 10.2326Z" fill="#F3A920"/>
<path d="M80.7149 10.2502L75.6735 16.358L75.4268 16.6136L80.7061 10.2325L80.7149 10.2502Z" fill="#F3A91F"/>
<path d="M80.7328 10.2766L75.9206 16.0936L75.6738 16.358L80.7152 10.2502L80.7328 10.2766Z" fill="#F2A81E"/>
<path d="M80.7503 10.2943L76.1672 15.838L75.9204 16.0936L80.7326 10.2766L80.7503 10.2943Z" fill="#F2A81E"/>
<path d="M80.7682 10.3207L76.4143 15.5824L76.1675 15.838L80.7505 10.2943L80.7682 10.3207Z" fill="#F2A81D"/>
<path d="M80.7856 10.3383L76.6697 15.3268L76.4141 15.5824L80.768 10.3207L80.7856 10.3383Z" fill="#F2A71C"/>
<path d="M80.8035 10.3648L76.9167 15.0624L76.6699 15.3268L80.7859 10.3383L80.8035 10.3648Z" fill="#F2A71B"/>
<path d="M76.917 15.0624L80.8038 10.3648L81.0858 10.7261L76.917 15.0624Z" fill="#F2A71B"/>
</g>
<path d="M75.841 10.2943C75.1976 10.9553 74.2281 11.1139 73.664 10.6292C73.0647 10.1092 73.144 9.07799 73.8579 8.35528C74.5718 7.63257 75.5942 7.54443 76.123 8.12613C76.6518 8.70782 76.4844 9.64206 75.841 10.3031V10.2943Z" fill="#F4EBD4"/>
<path d="M74.6424 13.1411C74.3251 13.4672 73.8492 13.5729 73.5848 13.3702C73.3204 13.1675 73.338 12.718 73.6729 12.3743C74.0078 12.0305 74.4926 11.9424 74.757 12.1716C75.0214 12.4007 74.9597 12.8238 74.6512 13.1499L74.6424 13.1411Z" fill="#F4EBD4"/>
<path d="M110.126 39.0618C114.392 38.2245 117.274 34.5756 116.269 29.4814C115.274 24.396 110.999 20.9499 106.724 21.7871C102.45 22.6244 99.8057 27.4278 100.802 32.5221C101.798 37.6163 105.843 39.899 110.118 39.0618H110.126Z" fill="#011F26"/>
<mask id="mask2_62_970" style="mask-type:luminance" maskUnits="userSpaceOnUse" x="102" y="23" width="13" height="14">
<path d="M109.827 36.8055C113.079 36.1621 115.282 33.4211 114.533 29.6136C113.784 25.8062 110.541 23.2414 107.28 23.876C104.027 24.5194 101.991 28.1241 102.741 31.9316C103.49 35.7391 106.566 37.4401 109.818 36.8055H109.827Z" fill="white"/>
</mask>
<g mask="url(#mask2_62_970)">
<path d="M115.035 26.9763L105.325 37.444L108.866 40.7287L118.576 30.2609L115.035 26.9763Z" fill="#F3A81F"/>
<path d="M113.976 25.9922L104.266 36.4599L105.319 37.4369L115.029 26.9692L113.976 25.9922Z" fill="#F3A81F"/>
<path d="M112.925 25.0117L103.215 35.4794L104.268 36.4564L113.978 25.9887L112.925 25.0117Z" fill="#F3A81E"/>
<path d="M111.867 24.0377L102.157 34.5054L103.21 35.4824L112.92 25.0147L111.867 24.0377Z" fill="#F2A71C"/>
<path d="M110.81 23.0637L101.1 33.5314L102.153 34.5084L111.863 24.0407L110.81 23.0637Z" fill="#F2A71B"/>
<path d="M107.9 20.3629L98.1899 30.8306L101.098 33.5279L110.808 23.0602L107.9 20.3629Z" fill="#F2A71B"/>
</g>
<mask id="mask3_62_970" style="mask-type:luminance" maskUnits="userSpaceOnUse" x="102" y="24" width="11" height="9">
<path d="M108.134 24.1404C110.54 24.2638 113.167 25.6387 112.937 28.4238C112.708 31.2089 109.5 32.8746 107.085 32.7513C104.679 32.6279 102 31.2441 103.366 27.7451C104.221 25.5417 105.719 24.0258 108.134 24.1404Z" fill="white"/>
</mask>
<g mask="url(#mask3_62_970)">
<path d="M103.798 32.9011L112.752 25.2509L115.696 27.9831L107.746 36.5587L103.798 32.9011Z" fill="#FFC776"/>
<path d="M103.763 32.8658L112.708 25.2156L112.753 25.2509L103.798 32.9011L103.763 32.8658Z" fill="#FFC776"/>
<path d="M103.719 32.8218L112.673 25.1804L112.709 25.2156L103.763 32.8658L103.719 32.8218Z" fill="#FFC775"/>
<path d="M103.675 32.7865L112.629 25.1363L112.673 25.1804L103.719 32.8218L103.675 32.7865Z" fill="#FFC674"/>
<path d="M103.639 32.7513L112.585 25.1011L112.629 25.1363L103.674 32.7865L103.639 32.7513Z" fill="#FFC673"/>
<path d="M103.595 32.7072L112.55 25.0658L112.585 25.101L103.639 32.7512L103.595 32.7072Z" fill="#FEC672"/>
<path d="M103.551 32.6719L112.506 25.0217L112.55 25.0658L103.595 32.7071L103.551 32.6719Z" fill="#FEC571"/>
<path d="M103.516 32.6366L112.462 24.9865L112.506 25.0217L103.551 32.6719L103.516 32.6366Z" fill="#FEC570"/>
<path d="M103.472 32.5926L112.426 24.9512L112.462 24.9865L103.516 32.6366L103.472 32.5926Z" fill="#FEC46F"/>
<path d="M103.427 32.5573L112.382 24.9071L112.426 24.9512L103.471 32.5926L103.427 32.5573Z" fill="#FEC46E"/>
<path d="M103.392 32.5221L112.338 24.8719L112.382 24.9071L103.427 32.5573L103.392 32.5221Z" fill="#FEC46C"/>
<path d="M103.349 32.478L112.304 24.8367L112.339 24.8719L103.393 32.5221L103.349 32.478Z" fill="#FDC36B"/>
<path d="M103.305 32.4428L112.259 24.7926L112.303 24.8367L103.349 32.478L103.305 32.4428Z" fill="#FDC36A"/>
<path d="M103.27 32.4075L112.215 24.7573L112.259 24.7926L103.305 32.4428L103.27 32.4075Z" fill="#FDC369"/>
<path d="M103.226 32.3635L112.18 24.7221L112.215 24.7574L103.27 32.4075L103.226 32.3635Z" fill="#FDC268"/>
<path d="M103.181 32.3282L112.136 24.678L112.18 24.7221L103.225 32.3634L103.181 32.3282Z" fill="#FDC267"/>
<path d="M103.146 32.2929L112.092 24.6427L112.136 24.678L103.181 32.3282L103.146 32.2929Z" fill="#FDC166"/>
<path d="M103.102 32.2489L112.056 24.6075L112.091 24.6427L103.146 32.2929L103.102 32.2489Z" fill="#FDC165"/>
<path d="M103.058 32.2136L112.013 24.5634L112.057 24.6075L103.102 32.2489L103.058 32.2136Z" fill="#FCC164"/>
<path d="M103.022 32.1784L111.968 24.5282L112.012 24.5634L103.058 32.2136L103.022 32.1784Z" fill="#FCC063"/>
<path d="M102.979 32.1431L111.933 24.4929L111.968 24.5282L103.023 32.1784L102.979 32.1431Z" fill="#FCC062"/>
<path d="M102.934 32.099L111.889 24.4489L111.933 24.4929L102.978 32.1431L102.934 32.099Z" fill="#FCC061"/>
<path d="M102.899 32.0638L111.845 24.4136L111.889 24.4489L102.934 32.099L102.899 32.0638Z" fill="#FCBF60"/>
<path d="M102.855 32.0285L111.81 24.3783L111.845 24.4136L102.899 32.0638L102.855 32.0285Z" fill="#FCBF5F"/>
<path d="M102.811 31.9845L111.765 24.3343L111.809 24.3784L102.855 32.0285L102.811 31.9845Z" fill="#FCBE5E"/>
<path d="M102.776 31.9492L111.722 24.299L111.766 24.3343L102.811 31.9845L102.776 31.9492Z" fill="#FBBE5D"/>
<path d="M102.731 31.9139L111.686 24.2637L111.721 24.299L102.775 31.9492L102.731 31.9139Z" fill="#FBBE5C"/>
<path d="M102.688 31.8699L111.643 24.2197L111.687 24.2638L102.732 31.9139L102.688 31.8699Z" fill="#FBBD5B"/>
<path d="M102.653 31.8346L111.599 24.1844L111.643 24.2197L102.688 31.8699L102.653 31.8346Z" fill="#FBBD5A"/>
<path d="M102.608 31.7994L111.563 24.1492L111.598 24.1844L102.652 31.8346L102.608 31.7994Z" fill="#FBBD59"/>
<path d="M102.564 31.7553L111.519 24.1139L111.563 24.1492L102.609 31.7994L102.564 31.7553Z" fill="#FBBC58"/>
<path d="M102.529 31.72L111.475 24.0699L111.519 24.1139L102.564 31.7553L102.529 31.72Z" fill="#FABC56"/>
<path d="M102.485 31.6848L111.439 24.0346L111.475 24.0699L102.529 31.7201L102.485 31.6848Z" fill="#FABC55"/>
<path d="M102.441 31.6407L111.396 23.9994L111.44 24.0346L102.485 31.6848L102.441 31.6407Z" fill="#FABB54"/>
<path d="M102.405 31.6055L111.351 23.9553L111.395 23.9994L102.441 31.6407L102.405 31.6055Z" fill="#FABB53"/>
<path d="M102.362 31.5702L111.316 23.92L111.352 23.9553L102.406 31.6055L102.362 31.5702Z" fill="#FABA52"/>
<path d="M102.317 31.5261L111.272 23.8847L111.316 23.92L102.361 31.5702L102.317 31.5261Z" fill="#FABA51"/>
<path d="M102.282 31.4909L111.228 23.8407L111.272 23.8848L102.317 31.5262L102.282 31.4909Z" fill="#FABA50"/>
<path d="M102.238 31.4556L111.192 23.8055L111.228 23.8407L102.282 31.4909L102.238 31.4556Z" fill="#F9B94F"/>
<path d="M102.194 31.4116L111.148 23.7702L111.193 23.8055L102.238 31.4556L102.194 31.4116Z" fill="#F9B94E"/>
<path d="M102.159 31.3763L111.104 23.7261L111.149 23.7702L102.194 31.4116L102.159 31.3763Z" fill="#F9B94D"/>
<path d="M102.114 31.3411L111.069 23.6909L111.104 23.7261L102.158 31.3763L102.114 31.3411Z" fill="#F9B84C"/>
<path d="M102.07 31.297L111.025 23.6556L111.069 23.6909L102.114 31.341L102.07 31.297Z" fill="#F9B84B"/>
<path d="M102.036 31.2617L110.981 23.6115L111.025 23.6556L102.071 31.297L102.036 31.2617Z" fill="#F9B84A"/>
<path d="M101.992 31.2265L110.946 23.5763L110.982 23.6115L102.036 31.2617L101.992 31.2265Z" fill="#F9B749"/>
<path d="M101.947 31.1824L110.902 23.5411L110.946 23.5763L101.991 31.2265L101.947 31.1824Z" fill="#F8B748"/>
<path d="M101.912 31.1472L110.858 23.497L110.902 23.5411L101.947 31.1824L101.912 31.1472Z" fill="#F8B647"/>
<path d="M101.868 31.1119L110.822 23.4618L110.858 23.497L101.912 31.1472L101.868 31.1119Z" fill="#F8B646"/>
<path d="M101.824 31.0679L110.779 23.4265L110.823 23.4617L101.868 31.1119L101.824 31.0679Z" fill="#F8B645"/>
<path d="M101.789 31.0326L110.734 23.3824L110.778 23.4265L101.824 31.0678L101.789 31.0326Z" fill="#F8B544"/>
<path d="M101.745 30.9973L110.699 23.3471L110.734 23.3824L101.789 31.0326L101.745 30.9973Z" fill="#F8B543"/>
<path d="M101.701 30.9533L110.655 23.3119L110.699 23.3471L101.745 30.9973L101.701 30.9533Z" fill="#F8B542"/>
<path d="M101.666 30.918L110.611 23.2679L110.655 23.3119L101.701 30.9533L101.666 30.918Z" fill="#F7B441"/>
<path d="M101.621 30.8828L110.576 23.2326L110.611 23.2678L101.665 30.918L101.621 30.8828Z" fill="#F7B440"/>
<path d="M101.586 30.8475L110.532 23.1973L110.576 23.2326L101.621 30.8828L101.586 30.8475Z" fill="#F7B43F"/>
<path d="M101.542 30.8034L110.487 23.1533L110.531 23.1973L101.586 30.8475L101.542 30.8034Z" fill="#F7B33E"/>
<path d="M101.498 30.7682L110.452 23.118L110.487 23.1533L101.542 30.8035L101.498 30.7682Z" fill="#F7B33D"/>
<path d="M101.462 30.7329L110.408 23.0827L110.452 23.118L101.498 30.7681L101.462 30.7329Z" fill="#F7B33C"/>
<path d="M101.418 30.6889L110.373 23.0387L110.408 23.0828L101.462 30.7329L101.418 30.6889Z" fill="#F7B23B"/>
<path d="M101.375 30.6536L110.329 23.0034L110.373 23.0387L101.419 30.6889L101.375 30.6536Z" fill="#F6B23A"/>
<path d="M101.339 30.6183L110.285 22.9681L110.329 23.0034L101.375 30.6536L101.339 30.6183Z" fill="#F6B139"/>
<path d="M101.295 30.5743L110.25 22.9241L110.285 22.9682L101.339 30.6184L101.295 30.5743Z" fill="#F6B138"/>
<path d="M101.251 30.539L110.206 22.8888L110.25 22.9241L101.295 30.5743L101.251 30.539Z" fill="#F6B137"/>
<path d="M101.216 30.5038L110.162 22.8536L110.206 22.8888L101.252 30.539L101.216 30.5038Z" fill="#F6B036"/>
<path d="M101.171 30.4597L110.126 22.8095L110.161 22.8536L101.215 30.5038L101.171 30.4597Z" fill="#F6B035"/>
<path d="M101.128 30.4244L110.083 22.7743L110.127 22.8095L101.172 30.4597L101.128 30.4244Z" fill="#F6B034"/>
<path d="M101.092 30.3892L110.038 22.739L110.082 22.7743L101.128 30.4245L101.092 30.3892Z" fill="#F5AF33"/>
<path d="M101.048 30.3451L110.003 22.7037L110.038 22.739L101.092 30.3892L101.048 30.3451Z" fill="#F5AF32"/>
<path d="M101.004 30.3099L109.959 22.6597L110.003 22.7038L101.048 30.3452L101.004 30.3099Z" fill="#F5AF31"/>
<path d="M100.969 30.2746L109.915 22.6245L109.959 22.6597L101.004 30.3099L100.969 30.2746Z" fill="#F5AE30"/>
<path d="M100.925 30.2305L109.879 22.5892L109.915 22.6244L100.969 30.2746L100.925 30.2305Z" fill="#F5AE2F"/>
<path d="M100.88 30.1953L109.835 22.5451L109.879 22.5892L100.924 30.2305L100.88 30.1953Z" fill="#F5AE2E"/>
<path d="M100.845 30.16L109.791 22.5099L109.835 22.5451L100.88 30.1953L100.845 30.16Z" fill="#F5AD2D"/>
<path d="M100.801 30.116L109.756 22.4746L109.791 22.5099L100.845 30.16L100.801 30.116Z" fill="#F4AD2C"/>
<path d="M100.757 30.0807L109.712 22.4305L109.756 22.4746L100.801 30.116L100.757 30.0807Z" fill="#F4AD2B"/>
<path d="M100.722 30.0455L109.667 22.3953L109.712 22.4305L100.757 30.0807L100.722 30.0455Z" fill="#F4AC2A"/>
<path d="M100.678 30.0014L109.633 22.3601L109.668 22.3953L100.722 30.0455L100.678 30.0014Z" fill="#F4AC29"/>
<path d="M100.634 29.9661L109.589 22.3159L109.633 22.36L100.678 30.0014L100.634 29.9661Z" fill="#F4AC28"/>
<path d="M100.599 29.9309L109.545 22.2807L109.589 22.316L100.634 29.9661L100.599 29.9309Z" fill="#F4AB27"/>
<path d="M100.555 29.8868L109.509 22.2455L109.545 22.2807L100.599 29.9309L100.555 29.8868Z" fill="#F4AB26"/>
<path d="M100.511 29.8516L109.465 22.2014L109.509 22.2455L100.555 29.8868L100.511 29.8516Z" fill="#F3AB25"/>
<path d="M100.475 29.8163L109.421 22.1661L109.465 22.2014L100.51 29.8516L100.475 29.8163Z" fill="#F3AA24"/>
<path d="M100.432 29.7723L109.386 22.1309L109.421 22.1661L100.476 29.8163L100.432 29.7723Z" fill="#F3AA23"/>
<path d="M100.387 29.737L109.342 22.0868L109.386 22.1309L100.431 29.7722L100.387 29.737Z" fill="#F3AA22"/>
<path d="M100.44 29.6224L109.298 22.0515L109.342 22.0868L100.387 29.737L100.361 29.7105L100.44 29.6224Z" fill="#F3A921"/>
<path d="M100.766 29.2699L109.262 22.0163L109.298 22.0516L100.44 29.6224L100.766 29.2699Z" fill="#F3A920"/>
<path d="M101.092 28.9174L109.218 21.9723L109.262 22.0163L100.766 29.2699L101.092 28.9174Z" fill="#F3A91F"/>
<path d="M101.418 28.5648L109.174 21.937L109.218 21.9722L101.092 28.9173L101.418 28.5648Z" fill="#F2A81E"/>
<path d="M101.744 28.2123L109.139 21.9017L109.174 21.937L101.418 28.5648L101.744 28.2123Z" fill="#F2A81E"/>
<path d="M102.071 27.8597L109.095 21.8577L109.139 21.9018L101.745 28.2123L102.071 27.8597Z" fill="#F2A81D"/>
<path d="M102.405 27.5071L109.051 21.8224L109.095 21.8576L102.07 27.8597L102.405 27.5071Z" fill="#F2A71C"/>
<path d="M102.731 27.1546L109.015 21.7871L109.051 21.8224L102.405 27.5071L102.731 27.1546Z" fill="#F2A71B"/>
<path d="M109.015 21.7872L102.731 27.1546L108.31 21.1349L109.015 21.7872Z" fill="#F2A71B"/>
</g>
<path d="M112.022 32.8129C113.097 32.8129 113.969 31.9409 113.969 30.8651C113.969 29.7894 113.097 28.9173 112.022 28.9173C110.946 28.9173 110.074 29.7894 110.074 30.8651C110.074 31.9409 110.946 32.8129 112.022 32.8129Z" fill="#F4EBD4"/>
<path d="M107.632 32.4957C108.177 32.4957 108.619 32.0537 108.619 31.5086C108.619 30.9634 108.177 30.5215 107.632 30.5215C107.087 30.5215 106.645 30.9634 106.645 31.5086C106.645 32.0537 107.087 32.4957 107.632 32.4957Z" fill="#F4EBD4"/>
<path d="M114.965 14.4278C114.691 14.0489 114.63 13.6082 114.859 13.3614C115.212 12.9912 115.758 12.8238 116.375 12.9383C117.195 13.0882 118.041 13.7051 118.561 14.516C118.799 14.8861 119.186 15.1682 119.574 15.2034C119.918 15.2387 120.288 15.2916 120.632 15.318C121.117 15.3621 121.434 15.0448 121.363 14.5777C121.337 14.375 121.31 14.1723 121.337 13.996C121.355 13.8638 121.381 13.7228 121.346 13.5729L121.328 13.5024C121.081 12.3831 121.883 11.6339 123.038 11.9248C123.743 12.1011 124.457 12.2773 125.162 12.4536C124.58 12.5682 123.99 12.6828 123.408 12.7885C123.082 12.8502 122.888 13.1146 122.915 13.4672L123.117 16.3933C123.144 16.7811 122.906 17.0631 122.527 17.0807C121.619 17.1336 120.482 17.2129 119.513 17.2394C119.081 17.257 118.587 16.9485 118.34 16.499C118.182 16.2082 118.023 15.9262 117.75 15.6882C117.485 15.3004 117.071 15.0272 116.71 15.0007C116.234 14.9655 115.899 15.3445 116.005 15.8997L114.947 14.4278H114.965Z" fill="#011F26"/>
<path d="M116.243 16.4197L114.868 14.4983C114.551 14.0576 114.516 13.5553 114.771 13.2821C115.159 12.8766 115.75 12.7092 116.393 12.8237C117.248 12.9824 118.112 13.5993 118.658 14.4543C118.887 14.8068 119.249 15.0536 119.583 15.0888C119.76 15.1065 119.945 15.1241 120.13 15.1505C120.306 15.1682 120.482 15.1946 120.65 15.2122C120.853 15.2299 121.02 15.177 121.135 15.0624C121.24 14.9566 121.284 14.7892 121.258 14.6041C121.232 14.3926 121.196 14.1722 121.232 13.9871C121.249 13.8461 121.267 13.7315 121.24 13.6082L121.223 13.5376C121.099 12.9736 121.223 12.4624 121.567 12.1275C121.928 11.7749 122.483 11.6604 123.082 11.819L125.735 12.48L123.444 12.9207C123.179 12.9736 123.03 13.1851 123.047 13.4671L123.25 16.3932C123.268 16.6224 123.206 16.8163 123.074 16.9661C122.941 17.1071 122.765 17.1953 122.545 17.2041C122.254 17.2217 121.937 17.2393 121.611 17.257C120.914 17.301 120.183 17.3451 119.531 17.3627C119.046 17.3804 118.517 17.0543 118.253 16.5607L118.235 16.5254C118.085 16.2522 117.935 15.9878 117.689 15.7763H117.68V15.7499C117.442 15.3973 117.054 15.1417 116.728 15.1065C116.543 15.0888 116.384 15.1505 116.278 15.2739C116.155 15.4149 116.111 15.6265 116.155 15.8644L116.261 16.4021L116.243 16.4197ZM115.062 14.3573L115.899 15.5207C115.926 15.3709 115.988 15.2299 116.084 15.1241C116.243 14.9478 116.472 14.8597 116.737 14.8861C117.133 14.9214 117.574 15.2034 117.856 15.6176C118.129 15.8556 118.288 16.1465 118.438 16.4197L118.455 16.4549C118.684 16.8604 119.125 17.1424 119.522 17.1336C120.174 17.116 120.897 17.0719 121.593 17.0278C121.919 17.0102 122.236 16.9926 122.527 16.9749C122.677 16.9749 122.8 16.9132 122.889 16.8163C122.977 16.7193 123.021 16.5783 123.003 16.4197L122.8 13.4936C122.774 13.0793 123.003 12.7709 123.391 12.6915L124.607 12.4536L123.012 12.057C122.483 11.9248 122.016 12.0217 121.716 12.3037C121.434 12.577 121.337 13 121.443 13.4848L121.461 13.5553C121.496 13.7227 121.478 13.8637 121.461 14.0048C121.434 14.1722 121.461 14.3749 121.487 14.56C121.522 14.8244 121.461 15.0624 121.302 15.221C121.143 15.3885 120.897 15.4678 120.623 15.4414C120.456 15.4238 120.28 15.4061 120.103 15.3797C119.918 15.3621 119.742 15.3356 119.566 15.318C119.152 15.2827 118.729 14.9919 118.464 14.5776C117.962 13.7932 117.133 13.2027 116.358 13.0529C115.794 12.9471 115.282 13.0882 114.948 13.4407C114.771 13.6258 114.815 14.0136 115.062 14.3573Z" fill="#011F26"/>
<path d="M107.879 8.46986C108.188 8.65495 108.541 8.68139 108.717 8.48749C108.981 8.18783 109.078 7.75596 108.955 7.28884C108.787 6.66308 108.258 6.03731 107.606 5.68477C107.307 5.52613 107.06 5.23528 107.016 4.93562C106.972 4.67121 106.91 4.38036 106.866 4.11595C106.804 3.74578 107.025 3.48138 107.395 3.499C107.553 3.50782 107.712 3.51663 107.853 3.49019C107.959 3.46375 108.056 3.43731 108.179 3.45494H108.232C109.122 3.58714 109.651 2.91731 109.36 2.04476C109.184 1.50713 109.008 0.969507 108.823 0.423065C108.77 0.881371 108.717 1.33968 108.664 1.8068C108.637 2.06239 108.444 2.22985 108.17 2.22985H105.888C105.579 2.24748 105.385 2.44137 105.385 2.74104C105.403 3.44612 105.403 4.33629 105.438 5.08545C105.456 5.42036 105.72 5.78172 106.082 5.94918C106.311 6.05494 106.549 6.1607 106.743 6.3546C107.06 6.53087 107.298 6.83935 107.342 7.12138C107.404 7.49155 107.122 7.77359 106.681 7.72071L107.888 8.45223L107.879 8.46986Z" fill="#011F26"/>
<path d="M106.257 7.5973L106.68 7.65018C106.874 7.66781 107.033 7.62374 107.138 7.51798C107.227 7.42984 107.262 7.29764 107.235 7.15662C107.191 6.90103 106.971 6.619 106.68 6.45154H106.671V6.43391C106.495 6.25764 106.284 6.16069 106.063 6.05493H106.037C105.64 5.86103 105.358 5.47323 105.34 5.09425C105.314 4.58306 105.314 4.01899 105.305 3.48136C105.305 3.22577 105.305 2.97899 105.296 2.74984C105.296 2.58238 105.349 2.43255 105.455 2.32678C105.561 2.21221 105.711 2.15933 105.896 2.15933H108.178C108.399 2.1417 108.557 2.01831 108.584 1.80678L108.795 0L109.465 2.01831C109.615 2.47661 109.562 2.91729 109.315 3.21696C109.077 3.49899 108.69 3.63119 108.24 3.56068H108.187C108.09 3.54306 108.002 3.56068 107.905 3.57831C107.747 3.61357 107.579 3.60475 107.42 3.59594C107.271 3.58713 107.147 3.63119 107.068 3.71933C106.989 3.80746 106.953 3.94848 106.98 4.09831C107.006 4.23052 107.033 4.36272 107.05 4.49492C107.077 4.63594 107.103 4.77696 107.13 4.90916C107.174 5.16476 107.385 5.42916 107.676 5.58781C108.364 5.95798 108.901 6.59255 109.069 7.25357C109.201 7.74713 109.104 8.21425 108.804 8.54035C108.601 8.76069 108.214 8.76069 107.852 8.54035L106.284 7.57968L106.257 7.5973ZM107.05 6.48679C107.253 6.67188 107.385 6.90103 107.42 7.12137C107.456 7.32408 107.403 7.50917 107.271 7.64137C107.191 7.72069 107.094 7.78239 106.971 7.80883L107.923 8.39052C108.205 8.55798 108.505 8.57561 108.637 8.42578C108.884 8.15256 108.972 7.74713 108.857 7.31527C108.698 6.71595 108.187 6.11662 107.553 5.77289C107.209 5.58781 106.962 5.27933 106.909 4.96204C106.883 4.82984 106.856 4.68882 106.83 4.54781C106.804 4.4156 106.777 4.27458 106.751 4.14238C106.715 3.93085 106.759 3.73696 106.883 3.60475C106.997 3.47255 107.174 3.41085 107.385 3.41967C107.535 3.42848 107.694 3.43729 107.808 3.41085C107.923 3.38441 108.037 3.35797 108.17 3.3756H108.222C108.61 3.43729 108.928 3.34035 109.13 3.10238C109.342 2.8556 109.386 2.48543 109.254 2.08L108.848 0.86373L108.734 1.82441C108.698 2.13289 108.469 2.32678 108.143 2.32678H105.86C105.737 2.34441 105.631 2.37967 105.561 2.45017C105.49 2.52068 105.455 2.61763 105.455 2.74102C105.455 2.97018 105.455 3.21696 105.464 3.47255C105.464 4.01899 105.481 4.57425 105.499 5.08543C105.508 5.3851 105.755 5.72001 106.09 5.86984H106.116C106.336 5.98442 106.574 6.09018 106.777 6.29289C106.874 6.34577 106.962 6.41628 107.041 6.48679H107.05Z" fill="#011F26"/>
<path d="M94.6584 37.2374C98.2455 40.9567 102.555 46.2801 104.424 54.7588C106.469 64.0659 103.181 72.2184 101.886 76.3873C96.9587 92.2253 86.2238 101.938 82.6543 105.102C70.28 116.075 57.3065 120.076 52.8203 121.16C48.5898 122.183 40.12 123.69 30.3633 121.292C26.7586 120.402 22.5105 119.309 18.7294 115.74C13.7498 111.051 12.0576 103.833 11.0264 97.91C9.2989 88.0388 11.1498 80.8205 12.0487 76.9954C14.6047 66.1988 19.3816 58.152 21.162 55.4991C22.8542 52.9784 28.9003 43.3628 41.4861 35.4835C48.0875 31.3499 61.2726 24.6956 74.1492 26.6875C83.3946 28.1153 90.0489 32.4604 94.6496 37.2374H94.6584Z" fill="#011F26"/>
<path d="M92.3319 40.4191C95.6105 43.8211 99.5502 48.6774 101.251 56.4245C103.12 64.9296 100.114 72.3859 98.9332 76.1846C94.4295 90.6565 84.62 99.5317 81.3589 102.423C70.0511 112.452 58.1969 116.11 54.0986 117.097C50.2294 118.031 42.4911 119.406 33.5806 117.212C30.2843 116.401 26.4063 115.396 22.9514 112.144C18.4036 107.861 16.8612 101.268 15.9093 95.8565C14.3317 86.8314 16.0151 80.2388 16.8436 76.7486C19.1792 66.8862 23.5507 59.5269 25.1724 57.1032C26.7148 54.794 32.2409 46.0069 43.7426 38.815C49.7799 35.0428 61.8193 28.9614 73.5942 30.777C82.0464 32.0814 88.1278 36.0564 92.3319 40.4191Z" fill="#F2A71B"/>
<path d="M54.5301 79.4632C56.0372 81.032 57.8528 83.2618 58.6372 86.8313C59.501 90.7446 58.1172 94.1731 57.5708 95.927C55.4996 102.581 50.987 106.671 49.4887 108.002C44.2887 112.611 38.8331 114.294 36.947 114.753C35.1667 115.185 31.606 115.819 27.5077 114.806C25.9917 114.435 24.2114 113.968 22.6161 112.47C20.5273 110.496 19.8134 107.464 19.3816 104.979C18.6588 100.827 19.4344 97.7954 19.8134 96.1826C20.8887 91.6436 22.8982 88.2591 23.6473 87.1486C24.3612 86.091 26.8995 82.0456 32.1965 78.7317C34.9728 76.9954 40.5165 74.2015 45.9281 75.03C49.8148 75.6293 52.6087 77.4625 54.5477 79.4632H54.5301Z" fill="#E59310"/>
<path opacity="0.5" d="M62.5238 48.3248C57.2092 43.8387 57.3238 34.0469 58.637 26.6787C54.6533 19.4956 50.5902 38.4272 48.8627 41.1065C45.0905 49.9201 36.1183 56.3628 29.6403 63.59C17.0105 71.6279 -6.50414 102.149 4.07215 113.413C16.5786 112.355 32.117 98.4829 43.7244 92.2958C60.5848 83.5263 66.393 65.8286 62.5326 48.3337L62.5238 48.3248ZM56.3278 49.4001C56.5394 48.6862 56.4953 49.5235 56.6099 49.8232C56.5217 49.6821 56.4248 49.5411 56.3278 49.4001ZM26.0797 76.7574C26.723 75.9378 27.3752 75.1269 28.0363 74.3249C27.3841 75.1357 26.7319 75.9466 26.0797 76.7574ZM7.12165 108.433C7.18334 108.504 7.23622 108.574 7.29792 108.645C6.94538 109.112 7.07758 108.795 7.12165 108.433Z" fill="#F9DCB2"/>
<path opacity="0.6" d="M59.2103 32.8482C55.394 22.6421 48.1933 61.7391 42.8435 64.2157C41.6889 72.6503 -8.25764 98.148 5.60612 98.289C10.7268 91.4673 19.4611 88.6029 26.2299 83.632C20.6509 91.4761 20.0692 102.22 13.3885 109.156C12.0224 123.699 31.8706 81.7723 32.3024 79.6923C41.9621 73.7608 49.6299 52.2028 49.7974 72.853C54.0632 78.8374 37.5113 99.9548 47.3296 92.7629C60.6469 74.4923 44.3242 57.2353 59.2191 32.857L59.2103 32.8482Z" fill="#CC9042"/>
<path d="M60.109 33.5973C61.3253 2.54711 46.8446 39.8726 42.6846 48.034C23.8764 67.7323 -1.77989 82.7418 0.0974055 113.554C7.27166 120.393 22.1842 106.353 30.707 103.551C65.1592 88.453 71.5579 66.8862 60.109 33.5973ZM62.6738 64.8679C60.9728 88.0212 35.0697 97.1256 17.0812 107.173C0.273676 118.613 2.34487 105.534 7.33335 92.7541C16.1646 66.331 51.6656 57.3499 54.4684 27.9126C58.4609 22.0868 56.6453 28.4943 56.8392 32.0021C56.9802 43.3187 63.3877 53.4543 62.6738 64.8679Z" fill="#E59310"/>
<path opacity="0.5" d="M61.1935 49.6557C69.3284 51.8326 79.6051 45.9804 86.559 40.4631C96.6946 39.855 79.2878 54.653 77.5603 57.7906C70.6593 66.3839 69.584 78.291 66.085 88.409C65.6708 104.564 48.4491 143.793 29.7819 140.832C22.9073 128.881 27.6226 106.662 26.75 92.5161C25.2341 72.0951 40.226 56.4421 61.1847 49.6557H61.1935ZM64.0139 55.8957C64.6396 55.2876 63.7759 55.8164 63.3881 55.8957C63.5996 55.8957 63.8023 55.8957 64.0139 55.8957ZM54.4511 99.3643C54.9006 98.2978 55.3413 97.2314 55.7732 96.1649C55.3325 97.2314 54.8918 98.2978 54.4511 99.3643ZM33.0958 135.13C32.9901 135.121 32.8755 135.112 32.7609 135.086C32.4965 135.676 32.7433 135.377 33.0958 135.13Z" fill="#F9DCB2"/>
<path opacity="0.6" d="M79.6665 43.5567C92.8956 41.0184 56.1783 70.5086 56.9803 76.8015C48.8101 82.8035 53.7986 143.018 44.7823 130.538C48.7132 121.892 46.1572 112.303 47.0915 103.251C42.3674 112.911 31.3857 119.75 28.3362 129.877C13.8379 139.651 45.461 97.0463 47.3823 95.4422C47.4793 83.209 65.3532 63.5988 43.425 75.5764C34.3735 75.2239 22.6338 102.625 23.9647 89.5107C34.7613 66.7188 63.4407 71.3635 79.6753 43.5567H79.6665Z" fill="#CC9042"/>
<path d="M78.3001 43.1866C110.337 23.8408 80.1598 58.8835 74.1842 67.4415C65.3971 96.0416 65.9347 128.097 32.1787 144.499C20.3685 142.022 25.6655 120.27 23.1712 110.901C17.0987 70.8348 35.7923 52.3703 78.3001 43.1777V43.1866ZM43.6099 59.2273C20.2275 74.369 27.1726 103.172 28.0539 125.364C26.7143 147.31 39.2119 137.756 49.5326 125.717C71.8133 102.193 58.593 64.771 87.9157 44.9405C91.5205 37.8984 85.9062 43.3099 82.0812 45.1961C70.033 51.7093 55.2262 51.8679 43.6099 59.2185V59.2273Z" fill="#E59310"/>
<path d="M15.1862 102.149C12.4716 100.439 10.3035 92.1195 9.7394 87.4571C7.84448 71.6367 11.0526 63.3696 18.9496 48.6509C21.1882 44.4821 28.3096 33.8882 41.9442 25.6563C41.9442 25.6563 52.3883 17.4861 74.0168 20.4739C77.9741 21.0203 87.4311 23.3559 90.9213 27.3926C93.5389 30.4156 98.8623 37.5017 95.8216 40.5865C78.1504 58.5309 68.4907 67.4679 57.4032 77.9384C37.6432 96.5968 19.8838 105.102 15.1862 102.149Z" fill="#011F26"/>
<path d="M14.9397 98.8619C14.6224 98.7826 14.7898 91.5202 14.3051 87.2103C12.6657 72.5622 13.1417 63.1581 20.5803 49.453C22.6868 45.5662 29.3851 35.695 42.1031 27.9567C42.1031 27.9567 51.8597 20.2977 71.9106 22.8977C75.577 23.3736 78.2652 24.9953 61.5194 39.4408C58.4347 42.1025 88.912 38.0218 86.9113 41.5648C76.3086 60.373 58.7519 52.7052 48.3784 62.4971C29.8963 79.9391 22.0875 100.572 14.9308 98.8531L14.9397 98.8619Z" fill="#025E73"/>
<path d="M23.3563 44.9492C15.8559 58.5927 15.1861 67.6618 15.8383 82.9358C16.0234 87.228 20.8444 93.9704 22.8098 91.8287C26.1414 88.1975 26.5644 86.6287 29.5963 83.4734C25.4099 90.0571 21.2587 103.965 15.1861 99.1087C12.8858 97.2666 11.3786 89.4402 10.9027 85.1303C9.28982 70.4998 13.4146 63.4313 20.8709 49.7438C22.9861 45.8659 23.3651 44.9492 23.3651 44.9492H23.3563Z" fill="#0292AA"/>
<path d="M102.617 62.4971C108.337 62.7703 114.066 63.0347 119.786 63.3079C121.249 58.8659 122.712 54.4327 124.175 49.9906C127.824 49.8496 131.473 49.7086 135.122 49.5676C133.764 50.5282 132.407 51.4889 131.059 52.4496C129.463 59.0333 127.868 65.6171 126.273 72.2008C118.393 72.7561 110.514 73.3025 102.635 73.8578C102.635 70.0768 102.626 66.2869 102.617 62.5059V62.4971Z" fill="#011F26"/>
<path d="M24.3344 107.526C26.2294 110.117 34.9284 113.827 39.6172 114.057C55.5345 114.841 65.6349 113.722 79.763 104.811C83.7644 102.29 93.8383 94.4463 101.101 80.2653C101.101 80.2653 108.522 69.2747 104.027 47.9106C103.207 44.0062 98.3332 35.4306 95.7949 32.4075C93.2566 29.3845 88.5325 23.9289 84.4342 25.3038C60.0206 33.4828 49.4531 50.0347 42.2172 59.5269C25.7534 81.1466 21.0646 103.04 24.3433 107.526H24.3344Z" fill="#011F26"/>
<path d="M27.0758 107.79C28.8033 110.179 35.3165 112.558 39.6528 112.734C54.3803 113.343 63.7315 112.214 76.8813 103.833C80.6095 101.453 89.9871 94.0938 96.8176 80.8646C96.8176 80.8646 103.772 70.5968 99.779 50.775C99.0475 47.1527 94.8081 39.8374 91.9702 36.7614C87.3607 31.7553 80.3362 32.4075 72.6596 35.7831C54.0101 43.9886 53.0053 47.9723 43.7952 59.4917C27.9307 79.3487 24.0704 103.648 27.067 107.79H27.0758Z" fill="#025E73"/>
<path d="M96.7206 80.988C96.7206 80.988 97.6725 79.5778 98.6684 76.7927C92.2962 86.8314 84.8928 92.6219 81.6934 94.6843C68.6317 103.084 59.3687 104.256 44.7998 103.745C40.5076 103.595 34.0825 101.277 32.3815 98.9148C31.3503 97.487 27.9747 88.8409 29.7198 85.2185C26.1415 95.8653 25.3483 105.366 27.1198 107.808C28.8472 110.196 35.3517 112.567 39.6791 112.752C54.3802 113.369 63.7137 112.259 76.8284 103.894C80.5477 101.524 89.9077 94.1819 96.7118 80.988H96.7206Z" fill="#0292AA"/>
<path d="M57.7468 83.7819L41.5298 71.8747L46.8973 62.594L48.6247 62.7615L42.984 71.1256L58.9278 79.7629L57.7468 83.7819Z" fill="#011F26"/>
<path d="M41.8115 61.1309C41.8115 61.1309 47.6637 65.6435 51.1715 61.2543C55.6577 55.6489 48.9946 52.2292 48.9946 52.2292" fill="#011F26"/>
<path d="M48.7477 52.7933L43.0718 60.3994C43.0718 60.3994 47.1701 63.8279 50.4223 59.5886C53.2603 55.8957 48.7477 52.7933 48.7477 52.7933Z" fill="#22EFEF"/>
<path d="M71.981 107.958C73.1885 103.903 74.3871 99.8402 75.5946 95.786C69.7865 96.7643 58.2671 95.3629 52.459 96.3412C55.6319 92.287 58.8136 88.2415 61.9864 84.1873C56.3546 89.1758 50.7227 94.1731 45.0908 99.1616C49.7091 99.8138 60.0475 102.854 64.6658 103.515C63.2909 106.16 61.9247 108.795 60.5498 111.439C64.3573 110.275 68.1648 109.121 71.9722 107.958H71.981Z" fill="#011F26"/>
<path d="M65.1591 109.024L69.1164 101.48C64.1896 100.827 47.8228 98.2185 47.8228 98.2185C50.0878 96.3588 51.0662 95.1337 53.3401 93.2829C52.115 94.5697 50.4756 96.2531 49.2417 97.7249C49.2417 97.7249 65.5469 99.9988 71.5842 99.3202L69.6628 107.191C68.6845 107.658 66.9306 108.469 65.1591 109.033V109.024Z" fill="#22EFEF"/>
<path d="M62.1536 87.4571C64.3489 87.4571 66.1286 85.6775 66.1286 83.4822C66.1286 81.2869 64.3489 79.5073 62.1536 79.5073C59.9583 79.5073 58.1787 81.2869 58.1787 83.4822C58.1787 85.6775 59.9583 87.4571 62.1536 87.4571Z" fill="#011F26"/>
<path d="M57.4384 83.8347C57.3415 82.5744 57.7469 81.3581 58.5666 80.3974C59.3862 79.4368 60.532 78.8639 61.7923 78.7669C63.0527 78.67 64.269 79.0754 65.2296 79.8951C66.1903 80.7147 66.7632 81.8605 66.8601 83.1208C66.9571 84.3812 66.5517 85.5974 65.732 86.5581C64.031 88.5324 61.0432 88.7615 59.0689 87.0605C58.5578 86.6198 58.1611 86.091 57.8791 85.5093C57.6323 84.9893 57.4825 84.4252 57.4384 83.8347ZM64.2601 81.032C63.6079 80.4679 62.7706 80.1947 61.9157 80.2564C61.0608 80.3181 60.2676 80.7147 59.7123 81.3757C59.1483 82.0279 58.875 82.8652 58.9367 83.7201C58.9984 84.5839 59.395 85.3683 60.0561 85.9235C61.4045 87.0869 63.4493 86.9283 64.6127 85.5798C65.1767 84.9276 65.45 84.0903 65.3883 83.2354C65.3618 82.83 65.2561 82.4422 65.0886 82.0896C64.8947 81.6842 64.6215 81.3229 64.2778 81.0232L64.2601 81.032Z" fill="#011F26"/>
<path d="M62.1534 85.9852C63.5358 85.9852 64.6565 84.8646 64.6565 83.4822C64.6565 82.0998 63.5358 80.9791 62.1534 80.9791C60.771 80.9791 59.6504 82.0998 59.6504 83.4822C59.6504 84.8646 60.771 85.9852 62.1534 85.9852Z" fill="#22EFEF"/>
<path d="M23.2769 58.1961L34.2233 62.3473L39.3088 57.9405L38.8681 56.6889L34.6287 60.9371L26.4938 55.7635L23.2769 58.1961Z" fill="#011F26"/>
<path d="M41.4684 61.2632C41.4684 61.2632 36.5416 58.5486 39.7145 54.1682C43.7335 48.6245 47.8935 52.2645 47.8935 52.2645L41.4684 61.2632Z" fill="#011F26"/>
<path d="M47.453 52.6875L41.874 60.0116C41.874 60.0116 38.1899 58.2225 41.2746 54.0889C43.9452 50.5106 47.453 52.6875 47.453 52.6875Z" fill="#22EFEF"/>
<path d="M22.1137 59.2361L22.0872 59.4212L19.3286 77.2687L12.1367 68.2964C12.4364 67.3534 12.7713 66.3839 13.1415 65.388C13.4147 64.63 13.7143 63.8456 14.0405 63.0876C14.5781 61.7744 15.1686 60.4788 15.7679 59.2273L18.8791 69.0544L22.052 59.43L22.1137 59.2361Z" fill="#011F26"/>
<path d="M20.1044 67.4768L18.6854 74.7392L13.1328 65.388C13.406 64.63 13.7057 63.8456 14.0318 63.0876L18.562 73.0029L20.1044 67.4768Z" fill="#22EFEF"/>
<path d="M25.3391 56.7506C24.1493 58.4693 21.9988 59.2889 20.5446 58.5926C19.0991 57.8964 18.9052 55.9574 20.0951 54.2652C21.2849 52.573 23.4002 51.7533 24.8456 52.4231C26.2998 53.1018 26.5202 55.0408 25.3303 56.7506H25.3391Z" fill="#011F26"/>
<path d="M25.2513 51.8503C24.4228 51.4625 23.374 51.4713 22.3164 51.8943C21.25 52.3086 20.2893 53.0665 19.6106 54.0448C18.2005 56.0543 18.4384 58.3547 20.1483 59.192C20.5801 59.4035 21.0913 59.4916 21.6289 59.4828C21.77 59.474 21.911 59.4652 22.052 59.4387C22.0608 59.4387 22.0696 59.4387 22.0784 59.4299C22.4133 59.3859 22.7571 59.2977 23.1008 59.1655C23.4974 59.0157 23.8764 58.813 24.2466 58.5662C24.8635 58.152 25.41 57.6143 25.833 56.9886C26.1062 56.592 26.3178 56.1865 26.4676 55.7811C26.6967 55.1642 26.7849 54.5472 26.7144 53.9567C26.5998 52.9872 26.0886 52.2381 25.2425 51.8503H25.2513ZM24.8459 56.5126C24.3788 57.1825 23.7089 57.7113 22.9862 57.9933C22.2459 58.2754 21.532 58.2754 20.9591 58.0021C19.7957 57.4469 19.6283 55.8693 20.5977 54.4943C21.0649 53.8245 21.7083 53.2957 22.4398 53.0225C22.7835 52.8903 23.1184 52.8109 23.4445 52.8021C23.8059 52.7933 24.1496 52.855 24.4581 52.996C25.0222 53.2604 25.3835 53.7716 25.4628 54.4326C25.4717 54.512 25.4717 54.6089 25.4717 54.6882C25.4717 55.2876 25.2601 55.9133 24.8547 56.5126H24.8459Z" fill="#011F26"/>
<path d="M24.3609 56.2835C23.6118 57.3588 22.2633 57.8788 21.3467 57.4469C20.4389 57.015 20.3067 55.79 21.0559 54.7235C21.805 53.6571 23.1447 53.1371 24.0525 53.5689C24.9691 54.0008 25.1013 55.2171 24.3521 56.2923L24.3609 56.2835Z" fill="#22EFEF"/>
</svg>
