<svg width="82" height="68" viewBox="0 0 82 68" fill="none" xmlns="http://www.w3.org/2000/svg">
<g clip-path="url(#clip0_329_875)">
<path d="M77.59 59.77V55.26L77.02 54.69H73.78V24.18H77.02L77.59 23.61V19.1H80.74L81.26 18.67L81.38 18.08L81.5 17.48L81.18 16.89L80.63 16.66L41.24 0.13L40.92 0H40.57L40.26 0.13L0.87 16.66L0.31 16.89L0 17.48L0.12 18.08L0.23 18.67L0.76 19.1H3.9V23.61L4.47 24.18H7.71V54.69H4.47L3.9 55.26V59.77H0.66L0.09 60.34V66.83L0.66 67.4H80.84L81.4 66.83V60.34L80.84 59.77H77.59ZM6.44 21.64V19.1H60.51L61.08 18.53V17.13L60.51 16.56H7.68L40.75 2.68L73.82 16.56H71.81L71.24 17.13V18.53L71.81 19.1H75.05V21.64H6.44ZM71.24 24.18V54.69H67.43V24.18H71.24ZM64.89 24.18V54.69H62.35V24.18H64.89ZM59.81 24.18V54.69H55.99V24.18H59.81ZM53.45 24.18V54.69H50.91V24.18H53.45ZM48.37 24.18V54.69H44.56V24.18H48.37ZM42.02 24.18V54.69H39.48V24.18H42.02ZM36.94 24.18V54.69H33.12V24.18H36.94ZM30.58 24.18V54.69H28.04V24.18H30.58ZM25.5 24.18V54.69H21.69V24.18H25.5ZM19.15 24.18V54.69H16.61V24.18H19.15ZM14.07 24.18V54.69H10.25V24.18H14.07ZM78.86 64.86H2.63V62.31H60.51L61.08 61.75V60.34L60.51 59.77H6.44V57.23H75.05V59.77H71.81L71.24 60.34V61.75L71.81 62.31H78.86V64.86Z" fill="#39A900"/>
</g>
<defs>
<clipPath id="clip0_329_875">
<rect width="81.5" height="67.4" fill="white"/>
</clipPath>
</defs>
</svg>
