<svg width="360" height="351" viewBox="0 0 360 351" fill="none" xmlns="http://www.w3.org/2000/svg">
<g clip-path="url(#clip0_329_252)">
<path fill-rule="evenodd" clip-rule="evenodd" d="M35.8875 125.625V125.775C35.7375 126.413 35.7 126.9 35.7 127.2C35.7 129.225 36.8625 130.688 39.1125 131.7C41.4375 132.675 44.9625 133.163 49.7625 133.163C53.4 133.163 56.25 132.75 58.35 131.963C60.45 131.175 61.4625 130.05 61.4625 128.663C61.4625 126.525 57.3375 124.838 49.1625 123.488C48.1875 123.338 47.475 123.225 47.025 123.15C46.5 123.038 45.7125 122.925 44.7375 122.775C31.725 120.638 23.3625 118.35 19.65 115.838C17.85 114.6 16.4625 113.175 15.5625 111.525C14.6625 109.875 14.2125 108 14.2125 105.938C14.2125 100.838 17.2125 96.975 23.175 94.3125C29.1375 91.65 37.9125 90.3375 49.425 90.3375C60.9375 90.3375 69.225 91.575 74.7 94.05C80.175 96.5625 82.9125 100.388 82.9125 105.563V106.163H61.35V105.938C61.35 104.138 60.2625 102.825 58.0875 101.888C55.9125 100.95 52.725 100.5 48.4875 100.5C45.225 100.5 42.675 100.838 40.95 101.475C39.15 102.113 38.2875 103.05 38.2875 104.25C38.2875 106.425 42.975 108.225 52.3875 109.763C54.1875 110.025 55.6125 110.25 56.625 110.4C63.3375 111.525 68.1 112.5 70.9125 113.288C73.7625 114.075 76.2 115.05 78.2625 116.138C80.55 117.375 82.35 118.988 83.5875 120.9C84.825 122.813 85.4625 124.913 85.4625 127.2C85.4625 132.45 82.2 136.463 75.675 139.313C69.15 142.125 59.775 143.55 47.55 143.55C35.325 143.55 26.7 142.2 21.3 139.463C15.9 136.725 13.2 132.375 13.2 126.375V125.625H35.85H35.8875ZM94.95 142.688V91.0875H156.375V102.225H118.012V110.438H153.487V121.425H118.012V131.438H157.837V142.688H94.95ZM167.475 142.688V91.0875H196.687L227.925 125.7V91.0875H250.087V142.688H219.787L189.562 107.963V142.688H167.475ZM309.675 122.1L298.65 103.35L286.987 122.1H309.712H309.675ZM274.537 142.688H251.4L287.1 91.0875H312.712L346.762 142.688H321.075L315.862 133.388H280.087L274.537 142.688Z" fill="white"/>
<path fill-rule="evenodd" clip-rule="evenodd" d="M68.2875 324.638L47.6625 305.25L110.4 196.35C113.813 190.425 109.537 183 102.675 183H0V155.775H165.3L68.2875 324.638Z" fill="white"/>
<path fill-rule="evenodd" clip-rule="evenodd" d="M291.713 324.638L312.338 305.25L249.6 196.35C246.188 190.425 250.463 183 257.325 183H360.038V155.775H194.738L291.75 324.638H291.713Z" fill="white"/>
<path fill-rule="evenodd" clip-rule="evenodd" d="M178.763 184.575C178.913 184.313 178.988 184.2 178.988 184.2L272.138 338.175L247.388 351.038L187.35 250.5C183.825 244.575 175.238 244.575 171.713 250.5C151.688 284.213 112.088 351.038 112.088 351.038L87.8625 339.075C87.8625 339.075 173.738 193.05 178.725 184.613L178.763 184.575Z" fill="white"/>
<path d="M180 76.875C201.228 76.875 218.438 59.6659 218.438 38.4375C218.438 17.2091 201.228 0 180 0C158.772 0 141.562 17.2091 141.562 38.4375C141.562 59.6659 158.772 76.875 180 76.875Z" fill="white"/>
</g>
<defs>
<clipPath id="clip0_329_252">
<rect width="360" height="351" fill="white"/>
</clipPath>
</defs>
</svg>
