<svg width="62" height="62" viewBox="0 0 62 62" fill="none" xmlns="http://www.w3.org/2000/svg">
<g clip-path="url(#clip0_329_909)">
<path d="M61.9001 51.0201C61.4301 51.6501 60.9801 51.8401 60.5001 51.5901C60.0401 51.3601 59.9601 50.9501 59.9601 50.4701C59.9701 46.8401 59.9701 43.2201 59.9701 39.5901C59.9701 37.9401 59.4301 37.2101 57.8501 36.7401C56.6001 36.3701 55.3501 36.0101 54.1001 35.6401C53.0401 38.5101 48.5601 38.5401 47.4201 35.6001C45.9101 36.0501 44.3701 36.4401 42.8901 36.9901C41.9001 37.3501 41.5301 38.2501 41.5301 39.2801C41.5301 40.6301 41.5201 41.9801 41.5101 43.3301C41.5101 43.5101 41.5101 43.6901 41.4901 43.8701C41.4201 44.3801 41.0901 44.6701 40.6001 44.7001C40.1001 44.7301 39.7401 44.4701 39.6301 43.9701C39.5601 43.6401 39.5701 43.2901 39.5701 42.9501C39.5701 41.7401 39.5701 40.5301 39.5901 39.3201C39.6201 37.0401 40.7701 35.5301 42.9601 34.8901C43.8601 34.6301 44.7601 34.3601 45.6401 33.9801C44.9901 33.9801 44.3401 33.9801 43.6901 33.9801C42.9901 33.9701 42.6101 33.6501 42.6101 32.9601C42.6101 30.0001 42.5201 27.0301 42.6801 24.0801C42.9001 20.0501 46.3701 16.9001 50.5201 16.7201C54.4801 16.5601 58.1201 19.5201 58.7501 23.4401C58.8601 24.1301 58.8701 24.8401 58.8801 25.5401C58.8901 27.9401 58.8801 30.3301 58.8801 32.7301C58.8801 33.6601 58.5701 33.9601 57.6601 33.9701C57.0601 33.9701 56.4501 33.9701 55.8501 33.9701C55.8301 33.9701 55.8101 33.9701 55.6901 34.0101C55.9001 34.1001 56.0301 34.1701 56.1701 34.2101C57.0001 34.4601 57.8301 34.6901 58.6601 34.9401C60.3101 35.4501 61.3801 36.5201 61.7901 38.2201C61.8101 38.2901 61.8601 38.3601 61.9001 38.4301V51.0001V51.0201ZM56.9501 32.0301C56.9501 29.5501 56.9901 27.1401 56.9501 24.7201C56.8901 21.4401 54.2301 18.8101 50.9701 18.7201C47.6301 18.6301 44.7901 21.0701 44.6101 24.3701C44.4701 26.8601 44.5601 29.3601 44.5601 31.8601C44.5601 31.9101 44.6101 31.9701 44.6201 32.0001H46.9501C45.8601 30.7701 45.4801 29.3901 45.5601 27.8601C45.5801 27.4601 45.5601 27.0501 45.5601 26.6501C45.5401 25.5501 45.9401 24.6301 46.7001 23.8201C47.1601 23.3301 47.5701 22.7701 47.9201 22.1901C48.1501 21.8101 48.3601 21.5201 48.8201 21.5101C49.3101 21.5101 49.6101 21.7901 49.7701 22.2201C50.1301 23.2301 50.8301 23.9501 51.7901 24.3501C52.8601 24.8001 53.9701 25.1501 55.0801 25.4901C55.5801 25.6401 55.9501 25.8901 55.9601 26.4101C55.9801 27.3301 55.9601 28.2601 55.9001 29.1801C55.8201 30.2501 55.2801 31.1401 54.5901 32.0201H56.9701L56.9501 32.0301ZM48.8301 24.4801C47.7701 25.2101 47.3201 26.1901 47.4801 27.4501C47.5301 27.8301 47.4801 28.2101 47.5001 28.5901C47.5601 30.1601 48.7801 31.5001 50.2901 31.6701C51.9501 31.8601 53.4601 30.9301 53.8801 29.3901C54.0201 28.8601 53.9801 28.2801 54.0501 27.7201C54.1001 27.3401 53.9201 27.2001 53.5801 27.1101C51.7901 26.5901 50.0701 25.9401 48.8401 24.4801H48.8301ZM49.2401 33.5601C49.2601 34.3001 49.0101 35.1301 49.8601 35.6501C50.4001 35.9801 51.3601 35.9401 51.8101 35.5701C52.5201 34.9901 52.2001 34.2201 52.2701 33.5601H49.2401Z" fill="#39A900"/>
<path d="M31.92 0C32.35 0.1 32.78 0.18 33.21 0.3C36.92 1.31 39.5 4.63 39.52 8.49C39.55 11.93 39.53 15.38 39.52 18.82C39.52 19.26 39.6 19.53 40.04 19.77C41 20.28 41.63 21.11 41.96 22.16C42.15 22.75 41.91 23.27 41.4 23.45C40.87 23.63 40.36 23.4 40.15 22.81C39.81 21.87 39.16 21.34 38.21 21.09C37.06 20.79 35.92 20.47 34.78 20.13C34.45 20.03 34.28 20.08 34.12 20.4C32.96 22.73 28.84 22.71 27.74 20.34C27.68 20.2 27.35 20.07 27.2 20.11C25.93 20.43 24.67 20.78 23.42 21.15C22.36 21.47 21.81 22.23 21.69 23.32C21.67 23.52 21.68 23.72 21.66 23.92C21.61 24.5 21.22 24.89 20.7 24.89C20.19 24.89 19.75 24.48 19.74 23.92C19.69 22.11 20.33 20.64 21.94 19.71C22.31 19.5 22.43 19.27 22.43 18.86C22.41 15.62 22.43 12.37 22.43 9.13C22.43 4.25 25.07 1.03 29.84 0.08C29.9 0.07 29.95 0.03 30 0C30.64 0 31.29 0 31.93 0L31.92 0ZM24.34 18.88C25.31 18.61 26.18 18.38 27.05 18.13C27.14 18.1 27.3 18.04 27.3 17.99C27.28 17.4 27.48 16.6 27.17 16.26C25.85 14.83 25.44 13.19 25.5 11.32C25.55 9.65 25.35 9.5 27.27 9.01C29.33 8.49 31.34 7.79 32.22 5.49C32.48 4.8 33.45 4.91 33.85 5.53C34.29 6.22 34.84 6.84 35.27 7.53C35.67 8.16 36.15 8.82 36.3 9.52C36.49 10.39 36.4 11.32 36.4 12.23C36.41 13.73 35.88 15.02 34.84 16.1C34.62 16.33 34.43 17.73 34.6 17.99C34.64 18.05 34.72 18.1 34.79 18.12C35.7 18.38 36.6 18.63 37.5 18.88C37.54 18.8 37.58 18.77 37.58 18.73C37.58 15.16 37.7 11.59 37.53 8.04C37.37 4.53 34.41 1.93 30.94 1.94C27.47 1.95 24.59 4.58 24.4 8.09C24.26 10.64 24.35 13.2 24.34 15.76C24.34 16.77 24.34 17.77 24.34 18.87V18.88ZM27.46 11.08C27.46 11.53 27.43 12.03 27.46 12.53C27.58 14.27 28.92 15.6 30.71 15.78C32.32 15.94 33.94 14.83 34.32 13.19C34.48 12.5 34.38 11.75 34.47 11.03C34.65 9.69 34 8.78 33.14 8.11C32.22 8.72 31.38 9.39 30.45 9.87C29.51 10.36 28.48 10.67 27.45 11.07L27.46 11.08ZM32.62 17.64H29.3C29.37 18.39 29.04 19.28 29.87 19.91C30.38 20.3 31.47 20.31 32 19.94C32.87 19.33 32.61 18.41 32.63 17.65L32.62 17.64Z" fill="#39A900"/>
<path d="M17.54 55.82C17.54 54.31 17.54 52.8 17.54 51.29C17.54 48.9 18.97 46.98 21.27 46.3C22.85 45.83 24.44 45.38 26.03 44.94C26.37 44.85 26.56 44.7 26.5 44.32C26.48 44.2 26.49 44.08 26.5 43.96C26.61 42.77 26.42 41.75 25.49 40.81C24.51 39.81 24.15 38.45 24.19 37.02C24.19 36.72 24.16 36.41 24.19 36.11C24.25 35.53 24.07 35.13 23.62 34.7C21 32.19 20.58 28.33 22.6 25.65C23.87 23.97 25.68 23.33 27.67 23.07C30.1 22.76 32.45 23.07 34.73 23.95C35.8 24.36 36.72 24.4 37.57 23.46C38.02 22.96 38.64 23.12 39.11 23.75C40.72 25.89 41.11 28.26 40.43 30.84C40.01 32.44 39.08 33.69 37.93 34.83C37.72 35.04 37.61 35.4 37.56 35.71C37.5 36.1 37.53 36.51 37.55 36.92C37.61 38.74 36.89 40.24 35.68 41.55C35.47 41.78 35.34 42.16 35.31 42.49C35.25 43.09 35.31 43.7 35.28 44.3C35.26 44.67 35.4 44.82 35.75 44.92C37.36 45.36 38.96 45.83 40.56 46.3C42.81 46.97 44.22 48.83 44.25 51.19C44.29 54.31 44.32 57.43 44.35 60.56C44.35 60.76 44.36 60.97 44.31 61.16C44.17 61.64 43.83 61.91 43.32 61.88C42.82 61.84 42.52 61.54 42.43 61.04C42.41 60.9 42.42 60.76 42.42 60.62C42.39 57.54 42.35 54.46 42.32 51.37C42.3 49.65 41.49 48.59 39.83 48.11C38.38 47.69 36.93 47.28 35.48 46.85C35.18 46.76 34.97 46.72 34.81 47.08C33.46 50.06 28.87 50.12 27.16 47.21C26.9 46.76 26.66 46.73 26.21 46.87C24.79 47.31 23.35 47.7 21.92 48.12C20.29 48.59 19.44 49.71 19.46 51.41C19.48 54.41 19.52 57.41 19.55 60.41C19.55 60.59 19.56 60.77 19.55 60.95C19.49 61.52 19.07 61.9 18.56 61.89C18.03 61.87 17.65 61.48 17.64 60.9C17.61 59.67 17.6 58.44 17.59 57.21C17.59 56.75 17.59 56.28 17.59 55.82C17.57 55.82 17.55 55.82 17.53 55.82H17.54ZM38 25.62C36.92 26.38 35.79 26.38 34.63 25.97C34.12 25.79 33.61 25.61 33.09 25.46C30.86 24.79 28.62 24.67 26.38 25.36C24.69 25.88 23.65 27.02 23.37 28.78C23.07 30.66 23.76 32.19 25.19 33.55C25.6 32.85 25.94 32.19 26.36 31.59C26.56 31.31 26.89 31.03 27.2 30.95C27.46 30.88 27.8 31.09 28.09 31.22C30.28 32.24 32.42 32.71 34.55 31.04C35.18 30.54 35.96 30.73 36.45 31.41C36.75 31.82 36.95 32.3 37.2 32.75C38.96 31.13 39.36 27.73 38 25.63V25.62ZM35.19 33.1C34.32 33.41 33.54 33.79 32.71 33.96C31.19 34.27 29.7 33.94 28.28 33.39C27.85 33.23 27.62 33.24 27.37 33.67C27.09 34.15 26.7 34.57 26.37 35.02C26.28 35.14 26.15 35.29 26.15 35.42C26.15 36.22 26.08 37.04 26.2 37.83C26.48 39.7 28.69 41.8 30.56 42.05C30.78 42.08 31.02 42.1 31.22 42.05C33.29 41.47 34.93 40.28 35.47 38.16C35.89 36.49 35.8 34.72 35.2 33.1H35.19ZM28.43 43.5C28.43 44 28.42 44.56 28.43 45.11C28.46 46.18 29.46 47.23 30.58 47.38C31.92 47.56 32.93 47.05 33.22 45.86C33.41 45.07 33.35 44.22 33.41 43.45C32.5 43.65 31.71 43.96 30.91 43.96C30.1 43.96 29.28 43.66 28.43 43.49V43.5Z" fill="#39A900"/>
<path d="M14.6601 35.72C13.2001 38.64 9.28012 38.3 7.93012 35.96C7.86012 35.83 7.57012 35.73 7.42012 35.77C6.18012 36.1 4.94012 36.44 3.71012 36.82C2.55012 37.18 1.95012 38.04 1.94012 39.33C1.94012 42.98 1.94012 46.62 1.93012 50.27C1.93012 50.47 1.95012 50.68 1.90012 50.87C1.78012 51.35 1.46012 51.64 0.950117 51.63C0.440117 51.63 0.130117 51.33 0.0201172 50.84C-0.0198828 50.67 0.000117187 50.48 0.000117187 50.3C0.000117187 46.67 0.000117187 43.05 0.000117187 39.42C0.000117187 37.08 1.16012 35.54 3.40012 34.89C4.58012 34.55 5.75012 34.2 6.94012 33.88C7.27012 33.79 7.43012 33.65 7.38012 33.3C7.36012 33.18 7.37012 33.06 7.38012 32.94C7.48012 32.12 7.27012 31.47 6.68012 30.83C5.75012 29.83 5.41012 28.55 5.53012 27.19C5.59012 26.48 5.38012 25.97 4.86012 25.44C3.45012 23.99 2.90012 22.23 3.31012 20.22C3.78012 17.89 5.48012 16.36 8.04012 15.95C10.0001 15.64 11.9301 15.75 13.8201 16.41C14.1601 16.53 14.5101 16.62 14.8501 16.75C15.4501 16.99 15.9301 16.84 16.3901 16.42C17.1101 15.76 17.6001 15.83 18.1901 16.62C20.0001 19.05 19.8901 22.61 17.9401 24.92C17.8501 25.03 17.7701 25.15 17.6601 25.23C16.8901 25.79 16.7401 26.55 16.8101 27.45C16.9101 28.8 16.4401 30.01 15.5301 30.98C15.0601 31.47 14.9501 31.97 14.9701 32.6C15.0001 33.75 14.9701 33.75 16.0701 34.07C17.0901 34.37 18.1201 34.65 19.1401 34.97C21.1001 35.58 22.2901 37.14 22.3301 39.18C22.3501 40.63 22.3301 42.08 22.3201 43.53C22.3201 44.27 21.9101 44.73 21.3201 44.71C20.7501 44.69 20.4001 44.25 20.3901 43.52C20.3901 42.19 20.4001 40.86 20.4001 39.53C20.4001 37.97 19.8201 37.18 18.3401 36.74C17.1801 36.4 16.0201 36.07 14.8601 35.73C14.8001 35.71 14.7501 35.71 14.6601 35.69V35.72ZM16.9801 18.41C16.1301 18.9 15.2701 18.94 14.3901 18.63C13.9301 18.47 13.4801 18.32 13.0101 18.18C11.2401 17.63 9.44012 17.55 7.65012 18.03C6.34012 18.38 5.47012 19.2 5.21012 20.58C4.93012 22.04 5.39012 23.26 6.47012 24.35C6.71012 23.96 6.94012 23.63 7.13012 23.27C7.73012 22.13 7.97012 22.07 9.11012 22.61C10.7901 23.41 12.4601 23.72 14.1101 22.44C14.7101 21.97 15.4501 22.16 15.9201 22.78C16.1201 23.04 16.2601 23.35 16.4401 23.64C17.6501 22.42 17.9201 19.95 16.9901 18.4L16.9801 18.41ZM8.68012 24.58C8.30012 25.07 7.95012 25.51 7.61012 25.96C7.54012 26.05 7.49012 26.17 7.47012 26.28C7.13012 28.49 8.13012 30.29 10.1701 31.22C10.8401 31.52 11.4801 31.54 12.1401 31.22C15.0301 29.82 15.3701 27.59 14.5401 24.47C12.6101 25.67 10.6401 25.3 8.67012 24.59L8.68012 24.58ZM9.37012 32.98C9.23012 34.06 9.28012 35.02 10.2701 35.6C10.9201 35.98 11.6301 36.02 12.2801 35.6C13.2401 34.98 13.0501 33.98 13.0201 32.96C11.8001 33.5 10.6101 33.55 9.37012 32.97V32.98Z" fill="#39A900"/>
</g>
<defs>
<clipPath id="clip0_329_909">
<rect width="61.9" height="61.89" fill="white"/>
</clipPath>
</defs>
</svg>
